/* XPM */
static char *out[] = {
/* columns rows colors chars-per-pixel */
"100 100 12 1 ",
"  c None",
". c #FC5842",
"X c #FCD64B",
"o c #E2D1EE",
"O c #E5D6EF",
"+ c #E8DAF1",
"@ c #EBDFF3",
"# c #EEE3F4",
"$ c #F0E8F6",
"% c #F3ECF8",
"& c #E7F3F3",
"* c white",
/* pixels */
"                                                                                                    ",
"                                                                                                    ",
"                                                                                                    ",
"                                                                                                    ",
"                                                                                                    ",
"                                                                                                    ",
"                                                                                                    ",
"                                                                                                    ",
"                                                                                                    ",
"                                                                                                    ",
"                                                                                                    ",
"                                                                                                    ",
"                                                                                                    ",
"                                                                                                    ",
"                                                                                                    ",
"                                                                                                    ",
"                                                                                                    ",
"                                                                                                    ",
"                                                                                                    ",
"                                                                                                    ",
"                                                                                                    ",
"                                                                                                    ",
"                                                                                                    ",
"                                                                                                    ",
"                                                                                                    ",
"                                                                                                    ",
"                                                                                                    ",
"                                                                                                    ",
"                                                   ***                                              ",
"                                                  ****                                              ",
"                                                  ****                                              ",
"                                                 oo***                                              ",
"                                                 o****                                              ",
"                                                 *****                                              ",
"                                          XXXXoooo****+                                             ",
"                                         oooo##@@*****+.XXX.XXX                                     ",
"                                         oo++#####****+O@@@&&&X                                     ",
"                                      XXX@@+$$$#$#*****#@@@XXXX                                     ",
"                                    XXXXX@@@$%%%%***%%%#@@@XXXX                                     ",
"                                    XXXX.@@@%%%%%%%%%%%$$$&XX.X                                     ",
"                                   XXXXXXo@@%%%%%%%%%%%$$$*XXXXX                                    ",
"                                   XXX&XXX@*%%%%%%%%%%%$$$*&X.XXX                                   ",
"                                   XXXXXXX.**********%%****X.@@@X                                   ",
"                                   .&&X*****************%%%X@@@@ooo                                 ",
"                                   ##&$$$*************%***%%%%@@OOoo                                ",
"                                  o##%%%%%****************%%%%@OOOO                                 ",
"                                **##*%%%%%%***************%%%%$+OO                                  ",
"                          ********#**%%%%%%%*************%%%%$$@+O  O                               ",
"                         *************%%%%%%*************%%%%%$#@+OOO                               ",
"                          ************%%%%%%%***********%%%%%%$*@++OO                               ",
"                               O*@##**%%%%%%***********%%%%%%%*$**++O                               ",
"                               O+@####$%%%%*************%%%%%%%$**** *                              ",
"                               O+@####%%%%%*************%%%%%%%*********                            ",
"                               ooO@###%%%%***************%%%%%%***********                          ",
"                               oO@@###%%%%***************%%%%%**#**********                         ",
"                                O@@@@@$%%******************@@@###@@********                         ",
"                                o@@@@@$$********%***********@@@@@++o    ***                         ",
"                               ooOOOO*$$$$****%%%%%%%********@@@@OOo                                ",
"                               oooOOOX$$$****%%%%%%%%%%**@***XXOOOOo                                ",
"                               ooo X.X.XX***$%%%%%%%%%%%*@@**XX                                     ",
"                                   X.XXXX**#$*%%%%%%%%%%$$@@XXX                                     ",
"                                    XX&XXX&#$*%%%%%%%%%%$$@@XX                                      ",
"                                    XXX.&&X##***%%%$$%%%$$@@XX                                      ",
"                                    XXXXX&&OO****%#$$$@*+Xo&XX                                      ",
"                                       XXX&OO****#####@+++oX                                        ",
"                                       XXX..o*****###@@+++o                                         ",
"                                             @***@@#@@@                                             ",
"                                             @@***+@@@@o                                            ",
"                                             *****OO@@@o                                            ",
"                                             ****oo oooo                                            ",
"                                             ***    oooo                                            ",
"                                             ***                                                    ",
"                                             ***                                                    ",
"                                             ***                                                    ",
"                                              *                                                     ",
"                                                                                                    ",
"                                                                                                    ",
"                                                                                                    ",
"                                                                                                    ",
"                                                                                                    ",
"                                                                                                    ",
"                                                                                                    ",
"                                                                                                    ",
"                                                                                                    ",
"                                                                                                    ",
"                                                                                                    ",
"                                                                                                    ",
"                                                                                                    ",
"                                                                                                    ",
"                                                                                                    ",
"                                                                                                    ",
"                                                                                                    ",
"                                                                                                    ",
"                                                                                                    ",
"                                                                                                    ",
"                                                                                                    ",
"                                                                                                    ",
"                                                                                                    ",
"                                                                                                    ",
"                                                                                                    "
};
