/* XPM */
static char *out[] = {
/* columns rows colors chars-per-pixel */
"100 100 12 1 ",
"  c None",
". c #FC5842",
"X c #FCD64B",
"o c #DFCDEC",
"O c #E2D1EE",
"+ c #E5D6EF",
"@ c #E8DAF1",
"# c #EBDFF3",
"$ c #EEE3F4",
"% c #F0E8F6",
"& c #E7F3F3",
"* c white",
/* pixels */
"                                                                                                    ",
"                                                                                                    ",
"                                                                                                    ",
"                                                                                                    ",
"                                                                                                    ",
"                                                                                                    ",
"                                                                                                    ",
"                                                                                                    ",
"                                                                                                    ",
"                                                                                                    ",
"                                                                                                    ",
"                                                                                                    ",
"                                                                                                    ",
"                                                                                                    ",
"                                                                                                    ",
"                                                                                                    ",
"                                                                                                    ",
"                                                                                                    ",
"                                                                                                    ",
"                                                                                                    ",
"                                                                                                    ",
"                                                                                                    ",
"                                                                                                    ",
"                                                                                                    ",
"                                                                                                    ",
"                                                                                                    ",
"                                                                                                    ",
"                                                    **                                              ",
"                                                   ***                                              ",
"                                                  ****                                              ",
"                                                  ****                                              ",
"                                                 oo***                                              ",
"                                                 o****                                              ",
"                                          XX###  *****+                                             ",
"                                         X&&#### o****+..XXX.XXX                                    ",
"                                         oo&#####*****+X&XXX&XXX                                    ",
"                                     XXXXoX$$$##$$$***$#OXXXXXXX                                    ",
"                                   XXXXXX@@$$$$$$$**%%%#@@@XXXX.                                    ",
"                                   XXXXXX@@$$$%%%$%%%%%$$$$XXX..                                    ",
"                                  XXX.X..@@@%%%%%%%%%%%$$$$XXXXXX                                   ",
"                                  XXXXXXXo@*%%%******%$$$$$&XX.XXX                                  ",
"                                  XXX&XXX..************$$$*&&.&XXX                                  ",
"                                  .&X&XXXXX****************XX.&&X                                   ",
"                                  .X$$$******************%%%**@@&.oo                                ",
"                                  ##$$$$********************%%%@OOOoo                               ",
"                                 ###%%%$%%******************%%%$OOOO                                ",
"                                ##**%%%%%%******************%%%$$OO                                 ",
"                          ******#***%%%%%%%****************%%%$$#+O+                                ",
"                         ************%%%%%%****************%%%%$##+++O                              ",
"                        **************%%%%%***************%%%%%*##@++OO                             ",
"                         **   O+*#****%%%%%**************%%%%%%%**@++OO                             ",
"                             O++####$$%%%%****************%%%%%%****+*                              ",
"                             O++####$%%%%*****************%%%%%%********                            ",
"                             OOOO@##$%%%%*****************$%%%%***********                          ",
"                              oOO@##$%%%*******************$%%%##**********                         ",
"                               OO@##$$%%*******************X$$$####*********                        ",
"                               OO+++$$$$********************@@@@###+    ****                        ",
"                                O+++$$$$********%************XX@@XOo                                ",
"                               oOOOO$$$$$******%%%************XX&OOOo                               ",
"                              ooo **$$$XX****$%%%%%%%%****@***.XOOOO                                ",
"                                   .X.XXX****$%%%%%%%%%%*$@***XX                                    ",
"                                   XXXXXX***$$%%%%%%%%%%$$$X&XXX                                    ",
"                                   XXX..X&&#$**%%%%%%%%%$$$.XXX                                     ",
"                                   XXX.&&XX#$***%%%$$%%%$$$XXX                                      ",
"                                      XX&&&O#$***%$$$$$+*+&&XX                                      ",
"                                      XXX&XOO*****##$$$++++X                                        ",
"                                      XXX.. o@***+####+++++o                                        ",
"                                             *****@@@@o                                             ",
"                                             *****+@@@o                                             ",
"                                             ****+OOOooo                                            ",
"                                             *** ooO  oo                                            ",
"                                             ***     ooo                                            ",
"                                             ***                                                    ",
"                                             ***                                                    ",
"                                             ***                                                    ",
"                                             ***                                                    ",
"                                              *                                                     ",
"                                                                                                    ",
"                                                                                                    ",
"                                                                                                    ",
"                                                                                                    ",
"                                                                                                    ",
"                                                                                                    ",
"                                                                                                    ",
"                                                                                                    ",
"                                                                                                    ",
"                                                                                                    ",
"                                                                                                    ",
"                                                                                                    ",
"                                                                                                    ",
"                                                                                                    ",
"                                                                                                    ",
"                                                                                                    ",
"                                                                                                    ",
"                                                                                                    ",
"                                                                                                    ",
"                                                                                                    ",
"                                                                                                    ",
"                                                                                                    ",
"                                                                                                    "
};
