/* XPM */
static char *out[] = {
/* columns rows colors chars-per-pixel */
"100 100 13 1 ",
"  c None",
". c #D42A41",
"X c #FC5842",
"o c #FCD64B",
"O c #D7BFE7",
"+ c #DAC4E8",
"@ c #DDC8EA",
"# c #DFCDEC",
"$ c #E2D1EE",
"% c #E5D6EF",
"& c #E8DAF1",
"* c #E7F3F3",
"= c white",
/* pixels */
"                                                                                                    ",
"                                                                                                    ",
"                                                                                                    ",
"                                                                                                    ",
"                                                                                                    ",
"                                                                                                    ",
"                                                                                                    ",
"                                                                                                    ",
"                                                                                                    ",
"                                                                                                    ",
"                                                                                                    ",
"                                                                                                    ",
"                                                                                                    ",
"                                                                                                    ",
"                                                                                                    ",
"                                                                                                    ",
"                                                                                                    ",
"                                                                                                    ",
"                                                                                                    ",
"                                                                                                    ",
"                                                                                                    ",
"                                                                                                    ",
"                                                                                                    ",
"                                                                                                    ",
"                                                     ==                                             ",
"                                                    ===                                             ",
"                                                    ===                                             ",
"                                                    ===                                             ",
"                                                   ===                                              ",
"                                                 O====                                              ",
"                                        XX       O====                                              ",
"                                       XooX $$$    ===@@    ...XXX                                  ",
"                                       XooX $$$$ O====@ XXXooooXXX                                  ",
"                                   ooooooXX.$$$#$$#===  Xo*oooooXX                                  ",
"                                   oooooOO%%%%@%%%%%&&&XooooooXoo.                                  ",
"                                 XXoooo##*%%%o&&&%&&&&&$+o##XoooXX                                  ",
"                                 XXXooX###@&&&&&&&&&&&&%%%%%*oooXX                                  ",
"                                ooooooXX#*=&&&&&&&&&X&%%%%%%o*oo.                                   ",
"                                ooooooooO===&&&&&&&&===%%%%%o**XXooo                                ",
"                                oooooooXO=====&&&&&====%Xo%==ooX*ooo                                ",
"                                X*oXooooo======&oo=====o=====ooX**oo                                ",
"                                XooXoooooo=====o*===========oooo***X                                ",
"                                XXXXX==ooXo=====X===========*Xooo##X                                ",
"                                  %%%============================X#.  O                             ",
"                                $%%%%============================.== OO                             ",
"                              $$$%&&&==========================&&&%=++                              ",
"                            @ $$$&&&&&=========================&&&%%$+                              ",
"                     ==   =======@&&&&========================%&&&%$$                               ",
"                    ============= &&&&=====================XXX&&&&&$$+                              ",
"                    ============= &&&& ===================o  &&&&&%%$++@                            ",
"                       ====  $+# #&&&&  ===================o  &&&&&%$@@@+                           ",
"                            @$$###%&& XXXX==================   &&&&&%=@@+                           ",
"                            @$$$##&%%XXXX====================XX&&&&&====                            ",
"                           @@$$#$ &&$X=*X=====================o%&&&=======                          ",
"                           @@  $$%&&&==================*======%&&&&$=======                         ",
"                            OO#$$%%&&&=======o================%%&&&$$$=======                       ",
"                            +##$$%%&&=======================*oXXoX$$$$  =======                     ",
"                            +##@##%%%========================oooX#o$$$      ====                    ",
"                            + +@@=%%%==============X==========oo##X#@@@      ===                    ",
"                             ++@+=%%%===o==========XX==========oo###O O                             ",
"                            O++++=%%%%%o========== XXX====o====oooXOO+O                             ",
"                            OO ==o%%%oo*====o===X   o======o===oXX  ++                              ",
"                                 .XXoooo===XXXo&   X=======oo===XX                                  ",
"                                 XXXooo===X$%X&&&   =&&====*#o==oX                                  ",
"                                 XXX.oo==o$%%%&&&&%%&&&&=%%%#oooo                                   ",
"                                 XXX.oo**o$%%%&&&&&&&&&&%%%%XXooo                                   ",
"                                    XXooo.$$$$&&&&&%%&&&=%%%oXXX                                    ",
"                                    XXXoX.++ +%&&&&%%%%=== OXX                                      ",
"                                    XXX..  O+===&&&%%%%O@=O@O                                       ",
"                                            +===# $$$$#@@=@@O                                       ",
"                                            +===  @$$$ O                                            ",
"                                             ===@@ +$# O                                            ",
"                                             ===@@++###OO                                           ",
"                                             === ++    O                                            ",
"                                             ===      OO                                            ",
"                                            ====                                                    ",
"                                            ===                                                     ",
"                                            ===                                                     ",
"                                            ===                                                     ",
"                                            ===                                                     ",
"                                             =                                                      ",
"                                                                                                    ",
"                                                                                                    ",
"                                                                                                    ",
"                                                                                                    ",
"                                                                                                    ",
"                                                                                                    ",
"                                                                                                    ",
"                                                                                                    ",
"                                                                                                    ",
"                                                                                                    ",
"                                                                                                    ",
"                                                                                                    ",
"                                                                                                    ",
"                                                                                                    ",
"                                                                                                    ",
"                                                                                                    ",
"                                                                                                    ",
"                                                                                                    ",
"                                                                                                    "
};
