/* XPM */
static char *out[] = {
/* columns rows colors chars-per-pixel */
"100 100 13 1 ",
"  c None",
". c #D42A41",
"X c #FC5842",
"o c #FCD64B",
"O c #D1B6E3",
"+ c #D4BAE5",
"@ c #D7BFE7",
"# c #DAC4E8",
"$ c #DDC8EA",
"% c #DFCDEC",
"& c #E2D1EE",
"* c #E7F3F3",
"= c white",
/* pixels */
"                                                                                                    ",
"                                                                                                    ",
"                                                                                                    ",
"                                                                                                    ",
"                                                                                                    ",
"                                                                                                    ",
"                                                                                                    ",
"                                                                                                    ",
"                                                                                                    ",
"                                                                                                    ",
"                                                                                                    ",
"                                                                                                    ",
"                                                                                                    ",
"                                                                                                    ",
"                                                                                                    ",
"                                                                                                    ",
"                                                                                                    ",
"                                                                                                    ",
"                                                                                                    ",
"                                                                                                    ",
"                                                                                                    ",
"                                                                                                    ",
"                                                                                                    ",
"                                                     ==                                             ",
"                                                    ===                                             ",
"                                                    ===                                             ",
"                                                    ===                                             ",
"                                                    ===                                             ",
"                                       XX        OO===                                              ",
"                                      XooX       O====                                              ",
"                                      XooX  $$     ===@@ ...XXX.XXX                                 ",
"                                     .XooX. $      @=  @ .XoXXXoXXX                                 ",
"                                  XXXXXXoo.  ++$%$%%$&&&..oooXoooXX                                 ",
"                                  XXXXXo**%%O+ $%%%%&&&&XoooXo**oo.                                 ",
"                                XXXXXXXOO@%@@*&&&&&&&&&&$+o##XXoooX                                 ",
"                                XX.XX.###@&&&*&&&&&&&%&%%%o%%o*oooX                                 ",
"                              XXX.oooXX#oo&&&&&&&&&&&===%%%%%oo*ooX                                 ",
"                              XXXXoooXoO==&&&&&&&&&&====%oo%oooo*X.XXX                              ",
"                              XXXoooo*oO======&$   =====oooooooooXoXXX                              ",
"                              .oXooooooo======*oooo=====ooo===oooXooXX                              ",
"                              .XoXX*ooooX=====Xo**=====o======*XoXooo.                              ",
"                              ....XoooooXo=====o*============ooXXX##X.                              ",
"                                 .XX===oooo=====*===========o&&==o##.                               ",
"                                %%X=======o======================&&&.  O                            ",
"                              $%%%%o=======o==========**=========&&&  +O                            ",
"                           $$ $&&&X===================**=========&&&%%+                             ",
"                           $$$$&&&=============o======o============%%%                              ",
"                     ==   ===$@O&&&==================XoX=====X===%&&&%                              ",
"                   ==========   &&&&===================**=**o    &&&&#$                             ",
"                  =========== # &&&   ===================ooo    &&&&&$$                             ",
"                  ===  ==== +###&&&&    ===================ooo &&&&&%$+ @                           ",
"                            #+@ &&&&   XXoXXo===============**o   &&&&$@@@+                         ",
"                           $###@&&&    XXXoXXXo===============o  &&&&&&#@++                         ",
"                          @$$###&% XXXXXXX=oXX======*=========== &&&&&&#@=                          ",
"                         +@@#  &&& XXoXX====Xo======*oX*========= &&&$$ ===                         ",
"                         ++O  $&&&&=X*X======o=====**ooX**========&&& @======                       ",
"                           O+ $&&&&==X======oo=====Xoo=oooo=X=====&&&#$#=======                     ",
"                            #+$%%&&&========o======Xo===X*===oo===X.#$$#    ====                    ",
"                           +####%========o=========*==========*oooo.oO$@     ====                   ",
"                           +++@o%%======o==========**==========ooo#X# @@       ===                  ",
"                            +@@@%=====o*==========oooX====o====oo#####O         ==                  ",
"                            +++==%===ooo=========  oXo=====o===XooXX OOO                            ",
"                           O  ++%%%=oooo===o====    XX=====o*===ooX   O+                            ",
"                           OO ==%%XXXo*===oo=====    o======oo===.X   ++                            ",
"                               XXoXXXX====XX====    X=======X#===XX                                 ",
"                               XXXoXXX===...===&&    o&=====##o==XX                                 ",
"                               XXX..XXooXX$%$ &&&&   &&&%o==.#.XXX                                  ",
"                                   .oXooX $%%$&&&$% &&&&&=X%XoXXX                                   ",
"                                   XXoXX.+ $$ &&&&&%%&&&&=%%%XXXX                                   ",
"                                   XXXoX.++O+ &&&&&%%%&&&=  O                                       ",
"                                   XXX..    +%%&&&&$%%%@=@ @O                                       ",
"                                            +===&&@$$##@@@@@@                                       ",
"                                            +===  @$$$#                                             ",
"                                             ===@@ $$$#OO                                           ",
"                                            #===@@+++##OO                                           ",
"                                            ==== ++    OO                                           ",
"                                            ===         O                                           ",
"                                            ===                                                     ",
"                                            ===                                                     ",
"                                            ===                                                     ",
"                                            ===                                                     ",
"                                            ===                                                     ",
"                                            ===                                                     ",
"                                             =                                                      ",
"                                                                                                    ",
"                                                                                                    ",
"                                                                                                    ",
"                                                                                                    ",
"                                                                                                    ",
"                                                                                                    ",
"                                                                                                    ",
"                                                                                                    ",
"                                                                                                    ",
"                                                                                                    ",
"                                                                                                    ",
"                                                                                                    ",
"                                                                                                    ",
"                                                                                                    ",
"                                                                                                    ",
"                                                                                                    "
};
