/* XPM */
static char *out[] = {
/* columns rows colors chars-per-pixel */
"100 100 13 1 ",
"  c None",
". c #D42A41",
"X c #FC5842",
"o c #FCD64B",
"O c #CEB1E2",
"+ c #D1B6E3",
"@ c #D4BAE5",
"# c #D7BFE7",
"$ c #DAC4E8",
"% c #DDC8EA",
"& c #DFCDEC",
"* c #E7F3F3",
"= c white",
/* pixels */
"                                                                                                    ",
"                                                                                                    ",
"                                                                                                    ",
"                                                                                                    ",
"                                                                                                    ",
"                                                                                                    ",
"                                                                                                    ",
"                                                                                                    ",
"                                                                                                    ",
"                                                                                                    ",
"                                                                                                    ",
"                                                                                                    ",
"                                                                                                    ",
"                                                                                                    ",
"                                                                                                    ",
"                                                                                                    ",
"                                                                                                    ",
"                                                                                                    ",
"                                                                                                    ",
"                                                                                                    ",
"                                                                                                    ",
"                                                                                                    ",
"                                                                                                    ",
"                                                     ==                                             ",
"                                                    ===                                             ",
"                                                    ===                                             ",
"                                                    ===                                             ",
"                                                    ===                                             ",
"                                       XX        OO===      XX                                      ",
"                                      XoXX $$    OO =      XooX.XXX                                 ",
"                                      oooX $$$    @@  @@   XooXoXXX                                 ",
"                                  XXXXXXX.  $   $ ##   @  .XooXXoXX                                 ",
"                                  XXXXXOO%%%o++%%%%%$+&&..XXXXooXo.                                 ",
"                                  XXXXXOOO%OO+&&&%%&&%%&XoooX..XXXX                                 ",
"                                XX.X..#OO@@@@*&&&&&&& %%$+*##.XXXXX                                 ",
"                             XXX.XXX..##o@&&X&&#&&&&+%%%O%*%%oooXXX                                 ",
"                             XXXooooXo#O==&==&&&&&&&X===%%Xo%oooo..                                 ",
"                             XXoXooo*ooO======&X  %o====o%Xoooooo..XXX                              ",
"                             .oXoooooooo=====oooo o=====ooo==o*oooXXXX                              ",
"                             .XXoX*ooXoX======o**oo=====oo====o*XoooXX                              ",
"                             ...XXoooooXo=====o**X=====X======ooXXooo.                              ",
"                                .XXXoooXoo=====**============ooooXX##.                              ",
"                                .XX====ooo*=====*======*====Xo&&==o##                               ",
"                               %%.=======ooo===**======**==========&&                               ",
"                               %%%.=======**o=Xoo=====o***========&&&  +O                           ",
"                          $$ @&&% .=========oooo======oo*==========&&=++O                           ",
"                          $$$@&&$$============**=====oXoXX========%=$&%                             ",
"                     ==  @$$$@@@&&&=============*====XXo***==oX==%%$&&%                             ",
"                  =========O    &&  ============= ==*==o*****o     %%& $                            ",
"                 =========== # &&&    ===========  o=====oooo     & %#$$                            ",
"                 ====  ====+ ##&&&      ========  o========X     &&&%%@++                           ",
"                           ++# &&     XXXXXXX==o==o=========oo    &&%%%@+@+                         ",
"                           # @@%&&    XXXXXo***====o==========o     &%&#@@++                        ",
"                          $###O%%%    XXXoooXXX=====*o===========  &&&&& @                          ",
"                         @$$###%% XXXXXX=XoXXo======**oX========== &&&&&@@=                         ",
"                         @@   +&$$XooXX===XXo*=====***oX**======== $&% $ ====                       ",
"                          O +$&&&$$X*X=====Xo*=====***ooX***o=====%&&&##  =====                     ",
"                          OO+$$%&$X=======Xoo======oXoo=oooo=Xo===%oo##$#   ====                    ",
"                          +#+X#%&&=======o=oo======Xoo===Xo===**oXo.oo$$     =====                  ",
"                          +####%=%======o===o======X*==========*ooo#XO++@      ====                 ",
"                             @@%%=====oo========== o**====o====o*o##X# @@       ===                 ",
"                            ++===o===o*o=========  ooo=====o===XooXX##OO                            ",
"                           O+ ==%===oooo===o====    oX=====oo===oXXX OO+                            ",
"                          OO ==%%%=oooo===oo=====   XXo=====o*===XXX  ++                            ",
"                             ==%%XXXo*====oX====     o*=====oo===.XX                                ",
"                               XXoXXXo===oX.===     Xo======X#o===XX                                ",
"                               XXXXXX.==X...  &      o===o===#XX==                                  ",
"                               XXX.oXXooX.$%  &&     o&%%=o==X.XXX                                  ",
"                                   XooXX $%%% & $$   &&&&=.X%XXXXX                                  ",
"                                   XXoX. ++$ &&&$&%%%%&&&= %%                                       ",
"                                  XXX..   OO+&&&&&&%%%%=&@=OO                                       ",
"                                            +%%%&&&$%%%@@@= @                                       ",
"                                            +%%%&&@$$##@ @ @@                                       ",
"                                             +=     $$O O                                           ",
"                                            #===@@++$$#OO                                           ",
"                                            ====@@+++##OO                                           ",
"                                            ===  OO    OO                                           ",
"                                            ===                                                     ",
"                                            ===                                                     ",
"                                            ===                                                     ",
"                                            ===                                                     ",
"                                            ===                                                     ",
"                                            ===                                                     ",
"                                            ===                                                     ",
"                                             =                                                      ",
"                                                                                                    ",
"                                                                                                    ",
"                                                                                                    ",
"                                                                                                    ",
"                                                                                                    ",
"                                                                                                    ",
"                                                                                                    ",
"                                                                                                    ",
"                                                                                                    ",
"                                                                                                    ",
"                                                                                                    ",
"                                                                                                    ",
"                                                                                                    ",
"                                                                                                    ",
"                                                                                                    "
};
