/* XPM */
static char *out[] = {
/* columns rows colors chars-per-pixel */
"100 100 13 1 ",
"  c None",
". c #D42A41",
"X c #FC5842",
"o c #FCD64B",
"O c #C39FDB",
"+ c #C6A4DD",
"@ c #C9A8DE",
"# c #CBADE0",
"$ c #CEB1E2",
"% c #D1B6E3",
"& c #D4BAE5",
"* c #E7F3F3",
"= c white",
/* pixels */
"                                                                                                    ",
"                                                                                                    ",
"                                                                                                    ",
"                                                                                                    ",
"                                                                                                    ",
"                                                                                                    ",
"                                                                                                    ",
"                                                                                                    ",
"                                                                                                    ",
"                                                                                                    ",
"                                                                                                    ",
"                                                                                                    ",
"                                                                                                    ",
"                                                                                                    ",
"                                                                                                    ",
"                                                                                                    ",
"                                                                                                    ",
"                                                                                                    ",
"                                                                                                    ",
"                                                                                                    ",
"                                                                                                    ",
"                                                                                                    ",
"                                                      ==                                            ",
"                                                     ===                                            ",
"                                                    ===                                             ",
"                                                    ===                                             ",
"                                     XX          O   =                                              ",
"                                    XXXX        OOO           XX                                    ",
"                                    XooX         O @   @     XXXXXXX                                ",
"                                    .XX.XXX$$     @@   @@  XXXoXooXX                                ",
"                                 XoXXXoXoXo$X  ##O%##   &.XXXXXX..XXX                               ",
"                                 XoXoXXX%%oo++@%%%%$#+ &&.XooX..XoXXX                               ",
"                                 ooo.XXO%@@O+&&&&%$&& %%&.Xoo#.XXooXX                               ",
"                               XXX..X##O@o@@X&#&%%&&&+ ==++oo##ooXXX.                               ",
"                            XXXXXXXX.#oo*&&=oo$ &&&&++===++XoooooXXX.                               ",
"                            XooXXXXXXX==*&===&&$&&%%o====%%o%%ooooXX.X                              ",
"                            ooXXXXXoXX=======&o   % =====o%oo%ooXoo.XoXX                            ",
"                            XX..XoooXoO=====**oX   X====XXXoo=Xoooo.XooX                            ",
"                              .X.oooooOO====**oo   =====Xo*====ooooXXooo                            ",
"                               ..oo*ooo*=====oXX   =====X*=====o*ooXX.XX                            ",
"                               X.X**ooooX===XXXoX   ===ooo====ooo*X.XXX                             ",
"                               .XX==Xooo*o=*ooX*X   X=*oooo==XXX*&X.=X#                             ",
"                            %  .X=====o***ooXXXoo   oo**oXoXXXX=======#                             ",
"                            %%  =======**oo*ooXo     oo*oXoXoo========X&                            ",
"                            %%  ==X===o*ooo***X      XoXXo*o**=======X&&                            ",
"                           &$ =========Xo*X***o      oo***Xo***=== .==   OO                         ",
"                       $$  &&===========**Xo*o        oo*oXXoooo=  ==== +%O                         ",
"                       $$  @@&===========oXXX          oXXoXXX     %==$=%%                          ",
"                  ===   $$O@@&&     ====XXXX                         $%@&                           ",
"                ====== @@OOOO&        =                              O%&&                           ",
"               ======  @OO   &&                         XX            #% $                          ",
"              ====         # &                         o*oX          &%%$$                          ",
"              ==          +##&&        XXXXX         ooXX*X  =      &&$$%$++                        ",
"                         ++@ &         Xo*ooX        oo*oXoX=====     +%%$+@@                       ",
"                         # @@&&    XXXXX***ooo      oo***Xo=======   OO&%%&@@+                      ",
"                       $$###O%     XXoXoo***XoX     X**oXXX*======== O&&&&&                         ",
"                       $@####%%...XXXXXoXXXoX*o     Xooo*oXoo========  &&$@@                        ",
"                       @    &X$...XXXXXoXo*o***X    Xoo***X****======$@%&$$    =                    ",
"                         O X&&$$o.X=XXooX***o*oX    XX***ooX***ooo====$&&@    ====                  ",
"                        OO$$%&$$..===ooooo***X=X   oXXo*ooooooooXXX%===X###    ====                 ",
"                         #$$%&&=.o====ooooo*o===   XXXXXooooX***XXXXX==## $     =====               ",
"                        ##+##.===o===ooooooX=====  Xooo*Xo**X***oXoXo.XO+$$       ====              ",
"                        +++@O%==%===oooooooX====   XXX***X=*Xoo=oXoXX#  O@@        ===              ",
"                          +@@%%====oooo==X**=====     ***===XX===ooX####            ==              ",
"                          ++======ooXo====**====     oo*====oo===o.XXX #OO                          ",
"                        OO  =====%Xooo===o**===       ooX===o*o===.XX  OO+                          ",
"                        OO ==%===XXXo====oo=====      ..XX===oo===XXX   ++                          ",
"                           ==%%=XXXX.===X. ====        Xoo===.#X===XX                               ",
"                                  XXX==..  ===        .X=oX===##====                                ",
"                                  XXXXX    ==          ===X===XXX===                                ",
"                                  XoXX   %$===         =======  XX                                  ",
"                                  ooo.  +%%==&& $$  #   &&= ==%                                     ",
"                                  XX     OO+@&& $$%%## &&&= O%%                                     ",
"                                           +$&&&  %%%%%@&&=  @                                      ",
"                                           +$$&&  @%%%%%@@@ @@                                      ",
"                                           ++%%#&&@$$$%%O                                           ",
"                                             %% &&O $$ #OO                                          ",
"                                            ##  @@++$$###O                                          ",
"                                            #=  +++O+ ###O                                          ",
"                                            ===         OO                                          ",
"                                            ===                                                     ",
"                                            ===                                                     ",
"                                            ===                                                     ",
"                                           ====                                                     ",
"                                           ===                                                      ",
"                                           ===                                                      ",
"                                           ===                                                      ",
"                                            =                                                       ",
"                                                                                                    ",
"                                                                                                    ",
"                                                                                                    ",
"                                                                                                    ",
"                                                                                                    ",
"                                                                                                    ",
"                                                                                                    ",
"                                                                                                    ",
"                                                                                                    ",
"                                                                                                    ",
"                                                                                                    ",
"                                                                                                    "
};
