/* XPM */
static char *out[] = {
/* columns rows colors chars-per-pixel */
"100 100 13 1 ",
"  c None",
". c #D42A41",
"X c #FC5842",
"o c #FCD64B",
"O c #BD96D7",
"+ c #C09BD9",
"@ c #C39FDB",
"# c #C6A4DD",
"$ c #C9A8DE",
"% c #CBADE0",
"& c #CEB1E2",
"* c #E7F3F3",
"= c white",
/* pixels */
"                                                                                                    ",
"                                                                                                    ",
"                                                                                                    ",
"                                                                                                    ",
"                                                                                                    ",
"                                                                                                    ",
"                                                                                                    ",
"                                                                                                    ",
"                                                                                                    ",
"                                                                                                    ",
"                                                                                                    ",
"                                                                                                    ",
"                                                                                                    ",
"                                                                                                    ",
"                                                                                                    ",
"                                                                                                    ",
"                                                                                                    ",
"                                                                                                    ",
"                                                                                                    ",
"                                                                                                    ",
"                                                      =                                             ",
"                                                     ===                                            ",
"                                                      ==                                            ",
"                                                     ===                                            ",
"                                                    ===                                             ",
"                                    XX               =                                              ",
"                                   XXXX          O             XX                                   ",
"                                   XooXX XX$    OOO           XXXXoXX                               ",
"                                   .oo.XXo$$$    O     @    XXXooXXoX                               ",
"                                XXXXoXXXXoo$    $$#$   @@  XooXoXXXXo                               ",
"                                XXXoXXX.%%oX. #%$$%%## && XXooXXXXoXX                               ",
"                                ooooXXXo%%oXOO#%%%%%##%%&..XXXXX.XooX                               ",
"                             XXXXXX..XoX@.@OO&&&&%%&&+%%==oXX#.XXXXXXX                              ",
"                             XXXXXXo##OX@&=O&&#&$&& &+o===%XX#%ooXXXXX                              ",
"                           XXXXXXXoX##==o&==&&&  && ++===%%Xo%%ooXXXXo                              ",
"                           Xo.oXXXXXX=======&&$    .X====++*oooooXXo.XoXX                           ",
"                           oo.XXXXXooo======*o      =====XoXXoooXXXXXoXoX                           ",
"                           XX...XXXoooX====ooXX    .====o*Xo*=ooo.XXXoXoo                           ",
"                             .o.XXooooOX==XooXoX    .===X*X====ooXoXXX.XX                           ",
"                              X..oooooO*oXoXX**X     .=ooo======oXoo.X.                             ",
"                              Xo.XoXoo***Xo*oXoo     .X**oX==*==XXoX.X                              ",
"                              Xo..==X***oooXXXo.     Xoo***ooXXoX.&.==X                             ",
"                               XX====o*oooo*oX.       Xoo*ooXoXX=======#                            ",
"                           %    ======Xooo***X        X*oXXooo*========#                            ",
"                           %=   ==.==o**X***oo        oo***XX***=====  &&                           ",
"                          $===========**Xo*oo          oo*oXXo**o    =  &                           ",
"                       $ &&===========ooXXXo            oXX.X X     ===  OO                         ",
"                      $$ && &=========XXX X                         %=== %%                         ",
"                  =    $   @&&&&                                     ==$=&%                         ",
"                ====   $$ O@O                                         $%&&                          ",
"               ====   @@OOOO&                                          %%=                          ",
"             =====    @@OO &&                           oXX            #% $$                        ",
"            ====          # &                          oo*oX          &%% $$                        ",
"            ===         ++##&&       XXXXXX           oooXXX    =     &&$%++                        ",
"                        ++ @&&       XXo*oXo          ooo*oXoXX===     +@%%+@@                      ",
"                        # @%&#    ...oX***oXo        ooo***Xoo======  OO&%% @@                      ",
"                      $$###%%%    XXXooo***XoX       XX*oXXoXXX====== O&&&&&@                       ",
"                      $@###O%   ..Xo*Xooo*oX*o       XXoo*oXoooo=====   &&$&@                       ",
"                      @    &X.$...XXXXXXXXX***X      Xoo***XX***oo=====@%%$$     =                  ",
"                          X&&$$...XXXoXXo*oo*oX      oX***ooX***oXXo====&&      ===                 ",
"                        O$$Xo$$...XXXoXXo**oXX.     XXXo*ooooooo*oXX%====&##     ====               ",
"                         $$%&..XXX=XXooo***oXX      .XXXXooooXo***Xoo%.==#$#      ====              ",
"                       ##+#%&&=oX===ooooooXoX=X     .XoXXXoooo***ooooX.XOO$$       ====             ",
"                       ##+##%======ooooooXXX===     ..Xo**oX*Xo*oooXXXXXOO@@        ====            ",
"                          @@%=====Xoooo=oooX====       o**o*oXXX=oooX## # @@         ===            ",
"                         +@@=====oXXX.===ooX===        o**o=ooo===X.X####O                          ",
"                         ++======XoXX====oo=====       .oo===oX===X.Xo  OO                          ",
"                        OO==%===XXXXX===XXX====       ..XX===.XX===XoX   ++                         ",
"                          ==%===XXX.===XX..===         XooX===.#====XX   ++                         ",
"                             ==  XXX==X.X  ==         .Xo=X===##X===                                ",
"                                 oXXXXX    ===         X=======XX===                                ",
"                                 XooXX  $%===&  $      X%== ===  X==                                ",
"                                 XXoX   $%===&&$$$  #   &==  =%                                     ",
"                                          ==@$#$$$ ### &&&== %%                                     ",
"                                            $&&$  %%%%%#@&&= @                                      ",
"                                            $&&&   %%%%%@ &= @@                                     ",
"                                           ++%&&&& $$$%%O                                           ",
"                                            +%% &&O $ ##OO                                          ",
"                                           ##   &&++$$###O                                          ",
"                                           ##    +O + ###O                                          ",
"                                                        OO                                          ",
"                                             =                                                      ",
"                                            ===                                                     ",
"                                           ====                                                     ",
"                                           ===                                                      ",
"                                           ===                                                      ",
"                                           ===                                                      ",
"                                           ===                                                      ",
"                                           ===                                                      ",
"                                            =                                                       ",
"                                                                                                    ",
"                                                                                                    ",
"                                                                                                    ",
"                                                                                                    ",
"                                                                                                    ",
"                                                                                                    ",
"                                                                                                    ",
"                                                                                                    ",
"                                                                                                    ",
"                                                                                                    "
};
