/* XPM */
static char *out[] = {
/* columns rows colors chars-per-pixel */
"100 100 13 1 ",
"  c None",
". c #D42A41",
"X c #FC5842",
"o c #FCD64B",
"O c #873AD5",
"+ c #B589D2",
"@ c #B88DD4",
"# c #BA92D6",
"$ c #BD96D7",
"% c #C09BD9",
"& c #C39FDB",
"* c #C6A4DD",
"= c white",
/* pixels */
"                                                                                                    ",
"                                                                                                    ",
"                                                                                                    ",
"                                                                                                    ",
"                                                                                                    ",
"                                                                                                    ",
"                                                                                                    ",
"                                                                                                    ",
"                                                                                                    ",
"                                                                                                    ",
"                                                                                                    ",
"                                                                                                    ",
"                                                                                                    ",
"                                                                                                    ",
"                                                                                                    ",
"                                                                                                    ",
"                                                                                                    ",
"                                                                                                    ",
"                                                                                                    ",
"                                                                                                    ",
"                                                      =                                             ",
"                                                     ===                                            ",
"                                                      ==                                            ",
"                                                     ===                                            ",
"                                   ..                 =         ..                                  ",
"                                  ....                         ....                                 ",
"                                  .XX..                        .XXXX.                               ",
"                               ....XXX.XXX%%                 XXOXXXXX                               ",
"                               ...XXXXXXXX%%       &       .XXXX.XXoXX                              ",
"                               X.XXXXXoXooX    &&&&&&   ** ..XXX..XooX                              ",
"                             ...X...XoX&&XX  *$*&&&&%   **.Xo...XXXXoo                              ",
"                             .XXoXXXoXo&&ooX**$**&&%**&&===...XoXXXXXX.                             ",
"                             XXXXoXXXXoo*ooX    ******@====...XXXXXXoX.                             ",
"                         ..X.XXXooXX.==.**=X**###&&& Xo===X.Xo$$Xo.XooX                             ",
"                         .XXXoXXXXX$====X===*   #++ .X===o&&..&&XX.XXXXX..                          ",
"                         XXXXXXXXXX$=======..%%      Xo=..&&.X&&XXo.XXXXX.                          ",
"                         ..XXXXXoXXXoX====o.X%%     .......o.oooXXX.XXXXXX                          ",
"                           OXX.ooXXXX..=X$$oo..      . .XoXXX=ooo.XXoXXO..                          ",
"                             o.Xo.XXXoX.X$$.oX         .oooX===oX.XXoo.O.                           ",
"                             X....XXoooXXX..X..        XXooo.===...XoX.X                            ",
"                             XXoX..XooXXXXoX..        ..XXoX.X===.....oX                            ",
"                              XX..=..X.XXooo.          ..X..X..==XX.==ooX                           ",
"                               ..===XXX.oooXX           XXooo.Xooo*=====                            ",
"                               .===Xooo.XoXX             XXoX.Xooo=======                           ",
"                          &&=  ===.Xooo...X               X....XXXX== ===                           ",
"                          ======= ..XXXX..                    . .        **                         ",
"                         =========  ...X.                             =  **                         ",
"                        *========                                    ===                            ",
"                     %% *%%  **                                       === &&                        ",
"                     %%    ****                                        ===&&                        ",
"               =     %%    *%                                           %%**                        ",
"             ====    ##    *                                            &&**                        ",
"            ====     ##   **                                            && %%                       ",
"            ===                                          X.X.           $&&%%                       ",
"            ==           $**          .                 XXoo.          **&&                         ",
"                         $**       ....X..              .X..X. X...    **%&&@#                      ",
"                         #**$   ...X.XoXXoX             XXoX.X.....XXXX   %% #                      ",
"                       $$#&&$   .XoX.oooX.oX           XXooo.X.X.Xoo=oX  **&*                       ",
"                     %%$$$$&&   ....XXooo.Xo.          ..oX....XXXX====  **&**                      ",
"                     %#$$$$&.. ..X..X...X.oX.          ..XXoX..oooXX====.**%%#                      ",
"                     #   X*o%%........XoXooo.          .XXooo..oooXXX====%&%%       =               ",
"                         **o%%o..X.X..oooXoX..        X..oooXXXXXXX..X===%**       ===              ",
"                          XX%%XX..XX.XXoo...X.       XX..XoXXXXXXXXXX&&===**$      ====             ",
"                      $$  &**.XXX.XXXXXXX.oX.        .o....XXXXXXXoo..&X===%%       ====            ",
"                      $$@$&*o=&=X.X.XXXX..oo.        .X..XX..XXX.oooXXXoX==%%        ===            ",
"                       @@@ X=====XXoXXX..XoX.        ...XooXoooX.XXoX.oX   ##         ==            ",
"                          &&=====XXXXo=XXX..           .XooX.oXX...XXXXX $                          ",
"                          &&====oXXX.===ooX =           XooX..XXX==oXXX  $                          ",
"                          ======XoXX===XooX===          XooX=.oo====XX.                             ",
"                          =====&XXXo===XXX ==           .XX===XoX===X..                             ",
"                           &==XXoXX===X.   ===          .oo====$$===X                               ",
"                           &=   ..X==X    ===           X=oX===$$.===                               ",
"                                XXXXX  %% ===           ===X==== .===                               ",
"                                .XX.   %&&===*  %   $   ==== ===  ===                               ",
"                                ..X.    &====  %%% $$$  *===  &&   ==                               ",
"                                         ===#*% % &&&  &***=  &&                                    ",
"                                            ***%   &&&&&&**  ##                                     ",
"                                             ***   %&%&&& *  ##                                     ",
"                                            &&* **  %%$                                             ",
"                                           $&&&***  %%%                                             ",
"                                          $$$   *    % $$                                           ",
"                                           $                                                        ",
"                                                                                                    ",
"                                            =                                                       ",
"                                           ===                                                      ",
"                                           ===                                                      ",
"                                           ===                                                      ",
"                                           ===                                                      ",
"                                           ===                                                      ",
"                                           ===                                                      ",
"                                            =                                                       ",
"                                                                                                    ",
"                                                                                                    ",
"                                                                                                    ",
"                                                                                                    ",
"                                                                                                    ",
"                                                                                                    ",
"                                                                                                    ",
"                                                                                                    ",
"                                                                                                    "
};
