/* XPM */
static char *out[] = {
/* columns rows colors chars-per-pixel */
"100 100 12 1 ",
"  c None",
". c #D42A41",
"X c #FC5842",
"o c #FCD64B",
"O c #873AD5",
"+ c #B284D1",
"@ c #B589D2",
"# c #B88DD4",
"$ c #BA92D6",
"% c #BD96D7",
"& c #C09BD9",
"* c white",
/* pixels */
"                                                                                                    ",
"                                                                                                    ",
"                                                                                                    ",
"                                                                                                    ",
"                                                                                                    ",
"                                                                                                    ",
"                                                                                                    ",
"                                                                                                    ",
"                                                                                                    ",
"                                                                                                    ",
"                                                                                                    ",
"                                                                                                    ",
"                                                                                                    ",
"                                                                                                    ",
"                                                                                                    ",
"                                                                                                    ",
"                                                                                                    ",
"                                                                                                    ",
"                                                                                                    ",
"                                                                                                    ",
"                                                      *                                             ",
"                                                     ***                                            ",
"                                                      **                                            ",
"                                   ..                ***                                            ",
"                                  ....                *         ..                                  ",
"                                  .XX.  X                      .XX....                              ",
"                                  O..OXXoX                    XXXX....                              ",
"                              .......XXooo                   XXXX...X..                             ",
"                              ...X.XXoX.o.$                 .XooX O.XX.                             ",
"                              XX..OXooX..X$     $  %    &&  X....XXXXXX                             ",
"                             ....OXoooX%%oXX  %%$$%%%#  &&...X.XoXXXXX..                            ",
"                            XXoXXXXXXXo%%oo &&&&$   ###X***....XXXXXooX.                            ",
"                        ..X.XXooXXXXXXX.ooo.&&&&  %  #X****...XXXXo.oXXX                            ",
"                        .XX.ooooXXXXX**.XoX.    &&%%  X***X.X...XXX.XXXX ..                         ",
"                        XXX.XXXXXXX.****.*X&&  @@@%   ..*%.%o.%%XXXXXXXXXXX                         ",
"                        ..O.XXXoXXXX*******&&.  @     .....%X.%%oXXXoXXXXX.                         ",
"                          O ..ooXXXX******ooo.        ...XoXXXXooo.XooXXO..                         ",
"                            .XXX.XXooo.*oX.oXX         X.oooXXXXoX..ooo.O                           ",
"                            XXXX..oooXXXX#.XX          XXXooo.*X..X..XX..                           ",
"                            XXoX..XoXXXXXoX..         ..oXXoX***X......XX                           ",
"                            XXooX...X.XXooo..          X..X..X**XX.XOXooXX                          ",
"                             XX.XXXXXX.oooXX            ..oooXX..XooX*ooXX                          ",
"                              ..X*Xooo.XoXX              XXooo.o.ooo****X                           ",
"                               .***ooo...X                XXoX..XXooX****                           ",
"                            *  ***.XXXX..                  X..  .X. X ****                          ",
"                         %*******  ...X.                               ***                          ",
"                         *******                                                                    ",
"                        *******                                        *                            ",
"                        **                                            ***                           ",
"                    $$                                                 ***                          ",
"                          &&$                                           **                          ",
"             **           &&                                            $$ &&                       ",
"            ****         &&                                              % &&                       ",
"            ***          &&                               X..            %  $                       ",
"            **                                           XXoX.              $                       ",
"                         &&          .                  XXooo.          &&                          ",
"                         &&&      ...XX..               .oXX..  .  . .  && %%                       ",
"                          &&      XXoXoXoX              .XXXXXX.....XXXX   %%@@                     ",
"                          %#    XX.oooXX.oX             XXXoo...XXXXoo*oX &&%%                      ",
"                    $$@ #..OO .....Xooo.oXo.            ..oX...oooooX***X &&%%                      ",
"                    $$  ..XX.OX.X.....X.ooX.            ..XXoX..ooooXX***.&&                        ",
"                        ..XX$.o...X.XoXXooo.            .XXooo..XXXXX.***.%%                        ",
"                         ..o$$X.X.X.oooXXoX.           X..oooXXX..XX..X****&         **             ",
"                          .X$$X..XXXXooo...X          ....XoXXXXXXXXoX%%****        ****            ",
"                         %&&.oXX.XXXXXoX.oX            X....XXXXXXXooo%%X***         ***            ",
"                      ## %&&*XoX.X.XXX...oo.           X..XX..XXX.oooXXoXX**$$                      ",
"                          X****XXXoXXX..XoX.             XooX.ooo.XoXXXXX   @                       ",
"                          %*****XXXXo*XXX..             .XooX.XXo...XXX                             ",
"                          %%****XXX.***ooX               XooX...XX*oXX.                             ",
"                          *****oooXX***XX.               XooX*XXo***oX.                             ",
"                           ***%XooX***XXX  *             .XX***Xo***XX.                             ",
"                           *** XXoX**     ***            .oo***...***.                              ",
"                          ***  X..XX.     ***            X*o****..***                               ",
"                          **   .XX..    + ***            ***X***  .**                               ",
"                               ..X.     +****            %** ***                                    ",
"                                         ***            &&**  *%                                    ",
"                                         *** &$   %%% %%&&&&   %                                    ",
"                                         ** &&&$   %%%%%%@&&  @                                     ",
"                                             &&& &  % %%  &&                                        ",
"                                            %%& &&&  $                                              ",
"                                             %   &  $$$                                             ",
"                                          ##         $                                              ",
"                                                                                                    ",
"                                                                                                    ",
"                                                                                                    ",
"                                            *                                                       ",
"                                           ***                                                      ",
"                                           ***                                                      ",
"                                           ***                                                      ",
"                                           ***                                                      ",
"                                            *                                                       ",
"                                                                                                    ",
"                                                                                                    ",
"                                                                                                    ",
"                                                                                                    ",
"                                                                                                    ",
"                                                                                                    ",
"                                                                                                    ",
"                                                                                                    ",
"                                                                                                    "
};
