/* XPM */
static char *out[] = {
/* columns rows colors chars-per-pixel */
"100 100 11 1 ",
"  c None",
". c #D42A41",
"X c #FC5842",
"o c #FCD64B",
"O c #873AD5",
"+ c #B284D1",
"@ c #B589D2",
"# c #B88DD4",
"$ c #BA92D6",
"% c #BD96D7",
"& c white",
/* pixels */
"                                                                                                    ",
"                                                                                                    ",
"                                                                                                    ",
"                                                                                                    ",
"                                                                                                    ",
"                                                                                                    ",
"                                                                                                    ",
"                                                                                                    ",
"                                                                                                    ",
"                                                                                                    ",
"                                                                                                    ",
"                                                                                                    ",
"                                                                                                    ",
"                                                                                                    ",
"                                                                                                    ",
"                                                                                                    ",
"                                                                                                    ",
"                                                                                                    ",
"                                                                                                    ",
"                                                                                                    ",
"                                                      &                                             ",
"                                                     &&&                                            ",
"                                                      &&                                            ",
"                                  ..                             ..                                 ",
"                                 ....                           .....                               ",
"                                 .XX..XXX                       .X....                              ",
"                              ....X..XXXXX                    XX.X.XX.                              ",
"                              ...X...XXooX                  .XXXX.O.X..                             ",
"                              X.XXXoXX.oXX#                 OXooX.O.XX.                             ",
"                              .X..XooX.Xoo#             %%..XoXXXXoXXXX                             ",
"                            .X...XXXXXXXooX   %$#      X&&XXXoXoXXXoXXX.                            ",
"                           XXXXoXXXXXo.$ooX.%%%%##    X&&&&..oXoXXXoooX.                            ",
"                        ..XXoXooXXXo.oXXooX %%%   $   X&&&&...XXXXoXXooX                            ",
"                        .XXooXXXXX..X&&.XX..    %%$$  .&&&o.Xo..XXXXXXXX.X..                        ",
"                        XX.XXXXXXXoX&&&&X&.X.     $   .X&...oo.XXXXXooXXXXX.                        ",
"                        ....XXoXXXXX&&&&&&&o.   ++    . ..XXXo.$oXXXXooXXXXX                        ",
"                          O..oo.oXXX&&&&&&.XX           O.ooXXXooo..Xooo.O..                        ",
"                            .XX.XXXooXXX...X.           XXXooX.XoX..X.XXXO                          ",
"                            XXX...oooXXXo@. .           XXXXoX&....Xo.X..                           ",
"                            XXXXo.XoXXXoo@.            ..X.X.&&&oX.XXOOO..                          ",
"                             XXXX...X.oooXX.            ...ooo&&.XXXXO.XX..                         ",
"                              ..XoXXX.XoXXX              XXXooo.Xoooo&.XX..                         ",
"                              ..X&ooo...X.                .XXoX.Xooo&&&&..                          ",
"                               .&&&oooo                     X....XXXX&&&&                           ",
"                            &  &&&XXXX..                        . .   &&&&                          ",
"                         $&&&& &&   . .                                &&&                          ",
"                        &&&&&&                                                                      ",
"                       &&&&&&                                                                       ",
"                       &&&                                              &                           ",
"                    ##                                                 &&&                          ",
"                    ##     ##                                           &&                          ",
"             &             ##                                              %%                       ",
"            &&&                                                          $$%%                       ",
"            &&&          %%                                              $$                         ",
"            &&           %%                                X..              #                       ",
"                         %%         .                     XXoX.         %%                          ",
"                         %%      ....X.                  XXX...  .      %%#                         ",
"                         %%      X.XoXXXX.               .XXoX..X.X...X    ## +                     ",
"                         %%@    XX.oooXooo.              XXooo..X...XooX                            ",
"                    #        ..OoXXXooo..oX             X.oooXX.XXXXXoo&    $$                      ",
"                    #++ ..OO OXXX.XXXoX.oXX             ..XoX...ooooX.&&&.. $$                      ",
"                       ..XXXX.XXo.X....oooX.            ...XXoX..oooXX&&&X$$                        ",
"                       ..XXo#ooXX.X.XoX.ooo.           X..XXooo..XXX.XX&&&&$          &             ",
"                        ..OXoXXooXX.oooXXoX.          ..oX.oooXXX.XXX.X.&&&&%        &&&            ",
"                         XX.XXXXoXXXXooo...            XoX.XoXXXXX.ooo$$.&&&         &&&            ",
"                      @  $%%ooXXXXXXXXoX.X.            XoX...XXXXXoXooXXoX&&&#        &&            ",
"                      @  @%%XooXXoXXXX....X              ...X..XXXoXXoXooX &&#                      ",
"                         X&&&&&XooXXX&..XoX              .XoXXXooXXXoXXXoX                          ",
"                          &&&&&&XXXX&&&ooXX              .ooo.XoXXooXX..                            ",
"                           .&&&ooXXo&&&XXX                oooXXXoo&oXoX.                            ",
"                           &&&XooXo&&&XXX                .XoX&XXo&&&XX..                            ",
"                           &&&XXoXX&&X.    &             .XX&&&...&&&X                              ",
"                          &&&  ...XX.     &&&            Xoo&&&&..&&&                               ",
"                          &&&  X.....     &&&            $&XX&&&  &&&                               ",
"                          &&   .XX..     &&&&            &&& &&&   &&                               ",
"                               ..X.      &&&             &&&  &&$                                   ",
"                                         &&&  #     $ $ %%%%   $$                                   ",
"                                         &&& %##   $$$$$%%%%  +                                     ",
"                                         && %%%@    $ $$$ %%                                        ",
"                                             %%%       $                                            ",
"                                            $$$      #                                              ",
"                                          @@ $      ###                                             ",
"                                                                                                    ",
"                                                                                                    ",
"                                                                                                    ",
"                                                                                                    ",
"                                            &                                                       ",
"                                           &&&                                                      ",
"                                           &&&                                                      ",
"                                           &&&                                                      ",
"                                            &                                                       ",
"                                                                                                    ",
"                                                                                                    ",
"                                                                                                    ",
"                                                                                                    ",
"                                                                                                    ",
"                                                                                                    ",
"                                                                                                    ",
"                                                                                                    ",
"                                                                                                    "
};
