/* XPM */
static char *out[] = {
/* columns rows colors chars-per-pixel */
"100 100 10 1 ",
"  c None",
". c #D42A41",
"X c #FC5842",
"o c #FCD64B",
"O c #873AD5",
"+ c #AF80CF",
"@ c #B284D1",
"# c #B589D2",
"$ c #B88DD4",
"% c white",
/* pixels */
"                                                                                                    ",
"                                                                                                    ",
"                                                                                                    ",
"                                                                                                    ",
"                                                                                                    ",
"                                                                                                    ",
"                                                                                                    ",
"                                                                                                    ",
"                                                                                                    ",
"                                                                                                    ",
"                                                                                                    ",
"                                                                                                    ",
"                                                                                                    ",
"                                                                                                    ",
"                                                                                                    ",
"                                                                                                    ",
"                                                                                                    ",
"                                                                                                    ",
"                                                                                                    ",
"                                                                                                    ",
"                                                                                                    ",
"                                                                                                    ",
"                                  ..                                                                ",
"                                 ....                            ..                                 ",
"                                 .XX.  ..                       .XX...                              ",
"                                 OX.......                     ..XX.XX.                             ",
"                              ..X....X.XX.                    .....O.X..                            ",
"                              ..XX..X.OXXO                  ...XX. O.XX.                            ",
"                              X.XX.XX.OXXO                  .XoXXX.XXXXX                            ",
"                              ....XXXXXXXX             XX%%..XoXoXoXXX..                            ",
"                          ..XXoX.XXXXoXooX            XX%%%%..oXoXXoXXX.                            ",
"                       ..X.XXooXOXXooX.oo.  $ $       X%%%%%XX.XooXooXXXX                           ",
"                       .XXXXoXXoXX.o.X.XX. $$$$$      .%%%%..XoXXooXXX...O..                        ",
"                       XXX..XXoXXXoXX%%Xo.X $ $       .X%%X.XXoXoXXXoooXX.X..                       ",
"                       ....XXooXXoXX%%%%ooXX          . .XoX..oXooXXXXooX.X..                       ",
"                         ...oooXoXX%%%%.ooo.            ..XXoX.#ooooXXoooO..                        ",
"                           .XX.XXXo%%%XoXXX.            Xo..oo.#.XXXoX.XXX                          ",
"                           X.X.XXooo..XXoXX.            X..X.XX...oooo...                           ",
"                           ..XXoXXX.XXXooX..           ..oX..X%XoXXXXXOOO..                         ",
"                           ..XXXXoo...ooo...            X.X.o%%%ooX...X.XX..                        ",
"                            ..OOXXXX..XX.XX              ..oXo%%%..XXOO.XX..                        ",
"                                oXXooX  ..                X.XXX%%XooXXOOO..                         ",
"                                XXXooX.                    ...XX XooXX%%                            ",
"                                %.XX...                      .  ...XX%%%%                           ",
"                               %%%  .                                 %%%%                          ",
"                          %%   %%                                      %%%                          ",
"                        %%%%%                                                                       ",
"                       %%%%%                                                                        ",
"                      %%%%                                                                          ",
"                      %%%                                                                           ",
"                    @                                                                               ",
"                    @                                                                               ",
"                                                                                                    ",
"                                                                                                    ",
"                         $                                  .                                       ",
"                         $                                 X.XX                                     ",
"                         $                                ..ooo                                     ",
"                         $        XX..                     ..oX   .       @                         ",
"                         $$      XXX.XXX.                 XX.XXX.X.....XX                           ",
"                         $$  ..XXXooo.ooo.               ...ooo...XX.XooXX                          ",
"                        ..OO..XooXXooXXooX                XXooX.XooXXXooXX.                         ",
"                       ..X..O..XXXXXoXXX.X                XXo.XXXooXX..X%X..                        ",
"                       ..X..OXXoooooo.Xoo..              .X.X.XXX.XX.XX%%%%#                        ",
"                        ..XX@oXX.XXXX.ooo.X             X....oooXXoXX.XX%%%%                        ",
"                        ...XXXooooXooo.XXXX            ..oXoXooXXooXX.XXX%%%                        ",
"                        ..O.XXXooXXXooX..X              XoXoXoXXXXX..oooX.%%%                       ",
"                        X$$.XXXXXX.XXoXo..              Xo.X.XXoXXXoXooXXX%%%%                      ",
"                        .$$XXXXoooXXXoXo.X                .XX.oXooXoXoXXX. %%%                      ",
"                        ..X..%XXooXXX%XXXX                .oo.XXoXXXXoXX..                          ",
"                           X%%%XXoXX%%%oX.                XooXX..ooooXX.                            ",
"                           %%%oo.XX%%%XXX                OXXXXX.XooX.XX.                            ",
"                           %%%ooXoo%%XXX                 O.XX.%XXoX%.X..                            ",
"                          %%%XXoXXXX.                    OXXO%%%  %%%..                             ",
"                          %%% XX.XX..     %%             .XX.%%%  %%%.                              ",
"                          %%   XX...     %%%%            ....%%%   %%                               ",
"                                X        %%%              ..  %%                                    ",
"                                         %%%                                                        ",
"                                         %%% $                                                      ",
"                                        %%% $$$      ##   $$                                        ",
"                                        %%   $            $$                                        ",
"                                                                                                    ",
"                                                     @                                              ",
"                                          ++        @@@                                             ",
"                                                                                                    ",
"                                                                                                    ",
"                                                                                                    ",
"                                                                                                    ",
"                                                                                                    ",
"                                                                                                    ",
"                                                                                                    ",
"                                                                                                    ",
"                                                                                                    ",
"                                                                                                    ",
"                                                                                                    ",
"                                                                                                    ",
"                                                                                                    ",
"                                                                                                    ",
"                                                                                                    ",
"                                                                                                    ",
"                                                                                                    "
};
