/* XPM */
static char *out[] = {
/* columns rows colors chars-per-pixel */
"100 100 7 1 ",
"  c None",
". c #D42A41",
"X c #FC5842",
"o c #FCD64B",
"O c #873AD5",
"+ c #B589D2",
"@ c white",
/* pixels */
"                                                                                                    ",
"                                                                                                    ",
"                                                                                                    ",
"                                                                                                    ",
"                                                                                                    ",
"                                                                                                    ",
"                                                                                                    ",
"                                                                                                    ",
"                                                                                                    ",
"                                                                                                    ",
"                                                                                                    ",
"                                                                                                    ",
"                                                                                                    ",
"                                                                                                    ",
"                                                                                                    ",
"                                                                                                    ",
"                                                                                                    ",
"                                                                                                    ",
"                                                                                                    ",
"                                                                                                    ",
"                                                                                                    ",
"                                                                                                    ",
"                                                                 ..                                 ",
"                                                                ......                              ",
"                                  XX ....                      ..XX....                             ",
"                             ....X........                    ....X.XX.                             ",
"                             ...X.X..X.XX.                    .....O.X..                            ",
"                             X.XX.XX.XOXXO                   XoXX. O.XX.                            ",
"                             .X...XXXXXXXX                   XooXXoXXXXX                            ",
"                           .X.....OXXXXooX             XX@@...ooXXooXX..                            ",
"                          ..XX....XXoX.oo.            XX@@@@.X.XoXXooXX.                            ",
"                       ..X.XXXOO.Xo.oX.XX.  +         X@@@@@.XXXXXXXXXXXX                           ",
"                       .XXX.O..XXXXXoX.o..X+++++      .o@@@.OX.oXoXXoo...OOX.                       ",
"                       XX...XXXoXXXoo@XXXoXX+         .X.@X....oXooXXXoXX.XXX.                      ",
"                       ....XXoXooXoo@@@XooXX          . .OXXoXX..oooXXooX.OX.                       ",
"                         O..ooooXoX@@@@Xoo..            O.XXoo..X.XXXXooo O                         ",
"                           .XX..Xoo@@@oXX.X.            O...oooX..XXoX.XXX                          ",
"                           X...Xooo..XXoX.X.             .XX.XXX..XXXo.X..                          ",
"                           ....XX..XXXooXoX             OXO..oXXooX.XXOOO..                         ",
"                           ..X.XXo.Xoooo....             OO.Xoo@oo..XXO.XX..                        ",
"                            ..OXoXX..XX.X.X               ...o@@@XXooXX.XX..                        ",
"                               XXXooX...O.                 OX.X@@XXooXXOO..                         ",
"                               XXXooXX                       .   ...XX @                            ",
"                                @OX...                                @@@                           ",
"                               @@@                                    @@@@                          ",
"                          @    @@                                      @@@                          ",
"                        @@@@                                                                        ",
"                       @@@@                                                                         ",
"                      @@@@                                                                          ",
"                      @@@                                                                           ",
"                      @@                                                                            ",
"                                                                                                    ",
"                                                                                                    ",
"                                                                                                    ",
"                                                                                                    ",
"                         +                                  .                                       ",
"                                                           X.XX                                     ",
"                                  XX..                    ..ooo   .                                 ",
"                                 XX.oXXX.                  ..oXXXX.X...XX                           ",
"                         +     XXooo.Xooo.                XXoXXo..oo.XooXX                          ",
"                       ..OO    ooXooX.XooX               ..XooXX...XXXooXX                          ",
"                      ..XX..O..X.XXoX.XX.X                XXo.X.oXooXX.XXX                          ",
"                      ..X..OOXXXoooo..ooo..              .XoX.XXXXooXXX..@@                         ",
"                       ..XXXOXXX.XXX.oXooXX             X....ooooX.XXO..@@@@                        ",
"                         .XXXXoooXooo.XXoXX            ..ooXXooXXXXoX.O..@@@                        ",
"                        ..O.XoXooXXooXX...              XooXXoXXXoXoX.XX..@@@                       ",
"                        XXXXXXXXX.XXoXoo..              XoX.X.XooXX..ooo..@@@@                      ",
"                        .XX.XXXoo.XXoXooXX                O.XX.oXXooXooX.X.@@@                      ",
"                        ..X..XXXoXooXXXoXX                 .oo.XooXXXoXXX.. @@                      ",
"                           X@.OXXXXX@XooX.                 XooXXoXXXXoXX                            ",
"                           @@@.OXXX@@@XXX                  XXXX..oooX.XX                            ",
"                           @@@XXOXX@@XXX                 O  XXXXXooX...X                            ",
"                          @@@XXXOXXXX.X.                 O..O @ XoX@...                             ",
"                          @@@.......      @              OXXO@@@  @@@                               ",
"                          @@   X....     @@@             .XX.@@@   @@                               ",
"                              XXX ..     @@@             .... @@@                                   ",
"                                         @@@              ..   @@                                   ",
"                                         @@@                                                        ",
"                                        @@@                                                         ",
"                                        @@@                                                         ",
"                                        @@                                                          ",
"                                                                                                    ",
"                                                                                                    ",
"                                                                                                    ",
"                                                                                                    ",
"                                                                                                    ",
"                                                                                                    ",
"                                                                                                    ",
"                                                                                                    ",
"                                                                                                    ",
"                                                                                                    ",
"                                                                                                    ",
"                                                                                                    ",
"                                                                                                    ",
"                                                                                                    ",
"                                                                                                    ",
"                                                                                                    ",
"                                                                                                    ",
"                                                                                                    ",
"                                                                                                    "
};
