/* XPM */
static char *out[] = {
/* columns rows colors chars-per-pixel */
"100 100 7 1 ",
"  c None",
". c #D42A41",
"X c #FC5842",
"o c #FCD64B",
"O c #873AD5",
"+ c #B284D1",
"@ c white",
/* pixels */
"                                                                                                    ",
"                                                                                                    ",
"                                                                                                    ",
"                                                                                                    ",
"                                                                                                    ",
"                                                                                                    ",
"                                                                                                    ",
"                                                                                                    ",
"                                                                                                    ",
"                                                                                                    ",
"                                                                                                    ",
"                                                                                                    ",
"                                                                                                    ",
"                                                                                                    ",
"                                                                                                    ",
"                                                                                                    ",
"                                                                                                    ",
"                                                                                                    ",
"                                                                                                    ",
"                                                                                                    ",
"                                                                                                    ",
"                                                                                                    ",
"                                  X                                                                 ",
"                                 XXX  ..                            ..                              ",
"                                 .X......                      .. X....                             ",
"                               X X....XX.                     ....X.XX..                            ",
"                              XXX..X.OXXO                     .XX..OOXXX                            ",
"                             XXXX.XX.O.XX                    ....O O.XX.                            ",
"                            X XX.XXXXXXXXX                  O..XXoXXX...                            ",
"                          ...X...XXXXXXooX              .@@..OXXXoXoX...                            ",
"                          ..XX...XoXXX.XX.             .@@@@.X.XoXXooXX.                            ",
"                         XXXXXOO..o.Xo.XX.             @@@@@OXXoXXXXXoXXOO.                         ",
"                        XX...X.XXoXXoXXXXXX            O@@@O.OXoXoXXXoo...XX                        ",
"                       XX...XXXXoXXoo@XooXX++          O.@OXX..oXooXXXXXX..X                        ",
"                        ...XXXXoXXoX@@@oo.oX           O OOXXoX..ooooXXoX..                         ",
"                         O...OooXoo@@@@XX.o.             ..XXoo.X.XXXoooo.                          ",
"                           X.OXXooo@@@oXX.X.             O...ooo...oooXXXXX                         ",
"                          ....X.XX.XoXXoX. .            OO.XX.XXoXXXXXX...                          ",
"                          ..X..XXo.XXXooX.               ..XX.XXooXX...OO..                         ",
"                           ..OOXoXX..ooo..O              OOXXooXoo..XXO.XX..                        ",
"                               oXXooXXX.X.                ...ooo.XXooXX.XX..                        ",
"                               XXXooX...O                  OX.XX..XooXXOO..                         ",
"                               XXXX...                       .O  ...XX                              ",
"                                .OO .                                  @@                           ",
"                                                                      @@@@                          ",
"                                                                       @@@                          ",
"                        @@                                                                          ",
"                       @@@@                                                                         ",
"                      @@@@                                                                          ",
"                     @@@@                                                                           ",
"                     @@@                                                                            ",
"                                                                                                    ",
"                                                                                                    ",
"                                                                                                    ",
"                                                                                                    ",
"                         +                                  .                                       ",
"                                                           X.XX                                     ",
"                                 XX..                     ..ooo                                     ",
"                                XXooX                      Xo.X..OOOO..                             ",
"                              XXXXX.X.XX.                  XX.XXX.O.....XX                          ",
"                       ..OO   oooooo.Xooo.                ...ooo...XX.XooXX                         ",
"                      ..XX. .OXoXXooXXX.oX                 XXooX.XooXXXooXX                         ",
"                      ..XX....XXXXXoXooo.XO              ..XXo.XXXooXXo.X.@                         ",
"                       ....OXXooXXoo.XooXX.             X....X.XX..XX.XX.@@@                        ",
"                         XX.oXX.oXXXoXXoXX.            ..ooX..oooXXoXX...@@@                        ",
"                         ...XoooXXXooXo.OO              XooXoXooXoooXX.XX.@@@                       ",
"                       ..OXXXXooXXooo.XoX.              XoXXXXoXXoXX..ooo.@@@@                      ",
"                       XXX.XXXXXX.XXo.ooX.                O..OXXoXXooXooXX.@@@                      ",
"                       .XX..XXXXoXXXXXoo..                 .XX.oXooXoXoXX.. @@                      ",
"                       ..X.X..OooXXXXXXoX.                 .oo.XXoXXXXX.X                           ",
"                         XXX@..XXXXXXooX.                  XooXX..oooX..                            ",
"                           @@@XX..X..XXX                  OXXXX..XooX.X.                            ",
"                          @@@.XX.XX..XX.                  O.XX@X XoXX.X.                            ",
"                          @@@..X....                      OXX@@@   XX                               ",
"                          @@  XX....      @               .XX@@@                                    ",
"                               XX..      @@@              ....@@@                                   ",
"                                X        @@@               ..  @@                                   ",
"                                         @@@                                                        ",
"                                        @@@                                                         ",
"                                        @@@                                                         ",
"                                        @@                                                          ",
"                                                                                                    ",
"                                                                                                    ",
"                                                                                                    ",
"                                                                                                    ",
"                                                                                                    ",
"                                                                                                    ",
"                                                                                                    ",
"                                                                                                    ",
"                                                                                                    ",
"                                                                                                    ",
"                                                                                                    ",
"                                                                                                    ",
"                                                                                                    ",
"                                                                                                    ",
"                                                                                                    ",
"                                                                                                    ",
"                                                                                                    ",
"                                                                                                    ",
"                                                                                                    "
};
