/* XPM */
static char *out[] = {
/* columns rows colors chars-per-pixel */
"100 100 6 1 ",
"  c None",
". c #D42A41",
"X c #FC5842",
"o c #FCD64B",
"O c #873AD5",
"+ c white",
/* pixels */
"                                                                                                    ",
"                                                                                                    ",
"                                                                                                    ",
"                                                                                                    ",
"                                                                                                    ",
"                                                                                                    ",
"                                                                                                    ",
"                                                                                                    ",
"                                                                                                    ",
"                                                                                                    ",
"                                                                                                    ",
"                                                                                                    ",
"                                                                                                    ",
"                                                                                                    ",
"                                                                                                    ",
"                                                                                                    ",
"                                                                                                    ",
"                                                                                                    ",
"                                                                                                    ",
"                                                                                                    ",
"                                                                                                    ",
"                                                                                                    ",
"                                                                                                    ",
"                                 XX ....                          XXX                               ",
"                               X.XX......                      ...XX.XX                             ",
"                              XXX..X..XX.                     .......XX.                            ",
"                             XXXX.XX.OXXO                     .X....O.XX                            ",
"                              XX.X...XXXX                    ..XX..X...XX                           ",
"                          ..X. .....XXooX               .....OOXX..XX....                           ",
"                        ...XX...X..X..XX.              ..++....O.X..XX.X.X                          ",
"                       XX.XXXOO..O.O..XX.              .++++..XXoXX....XX                           ",
"                       XXX....X...X..XXXX.             +++++OOXXoXoXXXX....                         ",
"                        .....XXoX.XX.XooX..            O++..O...oXooXo.X....                        ",
"                          X.XXoXXoXXO.oo.X.            O OO.XoXX..oooX.XX...                        ",
"                          XXXooXooXXX+XX.XO              ...XooX.X.XXX.XXX.                         ",
"                          X..XXooo..+++...O              .O..oooX...X..O..                          ",
"                          X..O.XX.Xo++oXX.O              .X.X.XX.X....XO.XX                         ",
"                          .X..X...XXXooXO.              OOX.O.oXXXX.O...X.                          ",
"                          .XX...XXXoooo..OO              .O.OXooXXXXO..XOO..                        ",
"                           .OO..XX..XX.XO.                OO..oooO...oX..XX..                       ",
"                              .XXooX...OO                  .OX.XXO..oooX.XX..                       ",
"                               XXooXX                       O....OOX.oXOOO..                        ",
"                               XXX...                         O     .                               ",
"                                .OO                                     +                           ",
"                                                                       +++                          ",
"                                                                        ++                          ",
"                        +                                                                           ",
"                       +++                                                                          ",
"                      ++++                                                                          ",
"                     ++++                                                                           ",
"                     +++                                                                            ",
"                                                                                                    ",
"                                                                                                    ",
"                                                                                                    ",
"                                                                                                    ",
"                                                             .                                      ",
"                                                            X.XX                                    ",
"                                                           ..ooo                                    ",
"                                XX..                        XooX.  O                                ",
"                               XXo.X...O                    .XX.XO.O..OOO..                         ",
"                              .XXXoXXXXXO                  X.ooo....XXO.XX..                        ",
"                        .O .OXXXXooX..XX.                 ..oXooX.XooXX.XX..                        ",
"                       XX.XX...Xooo..XX..                  XoXXoXOXooXXOO..                         ",
"                       X..OOX..OXXo.Oooo.O                OXoXXX.X..XXO...X                         ",
"                        XXX..XXOXXX.XXooX.               .OOO.ooooX....O...+                        ",
"                        .XX.X..XXooo.XXoX.              OOXX.XXooXX.X..OX.+++                       ",
"                       ....XX.XXXXooX.OO.                .XX.XXXoXoX...OO.++++                      ",
"                       XXXX..X..XXXoXXXO.O               .X....XooX..OOXX.X+++                      ",
"                       .X..XX.XXOXXoXXX.O.                 O...XoXXXX..XX.X.++                      ",
"                       .....X..X.XX...X...                  .XX.X.XX....X...                        ",
"                          XX.O......O..X.                   .oo.X.X...X..                           ",
"                           X..O....X.XX.                    XooXOOXXX.XX                            ",
"                           XXXXOX.......                  O XXXX .XX..X.                            ",
"                            .XX.XX.....                   O..XX  .X..X..                            ",
"                            ..X....                       OXXO +   X                                ",
"                              XX..                        .XX.+++                                   ",
"                               X          +               .... ++                                   ",
"                                         +++               ..                                       ",
"                                        +++                                                         ",
"                                        +++                                                         ",
"                                        ++                                                          ",
"                                                                                                    ",
"                                                                                                    ",
"                                                                                                    ",
"                                                                                                    ",
"                                                                                                    ",
"                                                                                                    ",
"                                                                                                    ",
"                                                                                                    ",
"                                                                                                    ",
"                                                                                                    ",
"                                                                                                    ",
"                                                                                                    ",
"                                                                                                    ",
"                                                                                                    ",
"                                                                                                    ",
"                                                                                                    ",
"                                                                                                    ",
"                                                                                                    ",
"                                                                                                    "
};
