/* XPM */
static char *out[] = {
/* columns rows colors chars-per-pixel */
"100 100 5 1 ",
"  c None",
". c #D42A41",
"X c #FC5842",
"o c #873AD5",
"O c white",
/* pixels */
"                                                                                                    ",
"                                                                                                    ",
"                                                                                                    ",
"                                                                                                    ",
"                                                                                                    ",
"                                                                                                    ",
"                                                                                                    ",
"                                                                                                    ",
"                                                                                                    ",
"                                                                                                    ",
"                                                                                                    ",
"                                                                                                    ",
"                                                                                                    ",
"                                                                                                    ",
"                                                                                                    ",
"                                                                                                    ",
"                                                                                                    ",
"                                                                                                    ",
"                                                                                                    ",
"                                                                                                    ",
"                                                                                                    ",
"                                                                                                    ",
"                                 XX                                                                 ",
"                                .XX.                            ..XX XX                             ",
"                              X X..oXXXX                       ....X.XX.                            ",
"                             XXX..X.X....                      .X...o.XX                            ",
"                            XXXX.XX......                     ..XX..X...X                           ",
"                             XX.X.....XX.               .... oooXX..XX....                          ",
"                         .X..o.......oXXo              .......X.o.X..XX.X.                          ",
"                        ..XX..o..Xo.Xo..o              .X.OX..XXo.XX....XX                          ",
"                       XXXX..X..o..X.o..o              oXOOOooXo.X..XXXX..                          ",
"                       XX...X..X..XX.......            o.oOOo.o..X.X........                        ",
"                        .o.XX.XX.XXXo.XX.X.            o ooXo.XooX.XX..oXXXXX                       ",
"                          XXXXX..X..X.XXoXo              ooX..Xo.ooXXX..XX.XX                       ",
"                          ..o...XX.XX...o.o              o.oooXX.o.o....o...                        ",
"                          XXo..XXXoo..X.ooo              o.oo.o..o.o.XXXo.o                         ",
"                          X..X...o...XX.o.                ...oooXoXXX....o                          ",
"                           .....Xo..XXXoo.               oX.Xo.X..XX.o..oo.                         ",
"                           XX....oo...o.Xoo               ooXo.XX.oooo..X.XX                        ",
"                            ....XX..o o.o.                 .oooXXXoX.XX...XX                        ",
"                              ..XX.oo   o                   o .o..o..XX..o.                         ",
"                              o..ooo                           o   ooo..                            ",
"                              ooo o                                                                 ",
"                               o                                                                    ",
"                                                                                                    ",
"                                                                                                    ",
"                                                                                                    ",
"                       O                                                                            ",
"                      OOO                                                                           ",
"                      OOO                                                                           ",
"                      OO                                                                            ",
"                                                                                                    ",
"                                                                                                    ",
"                                                                                                    ",
"                                                                                                    ",
"                                                                                                    ",
"                                                              o                                     ",
"                                                             .o..                                   ",
"                                ..oo                        ooXXX                                   ",
"                               ..X.                          .oX.. ooo..                            ",
"                             ....o.....o                     .o..Xo.oo.ooo..                        ",
"                        .o  XXXXXXooXXXXo                   ooXXX.ooo....XX..                       ",
"                       XX.X.....XX..X.XX.                  oo.XX.oX.XX...XX..                       ",
"                       XX..X.....X....oX.o                o...Xo....XX..oo..                        ",
"                       ..oX.XXX.XX..XXXoXo               .o..X.o..Xoo.....o.                        ",
"                       XXX.X..o...oo.XX.X.              ooXooooXXX..XX.o..oXO                       ",
"                       .X...XXXXXXXo..X.X.               .XX.X.XX....X.o...OOO                      ",
"                      ..oXX..XX..XX..ooXo                .X..X.X..XXXooXXX.OOO                      ",
"                      XXX.XX......X.XXooo                  X.Xo..XX..X.XX.XXOO                      ",
"                      .XX..X.XXX..X.XX...                   o.o..X..XX.X..X..                       ",
"                      ..X.oo..XX.XX..X..                    o..o..XX...XX.                          ",
"                           ....X.....XX.                    oXXo..X....X..                          ",
"                           XXXo.........                    .XX..ooXXXXX                            ",
"                           .XX..X......                   o ....  .XX.X                             ",
"                           ..X......X.                    ....    .X..                              ",
"                             ooo..                         XX                                       ",
"                              ooo                                                                   ",
"                               o         O                                                          ",
"                                        OOO                                                         ",
"                                        OOO                                                         ",
"                                        OO                                                          ",
"                                                                                                    ",
"                                                                                                    ",
"                                                                                                    ",
"                                                                                                    ",
"                                                                                                    ",
"                                                                                                    ",
"                                                                                                    ",
"                                                                                                    ",
"                                                                                                    ",
"                                                                                                    ",
"                                                                                                    ",
"                                                                                                    ",
"                                                                                                    ",
"                                                                                                    ",
"                                                                                                    ",
"                                                                                                    ",
"                                                                                                    ",
"                                                                                                    ",
"                                                                                                    "
};
