/* XPM */
static char *out[] = {
/* columns rows colors chars-per-pixel */
"100 100 5 1 ",
"  c None",
". c #D42A41",
"X c #FC5842",
"o c #5633A8",
"O c #873AD5",
/* pixels */
"                                                                                                    ",
"                                                                                                    ",
"                                                                                                    ",
"                                                                                                    ",
"                                                                                                    ",
"                                                                                                    ",
"                                                                                                    ",
"                                                                                                    ",
"                                                                                                    ",
"                                                                                                    ",
"                                                                                                    ",
"                                                                                                    ",
"                                                                                                    ",
"                                                                                                    ",
"                                                                                                    ",
"                                                                                                    ",
"                                                                                                    ",
"                                                                                                    ",
"                                                                                                    ",
"                                                                                                    ",
"                                                                                                    ",
"                                OO                                                                  ",
"                               OOOO                                OOOOO                            ",
"                              OoOOoXX..                           OOOOOOO                           ",
"                              OOOX.X....                        XXXOOoOOOO                          ",
"                              OOXX...XX.                       ..XX..X..O                           ",
"                             OOXXXOOOXXO                       OXXX..XX.O                           ",
"                          X O OX.O..O..O                      oX...X..XXXXX                         ",
"                       O XX.XO.XX..XO..O                 XXXX .XX.X.....XX                          ",
"                      OOXXXOO.OX..X.....                .X.XX.OXO.X....XX.                          ",
"                      OOO.O..X.X.XX..XX.X               O.O..O.OOOXOXXX.X.OoO                       ",
"                       OoXX.XX.XXXXOOXXOXX              O O.XX.X..OOXX..XXXXOO                      ",
"                         XXXXX..X..X...OX.                OOXX.XOOO.O....XXOOO                      ",
"                          ...O.XX.XX.X.OOO                 .OOOXX.O.O....X.oO                       ",
"                         OOOOOXXXOO..X.OOO                 .OO.O..O.O.XXXO                          ",
"                         OO.XX..O...XX.OO                  .X.OOOXOXXX...                           ",
"                          XXX..XO.XXXXOO.                 OOXXO.X..XX.OXOO                          ",
"                          XX..X..X...O.XOO                 ..XO.XX.X.OO..OO.                        ",
"                           ..X..OO.OOO.O.                  OOXOOXXXOX.XX...XX                       ",
"                            ...XX.OO  OO                    .OO.O...X.XX...XX                       ",
"                             ..XX..                          O OO O.OOO..OO.                        ",
"                              ..OOO                                                                 ",
"                                                                                                    ",
"                                                                                                    ",
"                                                                                                    ",
"                                                                                                    ",
"                                                                                                    ",
"                                                                                                    ",
"                                                                                                    ",
"                                                                                                    ",
"                                                                                                    ",
"                                                                                                    ",
"                                                                                                    ",
"                                                                                                    ",
"                                                                                                    ",
"                                                                                                    ",
"                                                                                                    ",
"                                                               O                                    ",
"                                                              .O..                                  ",
"                              ..OO                           OOXXX  OO.                             ",
"                             ..XX. .O                         .OX.o ..XXOOO..                       ",
"                       Oo    ...O.XX..O                      O.O..OOOO..o.XX..                      ",
"                      OOO   XXXXXOOXXXXO                    .OOXXX.O.XX...XX..                      ",
"                      OOO  .O..XX..X.XX.                   OOX.XX.OX.XX..OO..                       ",
"                       Oo.X.....X.X..OX.                   O.X.XO...OO..XXOO                        ",
"                       .OXXXXX.XX..XXXO.                  .O.X..O..X..... .O.                       ",
"                      XXXOX..O...OX.XX.O                 OOXOOOOXXX..XX..OOXXX                      ",
"                       XX.OXXXXXXXO..X..                  .XX.X.XX....X..O..X                       ",
"                      .OXXX.XX..XX....X.                   X..X.X..XXX.OOXXX                        ",
"                      XXOXX..X...X.XXXO.                     XOO..XX..XX.XX.                        ",
"                     XXX  X ..O..X..X.O.                    OO.O..X..XXO.X..                        ",
"                           O.XX.XX.....                      O..O..XX...XX                          ",
"                          OOXXX......X.                      OXXOX.X..OXX                           ",
"                           O..O...XX.                        .XX. OOXXXXX                           ",
"                           XXXOXXXXX                       O ....  .XX  X                           ",
"                            X.OXXO                         O....    X                               ",
"                              OOO                          .XX.                                     ",
"                               O                            XX                                      ",
"                                                                                                    ",
"                                                                                                    ",
"                                                                                                    ",
"                                                                                                    ",
"                                                                                                    ",
"                                                                                                    ",
"                                                                                                    ",
"                                                                                                    ",
"                                                                                                    ",
"                                                                                                    ",
"                                                                                                    ",
"                                                                                                    ",
"                                                                                                    ",
"                                                                                                    ",
"                                                                                                    ",
"                                                                                                    ",
"                                                                                                    ",
"                                                                                                    ",
"                                                                                                    ",
"                                                                                                    ",
"                                                                                                    ",
"                                                                                                    "
};
