/* XPM */
static char *out[] = {
/* columns rows colors chars-per-pixel */
"100 100 3 1 ",
"  c None",
". c #5633A8",
"X c #873AD5",
/* pixels */
"                                                                                                    ",
"                                                                                                    ",
"                                                                                                    ",
"                                                                                                    ",
"                                                                                                    ",
"                                                                                                    ",
"                                                                                                    ",
"                                                                                                    ",
"                                                                                                    ",
"                                                                                                    ",
"                                                                                                    ",
"                                                                                                    ",
"                                                                                                    ",
"                                                                                                    ",
"                                                                                                    ",
"                                                                                                    ",
"                                                                                                    ",
"                                                                                                    ",
"                                                                                                    ",
"                                                                                                    ",
"                                                                                                    ",
"                                                                                                    ",
"                               X  XX                              XX    X                           ",
"                              XX.XXXX                            XXXX  XXX                          ",
"                             XXXXXXXXX                           XXX.XXXXXX                         ",
"                              .X.X.XX.                          ..XX...XXX                          ",
"                              XX.X.X..                          XX.XXXX.X                           ",
"                          X  XXXXXXX.                    XX    XXX.XX.X.XX                          ",
"                         XXXX.XX.XXXXX                  XXXX  ..X..XXXXXXXX                         ",
"                        XXX.XXXXXXX.XX.                 .XX.   X.X..XXXX . X                        ",
"                        XXXXXXXXXX.XXXXXX               .     XX.X.X..XXXXXXX                       ",
"                       XXX..XXXXX.X.XX.XXX                   XXXXXXX.X.XX..XXX                      ",
"                        X.XXXXX..XXX...XX.                   .XXXXXX.X.XXXX.X                       ",
"                        X.XXXX.XXXX.X..  .                   ..XX.XXX.XXXXX.                        ",
"                         . XXX.X.X.XXX                       XX...XXXX.X.X                          ",
"                            XXXXXXXXX..                     .XX. XXXXXXXX                           ",
"                            XXXXX.XX.X..                    .XXX XXX.X..X                           ",
"                           XXXX.XX....X                     ..XX..XX.XXXXX                          ",
"                            XXXXX..  .                       X.XXXX..X XXX                          ",
"                             XXX.X                            .  .    ..X                           ",
"                              X..                                                                   ",
"                                                                                                    ",
"                                                                                                    ",
"                                                                                                    ",
"                                                                                                    ",
"                                                                                                    ",
"                                                                                                    ",
"                                                                                                    ",
"                                                                                                    ",
"                                                                                                    ",
"                                                                                                    ",
"                                                                                                    ",
"                                                                                                    ",
"                                                                                                    ",
"                                                                                                    ",
"                                                                                                    ",
"                                                                                                    ",
"                                                                                                    ",
"                                                                                                    ",
"                                                                                                    ",
"                                                                                                    ",
"                                                               ...          X                       ",
"                            X. X.  X.                           X.X        XXX                      ",
"                    XX.    XXX.XX.XXX.                         ..XXXX. ..X XXX                      ",
"                    XX.   X.XXXXXXXXXX                        ..XXXXX.XXXX..X                       ",
"                       . XXX.XXX.XXX.                        X...XX..XXXXXX                         ",
"                      X.X XX.XXXXXXXX.                      ..X.XX..XXX..X                          ",
"                     XXX..XXX.X.XXXXXXX                      ..XXX.XXX.X..X                         ",
"                      XXX X.XXXX.XXXXXX                      .XX..XXXX..XXX.                        ",
"                       X XXX.XXXX XXXX                        XX.XXX.XXX XX.X                       ",
"                     X.  XXXX XXX.X..X                        X.XXX.XXXXX..XXX                      ",
"                    XXX   XXX.XXXXXX..                       XXXXXXXXXXXX.XXX                       ",
"                    XXX    XX.XX.XXXXX                        .XX..XXXX.XXXX                        ",
"                     X.     XXXXXXXXXX                        .XX.XXXXXXX X                         ",
"                          X. XXXXXXXX                         XXXX XX.X                             ",
"                         XXX.XXXXXX                            XX  ..XXX                            ",
"                          XXX   XX                          ..      XXX                             ",
"                           X                                XX       X                              ",
"                                                            XX                                      ",
"                                                                                                    ",
"                                                                                                    ",
"                                                                                                    ",
"                                                                                                    ",
"                                                                                                    ",
"                                                                                                    ",
"                                                                                                    ",
"                                                                                                    ",
"                                                                                                    ",
"                                                                                                    ",
"                                                                                                    ",
"                                                                                                    ",
"                                                                                                    ",
"                                                                                                    ",
"                                                                                                    ",
"                                                                                                    ",
"                                                                                                    ",
"                                                                                                    ",
"                                                                                                    ",
"                                                                                                    ",
"                                                                                                    "
};
