/* XPM */
static char *out[] = {
/* columns rows colors chars-per-pixel */
"100 100 10 1 ",
"  c None",
". c #FC5842",
"X c #FCD64B",
"o c #F0E8F6",
"O c #F3ECF8",
"+ c #E7F3F3",
"@ c #F6F1F9",
"# c #F9F5FB",
"$ c #FCFAFD",
"% c white",
/* pixels */
"                                                                                                    ",
"                                                                                                    ",
"                                                                                                    ",
"                                                                                                    ",
"                                                                                                    ",
"                                                                                                    ",
"                                                                                                    ",
"                                                                                                    ",
"                                                                                                    ",
"                                                                                                    ",
"                                                                                                    ",
"                                                                                                    ",
"                                                                                                    ",
"                                                                                                    ",
"                                                                                                    ",
"                                                                                                    ",
"                                                                                                    ",
"                                                                                                    ",
"                                                                                                    ",
"                                                                                                    ",
"                                                                                                    ",
"                                                                                                    ",
"                                                                                                    ",
"                                                                                                    ",
"                                                                                                    ",
"                                                                                                    ",
"                                                                                                    ",
"                                                                                                    ",
"                                                                                                    ",
"                                                                                                    ",
"                                                                                                    ",
"                                                                                                    ",
"                                                                                                    ",
"                                                                                                    ",
"                                                                                                    ",
"                                                    %                                               ",
"                                                   %%%                                              ",
"                                                 o%%%%%                                             ",
"                                             oooo%%O%%%                                             ",
"                                           ooOOO%%O%OOOO.X                                          ",
"                                           ooOOO@O@%@@@OXXX                                         ",
"                                         X.o@@@@@@%@@@@OXXXX                                        ",
"                                        XXXo@@@@@##%@@@XXXX.                                        ",
"                                       XX+Xo@#$$$#%####%X.XX                                        ",
"                                       .XX.%%%$$$$$$$$#%.X.+ooo                                     ",
"                                       %%@@@%%%%%%%%$$###%OOOOo                                     ",
"                                    %%%%%@@$$$$%%%$$$$$$#@@OOOo                                     ",
"                                   %%%%%@@@$$$$$$%%%%$$$#@@OOo                                      ",
"                                  %%%%%@@@%$$$$$$%%%%$$$#@@@OO                                      ",
"                                   %%%O%@%#%$$$$%%%%%%$$#%@@@OO%                                    ",
"                                    %%O@@@#$$$$%%%%%%$$$%#@@@O%%%                                   ",
"                                     OOO@@##$$$%%%%%%$$$##%@%%%%%%                                  ",
"                                     oOO@@##$$$%%%%%%$$$##%@%%%%%%                                  ",
"                                      OO@@##$$$$$$%%%$$$##%@%%%%%%                                  ",
"                                     oOO@@@%%$$$$$$$$%###@@@OO%%                                    ",
"                                     oOOOOOO%$$$$$$$%%#%%OOOOO                                      ",
"                                     ooOOOX.%%###%$####XXXXOOO                                      ",
"                                        XXXXX%########@@+X.                                         ",
"                                        XX+.O%###%@###@@XX                                          ",
"                                         XXXOO@@@@@O@@@@oX                                          ",
"                                        X XXOOO%%@OOOoooo                                           ",
"                                           XXOOO%OOOoooX                                            ",
"                                             %%%%OOoooo                                             ",
"                                             %%%%%o ooo                                             ",
"                                              %%%                                                   ",
"                                               %                                                    ",
"                                                                                                    ",
"                                                                                                    ",
"                                                                                                    ",
"                                                                                                    ",
"                                                                                                    ",
"                                                                                                    ",
"                                                                                                    ",
"                                                                                                    ",
"                                                                                                    ",
"                                                                                                    ",
"                                                                                                    ",
"                                                                                                    ",
"                                                                                                    ",
"                                                                                                    ",
"                                                                                                    ",
"                                                                                                    ",
"                                                                                                    ",
"                                                                                                    ",
"                                                                                                    ",
"                                                                                                    ",
"                                                                                                    ",
"                                                                                                    ",
"                                                                                                    ",
"                                                                                                    ",
"                                                                                                    ",
"                                                                                                    ",
"                                                                                                    ",
"                                                                                                    ",
"                                                                                                    ",
"                                                                                                    ",
"                                                                                                    ",
"                                                                                                    ",
"                                                                                                    ",
"                                                                                                    "
};
