/* XPM */
static char *out[] = {
/* columns rows colors chars-per-pixel */
"100 100 3 1 ",
"  c None",
". c #5633A8",
"X c #873AD5",
/* pixels */
"                                                                                                    ",
"                                                                                                    ",
"                                                                                                    ",
"                                                                                                    ",
"                                                                                                    ",
"                                                                                                    ",
"                                                                                                    ",
"                                                                                                    ",
"                                                                                                    ",
"                                                                                                    ",
"                                                                                                    ",
"                                                                                                    ",
"                                                                                                    ",
"                                                                                                    ",
"                                                                                                    ",
"                                                                                                    ",
"                                                                                                    ",
"                                                                                                    ",
"                                                                                                    ",
"                                                                                                    ",
"                                                                                                    ",
"                                                                                                    ",
"                                  XX                              XX    X                           ",
"                                XXXXX                             XXX XXXX                          ",
"                                XXXXXX                          ..XX XXXXXX                         ",
"                               X...XX.                          XX.X...XXX                          ",
"                              XX.X.X..                          X..XXXX.X                           ",
"                          X  XXXXXX..                    XX    XXXXX....XX                          ",
"                         XX.XX...X.X                    XXXX  ..X..XXXXXXXX                         ",
"                         XX.XXXXXXX.                    .XX.   X.XXXXXXX . X                        ",
"                        XXXXXXXXXX..X  XX               .     XXXX....XXXXXXX                       ",
"                        XXX.XXXXX.XXXXXXXX                   XX..XXX.X.XX..XXX                      ",
"                         .X.XXX..XXXX..XX.                   ..XX.XX. ..XXX.X                       ",
"                        XXXXXX.XXXX....  .                   .X.X.XXXX.. XX.                        ",
"                         . XXX.XXXXXX.                        ....XXXXXX..X                         ",
"                            XXXX..XXX.                        X  XXXXXXXX                           ",
"                            XXX.X..XX                        XXX XXX.X..X                           ",
"                           XXXX.XX                          ..X...XX.XXXXX                          ",
"                            XXXXX..                          X.XX.X..X XXX                          ",
"                             XXX.X                            .  .    ..X                           ",
"                              X..                                                                   ",
"                                                                                                    ",
"                                                                                                    ",
"                                                                                                    ",
"                                                                                                    ",
"                                                                                                    ",
"                                                                                                    ",
"                                                                                                    ",
"                                                                                                    ",
"                                                                                                    ",
"                                                                                                    ",
"                                                                                                    ",
"                                                                                                    ",
"                                                                                                    ",
"                                                                                                    ",
"                                                                                                    ",
"                                                                                                    ",
"                                                                                                    ",
"                                                                                                    ",
"                                                                                                    ",
"                                                                                                    ",
"                                                               ...                                  ",
"                            XXX.   X.                           X.X       ..X                       ",
"                    XX.    XX..X.XXXX                          ..XXXX.  ..XXXX                      ",
"                    XX.   ..XX.XXXXXX.                        ..XXXXX.X  XXXXX                      ",
"                       . XXXXXXXXXX..                        X...XX..XXXXX..X                       ",
"                      .XX X..XXXXXXX.                       ..XXXX..XXX...X                         ",
"                     XXXXXXXXXX.XXXXX                        XXX X.XXX.X..X                         ",
"                      XX. X.XXXX.XXX                          X ..XXX. .XXX.                        ",
"                       X XXX.XXXX X ..                         ..XXX.XX.XXX.X                       ",
"                         XXXXXXX..X..X                         .XXX.XXXXX..XXX                      ",
"                    XX.   XXX..XXXXX.X                         XXXXXXXXXXXXXX                       ",
"                    XX.    XX.XX.XXXX.                        .XX...XXXXXXXX                        ",
"                           XXXXXXXXXXX                        .XX.XXXXXXX X                         ",
"                          X.XXXXXXXXX                         XXXX X X.X                            ",
"                         XXX.XXXXXX                            XX   ..XXX                           ",
"                          XXX   XX                          ..       XXX                            ",
"                           X                                XX        X                             ",
"                                                            XX                                      ",
"                                                                                                    ",
"                                                                                                    ",
"                                                                                                    ",
"                                                                                                    ",
"                                                                                                    ",
"                                                                                                    ",
"                                                                                                    ",
"                                                                                                    ",
"                                                                                                    ",
"                                                                                                    ",
"                                                                                                    ",
"                                                                                                    ",
"                                                                                                    ",
"                                                                                                    ",
"                                                                                                    ",
"                                                                                                    ",
"                                                                                                    ",
"                                                                                                    ",
"                                                                                                    ",
"                                                                                                    ",
"                                                                                                    "
};
