/* XPM */
static char *out[] = {
/* columns rows colors chars-per-pixel */
"100 100 3 1 ",
"  c None",
". c #5633A8",
"X c #873AD5",
/* pixels */
"                                                                                                    ",
"                                                                                                    ",
"                                                                                                    ",
"                                                                                                    ",
"                                                                                                    ",
"                                                                                                    ",
"                                                                                                    ",
"                                                                                                    ",
"                                                                                                    ",
"                                                                                                    ",
"                                                                                                    ",
"                                                                                                    ",
"                                                                                                    ",
"                                                                                                    ",
"                                                                                                    ",
"                                                                                                    ",
"                                                                                                    ",
"                                                                                                    ",
"                                                                                                    ",
"                                                                                                    ",
"                                                                                                    ",
"                                                                                                    ",
"                                                                  X   X X                           ",
"                                                                 .XX XXXXX                          ",
"                                                                  XX..XXXXX                         ",
"                               X XX                              .X. X.XX.                          ",
"                          X   XXXXXX                     XX     XXXX....X                           ",
"                         XX. XXXXXX..                    XX    .XX.XXX.X                            ",
"                        XXX  X. .X.X                     ..     XXX.X X                             ",
"                        XX..XXXXXXX    X                      X. . XXXXX X                          ",
"                       XXX XXXXXXX..X XXX                     XX.X....XXXX.XX                       ",
"                        . .XXXXXXXXXX XXX                     XXXXXX.X.XXX.XX                       ",
"                           XXXX..X.X.. ..                    ..XXXXX.X..X.XX                        ",
"                            XX.XX.XXX                         X.X..XXXX. .XX                        ",
"                           XXX.X.XXX..                         . .X.XXX.XX                          ",
"                            .X. . X.X                         X   X..XXXXX                          ",
"                            XXX.   .                         .XX  XXX...X                           ",
"                           XXXXXX                             XXX..XX.XXXX                          ",
"                            XXXXX                            . .   ..X XXX                          ",
"                             .X..                                     ..X                           ",
"                                                                                                    ",
"                                                                                                    ",
"                                                                                                    ",
"                                                                                                    ",
"                                                                                                    ",
"                                                                                                    ",
"                                                                                                    ",
"                                                                                                    ",
"                                                                                                    ",
"                                                                                                    ",
"                                                                                                    ",
"                                                                                                    ",
"                                                                                                    ",
"                                                                                                    ",
"                                                                                                    ",
"                                                                                                    ",
"                                                                                                    ",
"                                                                                                    ",
"                                                                                                    ",
"                                                                                                    ",
"                                                                                                    ",
"                                                                                                    ",
"                              .    .                             .                                  ",
"                    XX.    X.XXX  XXX                           XXX..X                              ",
"                    XX.   XXXX.X.  XX.                          XXX XXX                             ",
"                         XXXXXXX    X                        . ..XX.XXX                             ",
"                     .    XXXXX  XX.                          XXXX..XX...XX                         ",
"                    XXX   XX.X. XXXX.                        .XX X.XXX.X.XX                         ",
"                     XX.   .  X. XXXX                         X ..XXX.X.X.X.                        ",
"                      X   XXXXXX. XX..                          .XXXX.X.X.X.X                       ",
"                          XXXXXXXXXXXX                          ..XXXXXXX..XXX                      ",
"                    XX.  XXX X.X...X.X                         .XXXXXXXXXXXXX                       ",
"                    XX.     XXX.XXXXX.                         XXXXX.XXXX.XX                        ",
"                             XXX XXXXX                         XX.XX XXX  X                         ",
"                             XX ..XXX                              X X.X                            ",
"                             XX XX                                  ..XXX                           ",
"                                XX                                   XXX                            ",
"                                                                      X                             ",
"                                                                                                    ",
"                                                                                                    ",
"                                                                                                    ",
"                                                                                                    ",
"                                                                                                    ",
"                                                                                                    ",
"                                                                                                    ",
"                                                                                                    ",
"                                                                                                    ",
"                                                                                                    ",
"                                                                                                    ",
"                                                                                                    ",
"                                                                                                    ",
"                                                                                                    ",
"                                                                                                    ",
"                                                                                                    ",
"                                                                                                    ",
"                                                                                                    ",
"                                                                                                    ",
"                                                                                                    ",
"                                                                                                    ",
"                                                                                                    "
};
