/* XPM */
static char *out[] = {
/* columns rows colors chars-per-pixel */
"100 100 3 1 ",
"  c None",
". c #5633A8",
"X c #873AD5",
/* pixels */
"                                                                                                    ",
"                                                                                                    ",
"                                                                                                    ",
"                                                                                                    ",
"                                                                                                    ",
"                                                                                                    ",
"                                                                                                    ",
"                                                                                                    ",
"                                                                                                    ",
"                                                                                                    ",
"                                                                                                    ",
"                                                                                                    ",
"                                                                                                    ",
"                                                                                                    ",
"                                                                                                    ",
"                                                                                                    ",
"                                                                                                    ",
"                                                                                                    ",
"                                                                                                    ",
"                                                                                                    ",
"                                                                                                    ",
"                                                                                                    ",
"                                                                  X   X X                           ",
"                                                                 .XX .X.XX                          ",
"                                                                  XXX XXXXX                         ",
"                                 XX                              . .X.X. .                          ",
"                                 XX.                     XX     XXX.XXXXX                           ",
"                               X .X.                     XX     XX  X.X.                            ",
"                             X XX.                       ..    . . . XXXXX                          ",
"                            XX.XXX    XX                      XX X  ..XXX                           ",
"                           XXXXX.X XX XX                      XX.XX..X.XXX                          ",
"                           X.XXXXXXXX ..                      .XXXXXX...XXX                         ",
"                            XXX..X.X.                          XXX.XX.X. .                          ",
"                             X.XX.XXX                         . .  XXXX                             ",
"                           X  .  XXX..                            ...XX                             ",
"                           XX. X  X.X                         X    .XXXX                            ",
"                           XXXX.X  .                         .XX   ..X.                             ",
"                            .XXX..                            XXX                                   ",
"                             XXXX                            . .                                    ",
"                              X..                                                                   ",
"                                                                                                    ",
"                                                                                                    ",
"                                                                                                    ",
"                                                                                                    ",
"                                                                                                    ",
"                                                                                                    ",
"                                                                                                    ",
"                                                                                                    ",
"                                                                                                    ",
"                                                                                                    ",
"                                                                                                    ",
"                                                                                                    ",
"                                                                                                    ",
"                                                                                                    ",
"                                                                                                    ",
"                                                                                                    ",
"                                                                                                    ",
"                                                                                                    ",
"                                                                                                    ",
"                                                                                                    ",
"                                                                                                    ",
"                                                                                                    ",
"                              .                                  .                                  ",
"                             XXX                                X.X                                 ",
"                            X.XX.                              ..XXX.XX                             ",
"                         . XXX X                             . .XXXXXXX                             ",
"                     .   XXXXX  . X.                          XXXXX..XXXX                           ",
"                    XXX XXXXX. XXXXX.                        .XX  X.XXXXX                           ",
"                     XX.      X.XXXXX                         X  ..XXXX                             ",
"                      X   .  XXX.X X                              XXXX.                             ",
"                         XXX  XXX                               ..XXXXXX.                           ",
"                   XX.    XX.  X ..                            .XX.XXXXXXX..                        ",
"                   XX.     X     XX                            XXXXXXX.XX XXX                       ",
"                                 XX..                          XX.XX   X  .XX                       ",
"                             .. .. XX                             X         X                       ",
"                             XX XX XX                                . .                            ",
"                             XX XX                                    XXX                           ",
"                                                                     .XX                            ",
"                                                                      X                             ",
"                                                                                                    ",
"                                                                                                    ",
"                                                                                                    ",
"                                                                                                    ",
"                                                                                                    ",
"                                                                                                    ",
"                                                                                                    ",
"                                                                                                    ",
"                                                                                                    ",
"                                                                                                    ",
"                                                                                                    ",
"                                                                                                    ",
"                                                                                                    ",
"                                                                                                    ",
"                                                                                                    ",
"                                                                                                    ",
"                                                                                                    ",
"                                                                                                    ",
"                                                                                                    ",
"                                                                                                    ",
"                                                                                                    "
};
