/* XPM */
static char *out[] = {
/* columns rows colors chars-per-pixel */
"100 100 11 1 ",
"  c None",
". c #FC5842",
"X c #FCD64B",
"o c #EEE3F4",
"O c #F0E8F6",
"+ c #F3ECF8",
"@ c #E7F3F3",
"# c #F6F1F9",
"$ c #F9F5FB",
"% c #FCFAFD",
"& c white",
/* pixels */
"                                                                                                    ",
"                                                                                                    ",
"                                                                                                    ",
"                                                                                                    ",
"                                                                                                    ",
"                                                                                                    ",
"                                                                                                    ",
"                                                                                                    ",
"                                                                                                    ",
"                                                                                                    ",
"                                                                                                    ",
"                                                                                                    ",
"                                                                                                    ",
"                                                                                                    ",
"                                                                                                    ",
"                                                                                                    ",
"                                                                                                    ",
"                                                                                                    ",
"                                                                                                    ",
"                                                                                                    ",
"                                                                                                    ",
"                                                                                                    ",
"                                                                                                    ",
"                                                                                                    ",
"                                                                                                    ",
"                                                                                                    ",
"                                                                                                    ",
"                                                                                                    ",
"                                                                                                    ",
"                                                                                                    ",
"                                                                                                    ",
"                                                                                                    ",
"                                                                                                    ",
"                                                   &&&                                              ",
"                                                  &&&&                                              ",
"                                                 oo&&&                                              ",
"                                                ooo&&&                                              ",
"                                          oooooooo&&&&&                                             ",
"                                          ooooOOO&+&+++ .  X                                        ",
"                                          oo+++++++&+++.XXXX                                        ",
"                                          oo++++#+##&++XXXXX                                        ",
"                                       XXXo#######&#####XXX.                                        ",
"                                       XXXo###$$$$$&####&X.X                                        ",
"                                       XX.X###$$&&&&$$##&.XXX                                       ",
"                                       XXX&&&&&&&&&&&&%&###XXooo                                    ",
"                                     oo++&&&%%%&&&&&&&&&###&OOoo                                    ",
"                                  &&&&&+&$$$%%%%%&%%%%%%$##++Ooo                                    ",
"                                 &&&&&+&&$$$%%%%%%&&&%%%$##++Oo                                     ",
"                                &&&&&+&&&$$$&%%%%&&&&%%%$###++                                      ",
"                                 &&&&&+&#&$&&%%%&&&&&&%%$$#&&++&                                    ",
"                                  &&&+++#$$$%%%&&&&&&%%%&$##&++&&&                                  ",
"                                   oO+++##$$%%%&&&&&&%%%$$&#&&&&&&&                                 ",
"                                   ooO+###$$%%%&&&&&&%#%$$&#&&&&&&&&                                ",
"                                   ooO+###$$%%%%%%&&&%%#$$&#&&&&&&&&                                ",
"                                    oO+####&%%%%%%%%%%%#####++&& &&&                                ",
"                                   ooO+++&&.&%%%%%%%%%%#####++Oo                                    ",
"                                   ooo&&&X.&&$$$$%$%%%###&XXOOOo                                    ",
"                                       XX@X&&&$$$$$$#####XX                                         ",
"                                        XXX&&&###&$###++X@X                                         ",
"                                        XXX.OO########+++XX                                         ",
"                                        X  XO&##&&+###+++oX                                         ",
"                                          XXo&++&++&+++++o                                          ",
"                                             O&&&+&Ooooooo                                          ",
"                                             &&&&&ooooo                                             ",
"                                             &&&&oooooo                                             ",
"                                             &&&&&o ooo                                             ",
"                                              &&&                                                   ",
"                                               &                                                    ",
"                                                                                                    ",
"                                                                                                    ",
"                                                                                                    ",
"                                                                                                    ",
"                                                                                                    ",
"                                                                                                    ",
"                                                                                                    ",
"                                                                                                    ",
"                                                                                                    ",
"                                                                                                    ",
"                                                                                                    ",
"                                                                                                    ",
"                                                                                                    ",
"                                                                                                    ",
"                                                                                                    ",
"                                                                                                    ",
"                                                                                                    ",
"                                                                                                    ",
"                                                                                                    ",
"                                                                                                    ",
"                                                                                                    ",
"                                                                                                    ",
"                                                                                                    ",
"                                                                                                    ",
"                                                                                                    ",
"                                                                                                    ",
"                                                                                                    ",
"                                                                                                    ",
"                                                                                                    ",
"                                                                                                    ",
"                                                                                                    ",
"                                                                                                    "
};
