/* XPM */
static char *out[] = {
/* columns rows colors chars-per-pixel */
"100 100 12 1 ",
"  c None",
". c #FC5842",
"X c #FCD64B",
"o c #E5D6EF",
"O c #E8DAF1",
"+ c #EBDFF3",
"@ c #EEE3F4",
"# c #F0E8F6",
"$ c #F3ECF8",
"% c #E7F3F3",
"& c #F6F1F9",
"* c white",
/* pixels */
"                                                                                                    ",
"                                                                                                    ",
"                                                                                                    ",
"                                                                                                    ",
"                                                                                                    ",
"                                                                                                    ",
"                                                                                                    ",
"                                                                                                    ",
"                                                                                                    ",
"                                                                                                    ",
"                                                                                                    ",
"                                                                                                    ",
"                                                                                                    ",
"                                                                                                    ",
"                                                                                                    ",
"                                                                                                    ",
"                                                                                                    ",
"                                                                                                    ",
"                                                                                                    ",
"                                                                                                    ",
"                                                                                                    ",
"                                                                                                    ",
"                                                                                                    ",
"                                                                                                    ",
"                                                                                                    ",
"                                                                                                    ",
"                                                                                                    ",
"                                                                                                    ",
"                                                                                                    ",
"                                                   ***                                              ",
"                                                  ****                                              ",
"                                                   ***                                              ",
"                                                 o****                                              ",
"                                                 *****                                              ",
"                                                 o****+                                             ",
"                                          XXXoooo*****+ ...XXX                                      ",
"                                          o++###@@****+XXX%XXX                                      ",
"                                         .o++#####*****@@@%%XX                                      ",
"                                       XX@@$$$##$$$*$$$@@@XXXX                                      ",
"                                     XXXX@@$$$$$$$$*$$$@@@XXXX                                      ",
"                                    XXXXX@@$$$&&&&**&&&$$$*X.X                                      ",
"                                    XXXXXX@@&&&&&&&&&&&$$$*X%%X                                     ",
"                                    XXX%XXX@&&&&&&&&&&&$$**X@@@X                                    ",
"                                    .%X****X&&&&****&&**$*%@@@@ooo                                  ",
"                                    .+$$$**************&&&**@@@OOoo                                 ",
"                                  ++##$$&&***************&&&$$+OOO                                  ",
"                                *+**##$$&&&&*************&&&$$++O                                   ",
"                            ****+***#***&&&&*************&&&$$@++                                   ",
"                           *************&&&&&***********&&&&$$#@++                                  ",
"                            ************&&&&&***********&&&**$#*++O                                 ",
"                                *+*@##$$&&&&***********&&&&&*$*#**+O                                ",
"                                +++####$&&&&***********&&&&&&*$#**** *                              ",
"                                +++@###$&&&*************&&&&************                            ",
"                                +++@@#$$&&&*************&&&&*************                           ",
"                                 OO@@#$$&&&*************&&$$$***@********                           ",
"                                 OO@@@$$$$***$**&&*********@@@@@++o******                           ",
"                                ooO+++*$$$$$$&&&&&&&********@@@@++o                                 ",
"                                oooOO**$$$$**&&&&&&&&&&*$****XOOOOo                                 ",
"                                ooo XXXX.***$*&&&&&&&&&$$@***XXOOO                                  ",
"                                    X.X.X***$$&&&&&$&&&$$$@**XX                                     ",
"                                     XXXX***$$$*&&$$$$$$$$@XX                                       ",
"                                     XXX..XO#**$*$$$$$$$$$@XX                                       ",
"                                     XXXXX%OO***$**$$$$+++%XX                                       ",
"                                        XXXOO*****###@+++++                                         ",
"                                        XXX.o@***@@#@@@++++                                         ",
"                                             @@*@*+@@@@++++                                         ",
"                                             @@@*++O@@@                                             ",
"                                             ****+OOooo                                             ",
"                                             *****o ooo                                             ",
"                                             ****    oo                                             ",
"                                             ***                                                    ",
"                                             ***                                                    ",
"                                              *                                                     ",
"                                                                                                    ",
"                                                                                                    ",
"                                                                                                    ",
"                                                                                                    ",
"                                                                                                    ",
"                                                                                                    ",
"                                                                                                    ",
"                                                                                                    ",
"                                                                                                    ",
"                                                                                                    ",
"                                                                                                    ",
"                                                                                                    ",
"                                                                                                    ",
"                                                                                                    ",
"                                                                                                    ",
"                                                                                                    ",
"                                                                                                    ",
"                                                                                                    ",
"                                                                                                    ",
"                                                                                                    ",
"                                                                                                    ",
"                                                                                                    ",
"                                                                                                    ",
"                                                                                                    ",
"                                                                                                    ",
"                                                                                                    ",
"                                                                                                    "
};
