/* XPM */
static char *out[] = {
/* columns rows colors chars-per-pixel */
"100 100 12 1 ",
"  c None",
". c #FC5842",
"X c #FCD64B",
"o c #DDC8EA",
"O c #DFCDEC",
"+ c #E2D1EE",
"@ c #E5D6EF",
"# c #E8DAF1",
"$ c #EBDFF3",
"% c #EEE3F4",
"& c #E7F3F3",
"* c white",
/* pixels */
"                                                                                                    ",
"                                                                                                    ",
"                                                                                                    ",
"                                                                                                    ",
"                                                                                                    ",
"                                                                                                    ",
"                                                                                                    ",
"                                                                                                    ",
"                                                                                                    ",
"                                                                                                    ",
"                                                                                                    ",
"                                                                                                    ",
"                                                                                                    ",
"                                                                                                    ",
"                                                                                                    ",
"                                                                                                    ",
"                                                                                                    ",
"                                                                                                    ",
"                                                                                                    ",
"                                                                                                    ",
"                                                                                                    ",
"                                                                                                    ",
"                                                                                                    ",
"                                                                                                    ",
"                                                                                                    ",
"                                                                                                    ",
"                                                     **                                             ",
"                                                    ***                                             ",
"                                                   ***                                              ",
"                                                  ****                                              ",
"                                                 o****                                              ",
"                                                 oo***                                              ",
"                                         XX       ****+                                             ",
"                                        X&&X ##o *****+..XXX.XXX                                    ",
"                                        oo&Xo###$@****+X&XXX&XXX                                    ",
"                                     XXXoo$$$##$$*****$OO&XXXXXX                                    ",
"                                     XXX@@$$$$%%%$***%%$@@@XXXXX                                    ",
"                                   XXXX&@@$%%%%%%%%%%%%$$$$.XXXX                                    ",
"                                 XXX.X.X@@@%%%%%%%%%%%$$$$$&XXXX                                    ",
"                                 XXXXXXXX@*%%%%%%%%%%%$$$$$&&XXXX                                   ",
"                                 XXX&XXXX.****%%%%%%%$$$$$**&&.XXX                                  ",
"                                 .&X&XXXXX*****%%%%%********&X.&&X                                  ",
"                                 .X&X.XXXXX*****X.**********X.&@@.                                  ",
"                                 ..$$*********************%%%**@@. oo                               ",
"                                   $$$**********************%*%%$.OOoo                              ",
"                                ###%%%%%%*******************%%%%$$OOO                               ",
"                              o#***%%%%%%*******************%%%%$$$O                                ",
"                          *********%%%%%%*******************%%%%$$+O                                ",
"                       *************%%%%%%******************%%%%%#++O+                              ",
"                      ***************%%%%.****************.%%%%%$$@+++O                             ",
"                       ****   +#****%%%%%..*************** %%%%%%*@@++OO                            ",
"                             ++####$%%%%%.****************X%%%%%%%**+*OO                            ",
"                             ++####%%%%%*******************&%%%%%%******                            ",
"                            O+++@O#%%%%%*******************$%%%%%%********                          ",
"                             oo@@@#%%%%%*******************X$$%%%**********                         ",
"                              O@@@#$%%%%*******************&X$$$###**********                       ",
"                              O@@@@$%%%*********************XX@@@@+++   ******                      ",
"                              OO+++$$$***********************@@@@@+++       **                      ",
"                               OOO*$$$************..**********XX@@ooo                               ",
"                              o  OO$$$$$X*******%..************XX  Oo                               ",
"                             ooo **$$$XX*****$.%%% X%%****@****XX OOO                               ",
"                                  .&XXXX****$$%%%%%%%%%****@***XX                                   ",
"                                  XXXXXX***$$%%%%%%%%%%%$$*@XXXX                                    ",
"                                  XXX&.X&&X$$%%%%%%%%%%%$$$@XXX                                     ",
"                                  XXX..&XXX$$*%%%%%%%%%%$$$&XXX                                     ",
"                                      XX&&OOO**%%%%$$$$+*$$XXXX                                     ",
"                                      XXXXOOoO***%#$$$$++++o                                        ",
"                                      XXX..  *****@##@+++++o                                        ",
"                                             *****+@@@o  ++                                         ",
"                                             ****++@@@oo                                            ",
"                                             ***+++O@@oo                                            ",
"                                             *** OOO  oo                                            ",
"                                             ***      oo                                            ",
"                                             ***                                                    ",
"                                             ***                                                    ",
"                                            ****                                                    ",
"                                            ***                                                     ",
"                                             *                                                      ",
"                                                                                                    ",
"                                                                                                    ",
"                                                                                                    ",
"                                                                                                    ",
"                                                                                                    ",
"                                                                                                    ",
"                                                                                                    ",
"                                                                                                    ",
"                                                                                                    ",
"                                                                                                    ",
"                                                                                                    ",
"                                                                                                    ",
"                                                                                                    ",
"                                                                                                    ",
"                                                                                                    ",
"                                                                                                    ",
"                                                                                                    ",
"                                                                                                    ",
"                                                                                                    ",
"                                                                                                    ",
"                                                                                                    ",
"                                                                                                    "
};
