/* XPM */
static char *out[] = {
/* columns rows colors chars-per-pixel */
"100 100 13 1 ",
"  c None",
". c #D42A41",
"X c #FC5842",
"o c #FCD64B",
"O c #DAC4E8",
"+ c #DDC8EA",
"@ c #DFCDEC",
"# c #E2D1EE",
"$ c #E5D6EF",
"% c #E8DAF1",
"& c #EBDFF3",
"* c #E7F3F3",
"= c white",
/* pixels */
"                                                                                                    ",
"                                                                                                    ",
"                                                                                                    ",
"                                                                                                    ",
"                                                                                                    ",
"                                                                                                    ",
"                                                                                                    ",
"                                                                                                    ",
"                                                                                                    ",
"                                                                                                    ",
"                                                                                                    ",
"                                                                                                    ",
"                                                                                                    ",
"                                                                                                    ",
"                                                                                                    ",
"                                                                                                    ",
"                                                                                                    ",
"                                                                                                    ",
"                                                                                                    ",
"                                                                                                    ",
"                                                                                                    ",
"                                                                                                    ",
"                                                                                                    ",
"                                                                                                    ",
"                                                                                                    ",
"                                                     ==                                             ",
"                                                    ===                                             ",
"                                                    ===                                             ",
"                                                   ===                                              ",
"                                                 O====                                              ",
"                                                 O====                                              ",
"                                         oo        ===@                                             ",
"                                        o**o$$$  O====@  X .o.XXX                                   ",
"                                        o**o$$$$#=====@XoXooooXXX                                   ",
"                                    ooooOOXX$$$#%$===&&&o***oooXX                                   ",
"                                    ooooOo@%%&&&&%%&&&&&+###oooXX                                   ",
"                                  XXoooo###&&&&&&&&&&&&&####XoooX                                   ",
"                                  XXXooX##=&&&&&&&&&&&&%%%%#*oooX                                   ",
"                                oooXoooX#==&&&&&&&&&&&%%%%%o**ooXX                                  ",
"                                 o*oooooO====&&&&&&&===%%%%o***Xooo                                 ",
"                                 oo*ooooX=====&&&&=====%====o*oXooo                                 ",
"                                 oo*Xooooo=====&o===========ooX**oo                                 ",
"                                XXooXoooooX=====o==========&&&o*##X                                 ",
"                                   XX=====================&====###X                                 ",
"                                 $%&&==========================&&&= OO                              ",
"                               $$$&&&&&=======================&&&&O++O                              ",
"                             O$$=&&&&&&======================&&&&&%++                               ",
"                      =   ========&&&&&=======================&&&&#                                 ",
"                     ==============&&&&&=====================&&&&&&$++                              ",
"                     ==============%&&& ==================X &&&&&&%$++@                             ",
"                       ====   +$==#&&&&& ================== &&&&&&&$#@@+                            ",
"                             @$$$##&&&&XXX==================&&&&&&&&#=+++                           ",
"                            +@$$$$#&&&XXX===================o&&&&&&&====                            ",
"                           +@@@ $$&&&&&=X====================%&&&&&&======                          ",
"                             O #$$&&&&&======================%%&&&=========                         ",
"                             O##$$&&&&&======================%%%&&$==========                       ",
"                             +#####&&&======================*oo###$$@   ======                      ",
"                             +++@o=%%========================o#####@@@      ===                     ",
"                               @@@=%%==============X==========o#### OO       ==                     ",
"                             O++++=%%===o==========XX==========oooXO+O                              ",
"                             OO +==%%%*o========== X======o====ooo +++                              ",
"                             O   X.oXooo====X===X X==&=====#===Xoo  ++                              ",
"                                 X.ooooo===$%$&&&  o&&&====##==oo                                   ",
"                                  Xooooo==o$%&&&&&%&&&&&===##ooo                                    ",
"                                  XXX.oo**o$%&&&&&&%&&&&&%%##ooo                                    ",
"                                  X  .Xooo+$$&&&&&&&%&&&&%%oooXX                                    ",
"                                     XoooX++  &&&&&&%%&&&X.XXXXX                                    ",
"                                     XXX..+OO==&&&&%%%%=@=@O                                        ",
"                                             ====&$$$$@@@@@@                                        ",
"                                            +====@@$$$#O  @@                                        ",
"                                             ===@@@####O                                            ",
"                                             ===@@@+###O                                            ",
"                                             === ++   OO                                            ",
"                                             ===      OO                                            ",
"                                             ===                                                    ",
"                                            ====                                                    ",
"                                            ===                                                     ",
"                                            ===                                                     ",
"                                            ===                                                     ",
"                                             =                                                      ",
"                                                                                                    ",
"                                                                                                    ",
"                                                                                                    ",
"                                                                                                    ",
"                                                                                                    ",
"                                                                                                    ",
"                                                                                                    ",
"                                                                                                    ",
"                                                                                                    ",
"                                                                                                    ",
"                                                                                                    ",
"                                                                                                    ",
"                                                                                                    ",
"                                                                                                    ",
"                                                                                                    ",
"                                                                                                    ",
"                                                                                                    ",
"                                                                                                    ",
"                                                                                                    ",
"                                                                                                    "
};
