/* XPM */
static char *out[] = {
/* columns rows colors chars-per-pixel */
"100 100 13 1 ",
"  c None",
". c #D42A41",
"X c #FC5842",
"o c #FCD64B",
"O c #D4BAE5",
"+ c #D7BFE7",
"@ c #DAC4E8",
"# c #DDC8EA",
"$ c #DFCDEC",
"% c #E2D1EE",
"& c #E5D6EF",
"* c #E7F3F3",
"= c white",
/* pixels */
"                                                                                                    ",
"                                                                                                    ",
"                                                                                                    ",
"                                                                                                    ",
"                                                                                                    ",
"                                                                                                    ",
"                                                                                                    ",
"                                                                                                    ",
"                                                                                                    ",
"                                                                                                    ",
"                                                                                                    ",
"                                                                                                    ",
"                                                                                                    ",
"                                                                                                    ",
"                                                                                                    ",
"                                                                                                    ",
"                                                                                                    ",
"                                                                                                    ",
"                                                                                                    ",
"                                                                                                    ",
"                                                                                                    ",
"                                                                                                    ",
"                                                                                                    ",
"                                                                                                    ",
"                                                     ==                                             ",
"                                                    ===                                             ",
"                                                    ===                                             ",
"                                                    ===                                             ",
"                                                   ===                                              ",
"                                        XX       O====                                              ",
"                                       XoXX $    O====                                              ",
"                                       oooX $$    @===@@...XXX.XXX                                  ",
"                                     XXX... $OO#$O@$= @ .XoXXXoXXX                                  ",
"                                   XXXXXoo%%%++%%$%%$&&..oooXooXXX                                  ",
"                                   XXXXOO@%%%%&&&&%%&&&X++o##**oXX                                  ",
"                                 XXXX.o##*%%%*&&&&&&&&&$++###XoooX                                  ",
"                               XXX..X.X#*o=&&&&&&&&&&%&%%%%%o***oX                                  ",
"                               XXXoooooXOO=&&=&&&&&&X===%*%%oo*oX.                                  ",
"                               XXoooooXoO=====&&&&&&====%oo%ooooX.XXX                               ",
"                               .oo*ooo*oo=====&=X o=====ooo==ooXXoXXX                               ",
"                               .Xo*oooooo======oXo=====o=====ooooooXX                               ",
"                               ...oX*ooooo=====Xo===========XoXoXo##.                               ",
"                                  .X===ooXo=====X===========ooXooX##.                               ",
"                                 %%%======o=====================&&&..  O                            ",
"                               $%%%%=======o==========**========&&&=  +O                            ",
"                            $$O$&&&%==================*=========&&&%%++                             ",
"                           @$$$$&&&&=============================%%%%=                              ",
"                     ==   =====$ $&&=================o==========%&&&%$                              ",
"                    ===========   &&&======================oX X &&&&$$                              ",
"                   ============# &&&& ====================*o   &&&&&%$++                            ",
"                   ==  ==== ++###&&&&   ===================o  &&&&&%&@@+@+                          ",
"                            +#@@#&&&&  XXX==o===============o    &&&&%@@@+                          ",
"                            $####&%%XXXXX====oX===============  &&&&&%#= +                          ",
"                          +@$$##&&& XXoXo======================X&&&&&%====                          ",
"                          @@@  +&&&&=X*X============o==*========&&&&%======                         ",
"                           O + $&&&&==X======o=====X====oo======%&&&$@=======                       ",
"                           OO#$$%%&&&=======oo==========*===X===%%X##$# =======                     ",
"                            ####%%&&=========================*o*XX.o$$$     ====                    ",
"                            ##@#o%%================*==========oooo#o#@@      ====                   ",
"                             +@@=%%=====o==========oX==========oo#### @        ==                   ",
"                             +++=%%===%o==========o XX====o====ooXX #OO                             ",
"                            O =++%%%%%oo=========  XXX=====*===ooXX OO+                             ",
"                           OOO==.%%ooo**===o====    o======oo===.XX  ++                             ",
"                                .oXoooo===oX===&   X========oo===X                                  ",
"                                XXooooX===X%. &&&   o=&&====#oo==X                                  ",
"                                XXXo.Xo==o.%% &&&&  o&&&&==%##XXX                                   ",
"                                XXX..oo**o$%%%&&&%%%&&&&&o%%XXXXX                                   ",
"                                    XXooo.+%%$&&&&&%%&&&&%%%XXXXX                                   ",
"                                    XXXoX.+++%&&&&&%%%&&&=  O                                       ",
"                                    XXX..   +==&&&&%%%%@@= @O                                       ",
"                                            +===# @$$$#@@@@@                                        ",
"                                            +===  @$$$#                                             ",
"                                             ===@@ +$O#OO                                           ",
"                                            #===@@+++##OO                                           ",
"                                             === ++    O                                            ",
"                                            ====      OOO                                           ",
"                                            ===                                                     ",
"                                            ===                                                     ",
"                                            ===                                                     ",
"                                            ===                                                     ",
"                                            ===                                                     ",
"                                             =                                                      ",
"                                                                                                    ",
"                                                                                                    ",
"                                                                                                    ",
"                                                                                                    ",
"                                                                                                    ",
"                                                                                                    ",
"                                                                                                    ",
"                                                                                                    ",
"                                                                                                    ",
"                                                                                                    ",
"                                                                                                    ",
"                                                                                                    ",
"                                                                                                    ",
"                                                                                                    ",
"                                                                                                    ",
"                                                                                                    ",
"                                                                                                    ",
"                                                                                                    "
};
