/* XPM */
static char *out[] = {
/* columns rows colors chars-per-pixel */
"100 100 13 1 ",
"  c None",
". c #D42A41",
"X c #FC5842",
"o c #FCD64B",
"O c #CBADE0",
"+ c #CEB1E2",
"@ c #D1B6E3",
"# c #D4BAE5",
"$ c #D7BFE7",
"% c #DAC4E8",
"& c #DDC8EA",
"* c #E7F3F3",
"= c white",
/* pixels */
"                                                                                                    ",
"                                                                                                    ",
"                                                                                                    ",
"                                                                                                    ",
"                                                                                                    ",
"                                                                                                    ",
"                                                                                                    ",
"                                                                                                    ",
"                                                                                                    ",
"                                                                                                    ",
"                                                                                                    ",
"                                                                                                    ",
"                                                                                                    ",
"                                                                                                    ",
"                                                                                                    ",
"                                                                                                    ",
"                                                                                                    ",
"                                                                                                    ",
"                                                                                                    ",
"                                                                                                    ",
"                                                                                                    ",
"                                                                                                    ",
"                                                      ==                                            ",
"                                                     ===                                            ",
"                                                    ===                                             ",
"                                                    ===                                             ",
"                                                    ===                                             ",
"                                      XX            ===                                             ",
"                                     XooX        OO  =       XX                                     ",
"                                     XooX  $$    OO         XooX                                    ",
"                                 X  XXX... $      @@  @@    XooXXXX                                 ",
"                                 XXXXXXXX.oOoOO%%%%%$  &..XXXXXooXX                                 ",
"                                 XXXXXXOO%%OO++$%%%%$+&&.XooX...XXX                                 ",
"                                 .XX.oXOO%XX*+&&&&&&&%%&++**o.XoXXX                                 ",
"                                XXXX..##O@&@Xo&#&&&&+ %%$+**##oooXX                                 ",
"                             XXX.XXXX.#oo@&&=&& &&&& ===%%o%%#Xooo.                                 ",
"                             XXXXoooooo===&==&$$  % ====o%oo%ooooX..XXX                             ",
"                             XXXooooooo=======$    o====Xoooooo*ooXoXXX                             ",
"                             .oXoooooooo=====Xoo   =====ooo==oo**XoooXX                             ",
"                             .XoXXooooXo======**o X=====oo====Xoo*oooo.                             ",
"                             ....XXooo*oo=====**o =====XX=====ooooXXoX.                             ",
"                                .XX=o**ooo=====*o======o=====X&&ooXX##                              ",
"                                ..=====oooo===**o======**===o&&====X##                              ",
"                              %% .======ooo*=XooX======o**=X========&&                              ",
"                             $%% .o======o**oooXX=====*oo*o========&&&  O                           ",
"                          $  &&% &==========ooo*oX====XXoX========%=&&%+O                           ",
"                         $$$ &&&&=============***XX==*oXo**=== ====%=%%%+                           ",
"                     ==  @$$O&&&&&=============*o oooXXXo***=o  ==  $%&                             ",
"                  =======@@ OO &    ===========o   oo*oXXoooo       %&&$                            ",
"                 =========OO  &&&     ========XX    oXX==XX          %$$$                           ",
"                =====  ==   #  &        =====XX    ooX=====        &%%%$$                           ",
"                ==        ++## &&         Xo*ooX   oo=======X     &&&%%%++@                         ",
"                          +#@  &&     XXXXXo**ooo ooo=========o      &%%#@@+                        ",
"                         $ ##@%%%     XoXXo***oX*oXoo*===========   &&%&#@++                        ",
"                        @$$###O%%  XXXXXXXoXXXo==*Xo***X==========  &&&&$@                          ",
"                        @@ @  & $XXXXXX=oXXXo*====X***ooX*=========  &&$$   =                       ",
"                        ++    &&$$oXXX===oXX**=====o*oooo***o======X&&& @  ====                     ",
"                          O+$X&&$$XX======Xoo======XXooooooo*Xo====%$&&##   ====                    ",
"                          #+$$%&&========oooo======XXXoooX***=oooo%%.o##$    =====                  ",
"                          ## #%&========o=ooo======X***X=Xoo===**oXo.oO$$      ====                 ",
"                          ++@ O%======oo===oo=====XX***===X====**ooo#XX@@       ====                ",
"                           +@@%%%o===*oo=========   o*=====o===oooo## #           ==                ",
"                           +++======oooo===*====    Xo=====oo===oooXX##OO                           ",
"                          O  +=%===%ooo===oo=====    XX=====oo===XXX  OO+                           ",
"                          OO ==%%=XXoo====oo====      o*====o*===XXX   ++                           ",
"                               %oXXXoo===o..===      X*=*===ooo===XX                                ",
"                               XXXXXXX===...====      ===.===X#===XX                                ",
"                                   Xoo==X.. ===       o======##.==X                                 ",
"                                   oXooX $%$  &&       &%=o==XXooX                                  ",
"                                   XoXX  $%%$ & $$   %&&&=  %  XX                                   ",
"                                   XXoX  ++O+&&&$$%%%%%&&&=%%%                                      ",
"                                            +&&&  %%%%%@&&= @O                                      ",
"                                            +%&&&&@$%%%%@@=@@                                       ",
"                                            +%%#&&@$$##O                                            ",
"                                            #=      $$OOO                                           ",
"                                            === @@++$$#OO                                           ",
"                                            ===  ++++## O                                           ",
"                                            ===        OO                                           ",
"                                            ===                                                     ",
"                                            ===                                                     ",
"                                            ===                                                     ",
"                                            ===                                                     ",
"                                            ===                                                     ",
"                                           ====                                                     ",
"                                           ===                                                      ",
"                                            =                                                       ",
"                                                                                                    ",
"                                                                                                    ",
"                                                                                                    ",
"                                                                                                    ",
"                                                                                                    ",
"                                                                                                    ",
"                                                                                                    ",
"                                                                                                    ",
"                                                                                                    ",
"                                                                                                    ",
"                                                                                                    ",
"                                                                                                    ",
"                                                                                                    ",
"                                                                                                    "
};
