/* XPM */
static char *out[] = {
/* columns rows colors chars-per-pixel */
"100 100 13 1 ",
"  c None",
". c #D42A41",
"X c #FC5842",
"o c #FCD64B",
"O c #C9A8DE",
"+ c #CBADE0",
"@ c #CEB1E2",
"# c #D1B6E3",
"$ c #D4BAE5",
"% c #D7BFE7",
"& c #DAC4E8",
"* c #E7F3F3",
"= c white",
/* pixels */
"                                                                                                    ",
"                                                                                                    ",
"                                                                                                    ",
"                                                                                                    ",
"                                                                                                    ",
"                                                                                                    ",
"                                                                                                    ",
"                                                                                                    ",
"                                                                                                    ",
"                                                                                                    ",
"                                                                                                    ",
"                                                                                                    ",
"                                                                                                    ",
"                                                                                                    ",
"                                                                                                    ",
"                                                                                                    ",
"                                                                                                    ",
"                                                                                                    ",
"                                                                                                    ",
"                                                                                                    ",
"                                                                                                    ",
"                                                                                                    ",
"                                                      ==                                            ",
"                                                     ===                                            ",
"                                                    ===                                             ",
"                                                    ===                                             ",
"                                                    ===                                             ",
"                                      XX             =       XX                                     ",
"                                     XXXX         OO        XooX                                    ",
"                                     XooX  $$     O         XooXXXX                                 ",
"                                 XXXXXXX.XX$XO   +@@  @@  XXXoXooXX                                 ",
"                                 XXXXXooX%XOo++%%%%%# &&.XooXX...XXX                                ",
"                                 XXXXXOOX%%OO&&&&%%%#%%&.o**o..XoXXX                                ",
"                                 .X..XOO@%@@o&&&&& && %@++**o.XXooXX                                ",
"                            XXX.XXX..##oo&&&o@&#&&&&& ===+oo##XXXoo.                                ",
"                            XXXoXXXoo#XX*=&==&& &&&&o====%%o%%ooooX.                                ",
"                            XXoXXXooooo======&$$  %o=====%ooo%oo*oX..XXX                            ",
"                            .oXoXXooooO======o$    o====Xoooo=oooXoXoXXX                            ",
"                            .XXo.ooooooo=====**o  X=====*oo====XoXoXooXX                            ",
"                            ...X.XXooooo======*o   =====XX=====ooXXXooo.                            ",
"                               ...Xoooooo=====*oX =====Xo*====XoooXXX#X.                            ",
"                               ...==o*oooo===oooX======X*====oo&&X.o##.                             ",
"                               ..======ooo*=XoXXo=====*oo*=*Xo&=====X                               ",
"                             %% .=======o***Xo*oXX====o*oo*o=========X                              ",
"                            &%%%  X=====***oooXXXo ==*oXXoX=========&&  O                           ",
"                         $  &&  ==========oooo*oX  Xoo*oXXo*========&& %+O                          ",
"                         $$ &@ =============o***X  oooXXXX***=o== ===$%%+                           ",
"                     ==  $$ @@&&=============**o    oo*oXoo**oo     $$@&                            ",
"                  ======@ OOOO&     =========Xo      oXXoXoX o      O%&&                            ",
"                ======= @@O   &&      ======oX       oXX            %%% $                           ",
"               ======       # &         ===o        ooXXX==         &%%$$                           ",
"               ===        + ##&&         Xo*oX     oooXX==== X     &&$$%++                          ",
"                          ++@ &      XXX X***oX    ooo*=======oo     +%%$@@+                        ",
"                          # @@&&     XXXXoo***Xo   oooX==========   OO&%& @++                       ",
"                        $@###O%     XXoXoooo*oX*o  Xoo*o==========   &&&& @                         ",
"                        $$####%%XXXXXXXX*XXXXXX**X oo***XX========== &&@&@@                         ",
"                       +@@   &+$XoXXXX=ooXXo*oo==X X***ooX***========%&%$    ==                     ",
"                          O $&&$$*XX====oXX***==== Xo*oooo***oo======&&&@#  ====                    ",
"                         OO+$%o&$=X======ooo**=====XXXooooooo*XXoo===XX##$   =====                  ",
"                          #+#%&&&=======ooooo======XXXXoooX***oX**oXXX##$$     ====                 ",
"                         +####%=======ooooooo===== Xo**o=*Xoo=oX**oXXXO++$      ====                ",
"                         + +@O%%=o===oooX=Xo=====  Xo**===XX===ooooo# # @@        ===               ",
"                           +@@%=====*ooo===*====    o*=====oo===*oo####O           ==               ",
"                           ++======oo*o===o*=====    oo=====oo===oooX OOO                           ",
"                         OO ==%===%ooo====oo====     .XX====oo===XXX    +                           ",
"                         OO ==%%=XXooo===oXX===       Xoo===.Xo===.X   ++                           ",
"                               ooXXXo====XX=====     .Xo=X===.#===XX                                ",
"                               XXXXXX===.X ====       X======##X===                                 ",
"                                  oXXooX $ ===&       X===o===..X==                                 ",
"                                  XoXooX $%$  &&       &%=  =%                                      ",
"                                  XXoXX  +%%$ & $$ ##%&&&&= %%                                      ",
"                                          O +&&&$$%%%%%&&&= O%                                      ",
"                                            +&&&  %%%%%%O&= @O                                      ",
"                                           ++%&&&&@$$%%%@@= @@                                      ",
"                                           ++%%#&&@$$##O                                            ",
"                                            #   @@ +$$OOO                                           ",
"                                            #=  @@++$$#OO                                           ",
"                                            ===  ++   #OO                                           ",
"                                            ===         O                                           ",
"                                            ===                                                     ",
"                                            ===                                                     ",
"                                            ===                                                     ",
"                                            ===                                                     ",
"                                           ====                                                     ",
"                                           ===                                                      ",
"                                           ===                                                      ",
"                                            =                                                       ",
"                                                                                                    ",
"                                                                                                    ",
"                                                                                                    ",
"                                                                                                    ",
"                                                                                                    ",
"                                                                                                    ",
"                                                                                                    ",
"                                                                                                    ",
"                                                                                                    ",
"                                                                                                    ",
"                                                                                                    ",
"                                                                                                    ",
"                                                                                                    "
};
