/* XPM */
static char *out[] = {
/* columns rows colors chars-per-pixel */
"100 100 13 1 ",
"  c None",
". c #D42A41",
"X c #FC5842",
"o c #FCD64B",
"O c #C6A4DD",
"+ c #C9A8DE",
"@ c #CBADE0",
"# c #CEB1E2",
"$ c #D1B6E3",
"% c #D4BAE5",
"& c #D7BFE7",
"* c #E7F3F3",
"= c white",
/* pixels */
"                                                                                                    ",
"                                                                                                    ",
"                                                                                                    ",
"                                                                                                    ",
"                                                                                                    ",
"                                                                                                    ",
"                                                                                                    ",
"                                                                                                    ",
"                                                                                                    ",
"                                                                                                    ",
"                                                                                                    ",
"                                                                                                    ",
"                                                                                                    ",
"                                                                                                    ",
"                                                                                                    ",
"                                                                                                    ",
"                                                                                                    ",
"                                                                                                    ",
"                                                                                                    ",
"                                                                                                    ",
"                                                                                                    ",
"                                                                                                    ",
"                                                      ==                                            ",
"                                                     ===                                            ",
"                                                    ===                                             ",
"                                                    ===                                             ",
"                                                 OO  =                                              ",
"                                     XX          OO           XX                                    ",
"                                    XXXX                     XXXX                                   ",
"                                    XoXXX  $$              XXXooXXX                                 ",
"                                 XXXoXooXXX$     O@#+  @@.XXXXoXooX                                 ",
"                                 XXXoXooX%%OX+@%%$%%#+&&&.XooX...XXX                                ",
"                                 oXo.XOO@%@OX&&&&%%%#%%& .XooX.XoXXX                                ",
"                               XXX..X##O@@@@X&#&%%&&& %==++o##.XXXXX                                ",
"                               XXXooo##Xo&&=X ##&&&&&o===++o##ooXXX.                                ",
"                            XXoXXXooo*==o&===&& &&%%*====%%o%%oooXX.                                ",
"                            XoXXXXoooo=======&$$  %o=====X%oo%oooXXXoXX                             ",
"                            oXo.oXooooO=====o*$o  Xo====o*ooo=oooo.XooX                             ",
"                            XXo.XXooooOO=====**oX  =====XXX====ooo.Xooo                             ",
"                              X...oooooo======*o  X=====Xo=====oooXX.XX                             ",
"                                ..oo*ooo*====ooXX =====*X*====oXooXXXX                              ",
"                                .X==*ooooX==XXX*oX ===o*oo*==Xoo*X.oX##                             ",
"                             %  X======oo*oXo*oX*X X=*oo*oo*oXX======##                             ",
"                             %% X=======**oooXXXoo oo**oXXoXXX========&                             ",
"                            $%%  XX====***ooo*oXo   oo*oXXXoo========&&                             ",
"                        $  &$  ========o*ooo***X    XoXXooo***========  %O                          ",
"                        $$ && ===========oX***oo    oo***Xo****==  ====%%O                          ",
"                     =   $  @@&===========Xo*oo      oo*oXXoooo     ==$&+                           ",
"                  ===== @$$O@@      =======XXo        oXX X X       O$&&&                           ",
"                ======  @@OO &        ====X                          %%# $                          ",
"               ======    O   &&         =             oXX            &#%$$                          ",
"              ====         #  &         XXXXX        ooXXX =        &&%%%                           ",
"              ==         ++##&&&        Xo*ooX      oooXXX====X      &$%%++@                        ",
"                         +#@@&&&    XXXXX***ooo     ooooo========    O+&$@@@+                       ",
"                        $###@%%     XXoXoo***XoX    oooXXX========   O&&#&@ +                       ",
"                       @$$###%%  ..XXX*XoXXXoX*o    Xoo*oXo=========   &&&@                         ",
"                       @@ @ &+.$..XXXXXXoXo*o***X   oo***XX**======== &&$$    =                     ",
"                       +    &&+$$.XX=XXoXX***o*=X   X***ooX***o======$$&@    ===                    ",
"                         OO$&oo$$XX===Xoooo***===   Xo*oooooooooX*====&&##    ====                  ",
"                         O+$$%&.=.=====ooooo*===== XXXXooooXo**XXoo%==X##$     ====                 ",
"                         ##+#%&&======ooooooX====  XoXXXoooX***oX**o.oXO$$      =====               ",
"                         #++#%===%===ooooooo=====  XXo**o=*Xoo=oX**oX# O@@        ====              ",
"                           @@%%=====oooo=XXo====     o**===XX===oooX## # @         ===              ",
"                          ++O======*ooo===X*=====    o*=====oo===.XXX ##O                           ",
"                         O+++=====oo*o====**====     Xoo====oo===..X   OOO                          ",
"                         OO ++%==ooooo===ooo===      ..XX===ooo===XX    ++                          ",
"                            =%%%XXooo====.X=====      XooX===Xo===XX    ++                          ",
"                              XXXXXXX===.X ====      .Xo=X===.#X===                                 ",
"                                XXX..==X   ===        X===X===#.===                                 ",
"                                  ooXooX $%== &       X%== ===XXX==                                 ",
"                                  XooXX +$%%$&&&$$     &=== =%                                      ",
"                                  XXoX  ++O$+@  $$%%# &&=&= %%                                      ",
"                                           +@&&$  %%%%%O&&=  O                                      ",
"                                            @&&&  @%%%%%@@@ @@                                      ",
"                                           +@%&&&&@$$$%%@@@ @@                                      ",
"                                            +%% && $$$##OO                                          ",
"                                            #   @@ +$$#OOO                                          ",
"                                            #=  @@+++ ##O                                           ",
"                                            ===         OO                                          ",
"                                            ===                                                     ",
"                                            ===                                                     ",
"                                            ===                                                     ",
"                                            ===                                                     ",
"                                           ====                                                     ",
"                                           ===                                                      ",
"                                           ===                                                      ",
"                                            =                                                       ",
"                                                                                                    ",
"                                                                                                    ",
"                                                                                                    ",
"                                                                                                    ",
"                                                                                                    ",
"                                                                                                    ",
"                                                                                                    ",
"                                                                                                    ",
"                                                                                                    ",
"                                                                                                    ",
"                                                                                                    ",
"                                                                                                    ",
"                                                                                                    "
};
