/* XPM */
static char *out[] = {
/* columns rows colors chars-per-pixel */
"100 100 13 1 ",
"  c None",
". c #D42A41",
"X c #FC5842",
"o c #FCD64B",
"O c #C09BD9",
"+ c #C39FDB",
"@ c #C6A4DD",
"# c #C9A8DE",
"$ c #CBADE0",
"% c #CEB1E2",
"& c #D1B6E3",
"* c #E7F3F3",
"= c white",
/* pixels */
"                                                                                                    ",
"                                                                                                    ",
"                                                                                                    ",
"                                                                                                    ",
"                                                                                                    ",
"                                                                                                    ",
"                                                                                                    ",
"                                                                                                    ",
"                                                                                                    ",
"                                                                                                    ",
"                                                                                                    ",
"                                                                                                    ",
"                                                                                                    ",
"                                                                                                    ",
"                                                                                                    ",
"                                                                                                    ",
"                                                                                                    ",
"                                                                                                    ",
"                                                                                                    ",
"                                                                                                    ",
"                                                                                                    ",
"                                                                                                    ",
"                                                      ==                                            ",
"                                                     ===                                            ",
"                                                    ===                                             ",
"                                                     =                                              ",
"                                    XX           O            XX                                    ",
"                                   XXXX         OOO           XXX                                   ",
"                                   XooXXXXX$     O @   @   XX ooXXXX                                ",
"                                XXoXXXXXXXo$$     ##   @@ XoXXooXXXX                                ",
"                                XXXXXXX..ooo   %$$%%## && XXooXXXoXX                                ",
"                                oXooXXoX%%oo++#%%$%%##  & .XooXXXooX                                ",
"                               XXooXXXoo%@@O+&&&&%%&&+%%==.XX#..XXXoX                               ",
"                              XXXXX.##OO@@=Oo&#&$&&+&+%===+XX##oXXXXX                               ",
"                           XXoXXXXXX##Oo*&&=&&$  && ++===%%o*%%ooXXXo                               ",
"                           XooXXXXoXXo===&==&&$  %  X====%%oo%%oo.XXXXoXX                           ",
"                           ooX.o.XXXXo=======*X    .=====Xoooo*XoXo.oXooX                           ",
"                           XXX.XXXX.ooO=====*oo     ====oXXXo=oooooooXooo                           ",
"                             ...XXXoooOO====XoXX   =====*Xo====oooooXX.XX                           ",
"                               XXXoooooo===Xoo*oX   ===ooX======o*oo.o.                             ",
"                               o.oooXooo*=XoXX**X   .=**ooo=====o**X.XX                             ",
"                               X.X==Xoo**oooXXXoo   Xoo**ooo=oXXX&oX==#                             ",
"                               X.=====***ooo*oXo     Xoo*oooXXX========#                            ",
"                            %%  =======*ooo***X      X*oXXXXXo=========X&                           ",
"                            %%  ==.===XXoX***oo      oo***X*o**======XX&&                           ",
"                          &$%==========**Xo*oo        oo*oXoo****o. ==                              ",
"                       $  &&===========ooXXXo          oXXXXXoooo  ====  %O                         ",
"                       $$   @==========o*XoX                X X     ====%%O                         ",
"                  ==   $$  @@&&     ==XXXo                           =$$=&                          ",
"                =====  $$ O@&                                          %&&                          ",
"               =====  @@OOOO&&                                        %%# $                         ",
"              ====      OO  &                          oXX            &%%$$                         ",
"             ===          ##&&         XXX            oo*oX          &&$%%                          ",
"             ==          +##&         XXo*oX         oooXXX  XX==     $$%%+@@                       ",
"                         +@@&&#    XXXoX***oo        Xoo*oXoXX====o   O+&$@@@                       ",
"                       $####%%     XXXooo***Xo       oo***XX*=======  O&&#&                         ",
"                      $$####%%  .XXXoXXooo*oXoX      X**XXoXoo=======   &&&@                        ",
"                      @@@@@OO $..XoXXXXXXXXX**o      Xoo*oXX***====== @&&$$@                        ",
"                      @@   &XX$$.XXXXoXXo*oo***X     Xo***XX****oo=====$&       ==                  ",
"                        OO$&&o$$XoXXXooX***oo*oX     XX***oooooooXoo====&@#    ====                 ",
"                        O+$$%&$.XoX=ooooo***XXX     oXXoo*oooX***XXX%===##$     =====               ",
"                        ##+#%&&=Xo===ooooo*oX*=     XXXXXoooo***oo.oX.XO#$$       ====              ",
"                        #++#@o======ooooooXXX===    XXo**oX*Xo*ooo.oX.XOO@@        ===              ",
"                        ++@@%%=====oooX=ooXX=====   XXo**oo*XXX=ooXXo### +@         ===             ",
"                         +@@%=====oooX===**o====      o**o=Xoo===XXXo####            ==             ",
"                         +++=====.ooXX===**o===       .oo===**o===X.XX OOOO                         ",
"                        OO +=====XXoX====**=====       ...===oo===XXX  OO++                         ",
"                        OO =%%==XXXXo===Xoo====       .XXX===ooo===XX    ++                         ",
"                            %%=oXXXX===XX  ===        .XooX===##====                                ",
"                                 XXX==X    ==          X==X===##X===                                ",
"                                 ooXXXX  $ ===         ========XXX==                                ",
"                                 XooXX  $%===&& $   #   === ===                                     ",
"                                 XXoX   +%==+$ $$$ ###  &&=  %%                                     ",
"                                           +$&& $ %%%##&&&== O%                                     ",
"                                           +$&&&  %%%%%%&&@=@@                                      ",
"                                           +@@&&&&@$$%%%@@@  @                                      ",
"                                            +%% && $$###OO                                          ",
"                                            #%% &&O+$$ #OO                                          ",
"                                           ##   +++O$$###O                                          ",
"                                                 +O    #OO                                          ",
"                                             =                                                      ",
"                                            ===                                                     ",
"                                            ===                                                     ",
"                                           ====                                                     ",
"                                           ===                                                      ",
"                                           ===                                                      ",
"                                           ===                                                      ",
"                                           ===                                                      ",
"                                            =                                                       ",
"                                                                                                    ",
"                                                                                                    ",
"                                                                                                    ",
"                                                                                                    ",
"                                                                                                    ",
"                                                                                                    ",
"                                                                                                    ",
"                                                                                                    ",
"                                                                                                    ",
"                                                                                                    ",
"                                                                                                    "
};
