/* XPM */
static char *out[] = {
/* columns rows colors chars-per-pixel */
"100 100 13 1 ",
"  c None",
". c #D42A41",
"X c #FC5842",
"o c #FCD64B",
"O c #BA92D6",
"+ c #BD96D7",
"@ c #C09BD9",
"# c #C39FDB",
"$ c #C6A4DD",
"% c #C9A8DE",
"& c #CBADE0",
"* c #E7F3F3",
"= c white",
/* pixels */
"                                                                                                    ",
"                                                                                                    ",
"                                                                                                    ",
"                                                                                                    ",
"                                                                                                    ",
"                                                                                                    ",
"                                                                                                    ",
"                                                                                                    ",
"                                                                                                    ",
"                                                                                                    ",
"                                                                                                    ",
"                                                                                                    ",
"                                                                                                    ",
"                                                                                                    ",
"                                                                                                    ",
"                                                                                                    ",
"                                                                                                    ",
"                                                                                                    ",
"                                                                                                    ",
"                                                                                                    ",
"                                                      =                                             ",
"                                                     ===                                            ",
"                                                      ==                                            ",
"                                                     ===                                            ",
"                                                      =                                             ",
"                                    XX                         XX                                   ",
"                                   XXXX                       XXXX                                  ",
"                                   XooX   $$                  XooXXX.                               ",
"                                XXXXXX.XXX$$       @        XX.ooXXX.                               ",
"                                XXXXXX..%XXX   %%$%%#  @@  XooXXXXoXX                               ",
"                                XooXXoX%%ooX  #%$$%%&# &&  XooXXXXooX                               ",
"                              ..ooXXXooXXoo. &&&&%&&&#%%==..XXX.XXXXX.                              ",
"                              XXXX...XXo&&ooO&&&&&&%++X===X...XXXXXXX.                              ",
"                          XXoXXXXXXX##O@&&=O&& $$&%%+++===%..#%XXXXXXX                              ",
"                          XooXXXXoXX##==@===&   @O   +===+%%o%%XXXXo..                              ",
"                          ooXXoXXX.XX========$$     .====++XXXoooXXX.XXoXX                          ",
"                          XXXXXXXXoooX===#==o$$     =====o*Xo*oooXXXXXXooX                          ",
"                            .XXXXoooo*o===#oXXX     .===X**X*=*ooX.XXX.ooo                          ",
"                              X.ooooooOX=XXXX*X      .=ooo*====*XXXXX.X.XX                          ",
"                              o.XoXoooOoXo*oX*o      .X**o======XXXo..X.                            ",
"                              X...Xoo***oooXXo.      Xoo**o==o==X.XX.XX                             ",
"                               XX.==***oooo*oX        Xoo*oXooXXX.&.==XX                            ",
"                                X====*oooo***X         XoXXooXooo======#                            ",
"                           %    ====XXooX***oo         oo***Xo**========                            ",
"                           %=  ===..o***Xo*oo           oo*oXo***==== ==&                           ",
"                           ==========***XXXo             oXXXXoooo      &&                          ",
"                         &$==========ooXoX                   X X     ==                             ",
"                      $$ &&==========XXXo                           ==== %%                         ",
"                      $     &$&&                                     ====+%                         ",
"                ==    $$  @@&&                                         $$&&                         ",
"               ====   $$  @&                                           %%@&                         ",
"             =====    @@O  &&                                           %#$                         ",
"            ====        O  &                            oXX            &%%$$                        ",
"            ===          ##&&           X              oo*oX          &&%%%                         ",
"            ==          +## &        XXXooX           oooXXX  X..=.    +$%%+@@                      ",
"                        ++@&&#    ...Xo*o*oX          Xoo*oXX...====X  ++&$@@@                      ",
"                      $## @%%#    ...X***oooX         oo***XXoX======X  &&%&                        ",
"                     $$####%%  ....XXoo***Xoo.        X**oXXXooo=====X   &%&&                       ",
"                     @@####X........XoXXXoX*o.        Xooo*oXX***o===== &&$$@                       ",
"                     @@   &X.$$...X.XoXo*o***X        Xoo***XX***o.X====$& $      =                 ",
"                        O &&.$$X....ooX***o*oX        .X***oooooo..oo====&&      ====               ",
"                        O$$%&$$XXX.Xoooo***XX.       X.Xo*ooooXXXoX.X%===###      ====              ",
"                       ##$$%&&=XX=.Xooooo*oXo.       .XXXXooooXXooo.oXX==#$$       ====             ",
"                       ##+##o======XXXoooXXXX.       .Xo**oooo.oooXXoXo.OO@$        ====            ",
"                       +++@@%=====XXXXoooXX..=       .Xo**oXoo.XoXXXX##X  @@         ===            ",
"                         +@%%====XXXX.==XXX.===        o**oXoX..=XXXoX#X##            ==            ",
"                         ++======ooXX====oX=====       o**o=.XX===XX.XXX##                          ",
"                          ======%XoXX===ooX====        .oo===XXo===XoX  OO                          ",
"                          ==%===XXXo===XXX.===          .XX===.X====XX   ++                         ",
"                           %%==XXXX.===X   ==           .oo===##X===                                ",
"                                ..Xo==     ===          X=o====#X===                                ",
"                                XXXXXX  $ ===           ===X=== .X===                               ",
"                                .XXXX   $%===&& $   #   === ===    ==                               ",
"                                ..X.    +%===& $$$ ### #&&== =%%                                    ",
"                                          ==@$@ $ %%% #&&&&=  %%                                    ",
"                                            $&&$  %%%%%%%&&@ @@                                     ",
"                                           +@&&&   $%$%%% @@ @@                                     ",
"                                            %%& && $$$#%%                                           ",
"                                            %%% &&O+$$$#                                            ",
"                                           ##   +++O$$$##O                                          ",
"                                           ##    +O    #OO                                          ",
"                                                                                                    ",
"                                            =                                                       ",
"                                           ===                                                      ",
"                                           ===                                                      ",
"                                           ===                                                      ",
"                                           ===                                                      ",
"                                           ===                                                      ",
"                                           ===                                                      ",
"                                            =                                                       ",
"                                                                                                    ",
"                                                                                                    ",
"                                                                                                    ",
"                                                                                                    ",
"                                                                                                    ",
"                                                                                                    ",
"                                                                                                    ",
"                                                                                                    ",
"                                                                                                    ",
"                                                                                                    "
};
