/* XPM */
static char *out[] = {
/* columns rows colors chars-per-pixel */
"100 100 13 1 ",
"  c None",
". c #D42A41",
"X c #FC5842",
"o c #FCD64B",
"O c #873AD5",
"+ c #B88DD4",
"@ c #BA92D6",
"# c #BD96D7",
"$ c #C09BD9",
"% c #C39FDB",
"& c #C6A4DD",
"* c #C9A8DE",
"= c white",
/* pixels */
"                                                                                                    ",
"                                                                                                    ",
"                                                                                                    ",
"                                                                                                    ",
"                                                                                                    ",
"                                                                                                    ",
"                                                                                                    ",
"                                                                                                    ",
"                                                                                                    ",
"                                                                                                    ",
"                                                                                                    ",
"                                                                                                    ",
"                                                                                                    ",
"                                                                                                    ",
"                                                                                                    ",
"                                                                                                    ",
"                                                                                                    ",
"                                                                                                    ",
"                                                                                                    ",
"                                                                                                    ",
"                                                      =                                             ",
"                                                     ===                                            ",
"                                                      ==                                            ",
"                                                     ===                                            ",
"                                   ..                 =                                             ",
"                                  ....                          XX                                  ",
"                                  .XX.                         XXXXX.                               ",
"                                  OXXO.XXX%%                 XXXoXXXX                               ",
"                               XXXXoXXXXXX%%    %  #       XXXXXoXooX                               ",
"                               XXXoXXXXXooX    &&&&&#  #** XXXXXX.XoXX                              ",
"                               ooooXXXo&&o.  *$*&&&&$$ &**..XXXXX.XooX                              ",
"                              XXX..XXXX&&XXX ****&***$&&==X....XXXXooo                              ",
"                             XXXXoX.XXXo**ooX ##%**&*XX===o..XoXXXXXXX                              ",
"                          XXoXXXooXXXX=o*#=+** %%*&&@@X===&..X&$XXXXXX                              ",
"                          Xooo.XXXX.$===.===*.  %+  ..===.&&XX&&o.XXoXXoXX                          ",
"                          ooXXXXX.XX$======oX%%      ====.@...XXXXXXXXXooX                          ",
"                          XXXXXXXXXX..====XX.%%     ..===.o.XoXXXX.XXXXooo                          ",
"                            .XXXoXXXXX.===$X.X.      ..=XXX.o=oXXXXoXXX.XX                          ",
"                             X.ooXXXXXoX=$$.oo.      .X.XoXX===o..Xoo.X.                            ",
"                              .Xo.XXXooXXX...XX      .oXXooXX===..XoX.X.                            ",
"                              ......oooXXXoX.X.      XX.XXoXXX==......XX                            ",
"                              XXX.=.XoXXXooo..        X.XX..Xo.X.X..==oXX                           ",
"                               XX===..X.oooXXX         .oooXX..XX*=====$$                           ",
"                               .===.Xoo.XoXXX          XXooo.XXoo=======$                           ",
"                          &&=  ===..Xoo...XX            XXoX.XXooo=== == *                          ",
"                          &========.XXXX..               X.....XXXX     **                          ",
"                         *========= ...X.                     . .     =                             ",
"                     %% **=========                                  ===  &                         ",
"                     %%     ***                                      &===@&&                        ",
"                =     %%   **%                                         %%=*                         ",
"               ===    %%   +                                           %&**                         ",
"             ====    ##++ **                                           &&$                          ",
"            ====     ##++ **                             X..            &&%%                        ",
"            ===          $$*                            XXoX.          **& %                        ",
"            ==           $$**       ......             XXooo.          **&&@@                       ",
"                         ##**       .XoXX.X            .XX..XX.... =    %%&%##                      ",
"                       $$##*&    ....oooXXoX           XXXoX..o...===X   *&%##                      ",
"                     %%$$$$&&    ...XXooo..o.         .XXooo..XXX====oX **&**                       ",
"                     %%$$$$&&  ...X.XXXoX.oX.         ..ooX..ooooo=====  **&*                       ",
"                     ##   XX.%X.....X....XooX         ..XXXoX.ooooXX====%&*%%                       ",
"                         **o%%%...X.X.XoX.ooX.        XXXXooo.XXXX..o====**        ==               ",
"                         **oo%%X...XX.oooXX.X.       XX..oooXXX.XXoX.&===$*$$     ====              ",
"                        @@&&*.XXX.XXXXXooo...        .o..XoXXXXXXooo.&&===$$$      ====             ",
"                       $$ &**=XX=.oXXXXXoX.o..       .X....XXXX.oooXXoXX== %%       ====            ",
"                       $$@$$======XXXXXX...X..       ...XooXooo.XoXXXXX  + %%        ===            ",
"                         ##&=====XXXXX=X....=          .XooX.oX...XXXXX    #          ==            ",
"                         ##&=====XXX.===ooX===          XooX..XXX=XXXX  $$                          ",
"                          ======ooXXX===ooX====         XooX=ooo===XXX  $$                          ",
"                          ======XoXX===XooX===          .XX===oX====X.    @                         ",
"                          =&===XXXoX===XXX.==           .oo===.$$===X.    @                         ",
"                           &&= XXX..==     ===          Xoo====$$===                                ",
"                                XXXXXX    ===           X=XX===...===                               ",
"                                .XXXX   %&===*  %       === ==== .===                               ",
"                                ..X.    &&===**%%%  $   ==== ===   ==                               ",
"                                          ===%%%%% $&$ ***==  &&                                    ",
"                                          ==%**%  &&&&&&***= ##                                     ",
"                                            #***   &&&&&& *  ##                                     ",
"                                             ****   %$$&&                                           ",
"                                            &&&***  @%$                                             ",
"                                           $$& ***@@%%%$                                            ",
"                                           $$    @   %$$$+                                          ",
"                                                       $                                            ",
"                                                                                                    ",
"                                            =                                                       ",
"                                           ===                                                      ",
"                                           ===                                                      ",
"                                           ===                                                      ",
"                                           ===                                                      ",
"                                           ===                                                      ",
"                                           ===                                                      ",
"                                            =                                                       ",
"                                                                                                    ",
"                                                                                                    ",
"                                                                                                    ",
"                                                                                                    ",
"                                                                                                    ",
"                                                                                                    ",
"                                                                                                    ",
"                                                                                                    ",
"                                                                                                    "
};
