/* XPM */
static char *out[] = {
/* columns rows colors chars-per-pixel */
"100 100 12 1 ",
"  c None",
". c #D42A41",
"X c #FC5842",
"o c #FCD64B",
"O c #873AD5",
"+ c #B589D2",
"@ c #B88DD4",
"# c #BA92D6",
"$ c #BD96D7",
"% c #C09BD9",
"& c #C39FDB",
"* c white",
/* pixels */
"                                                                                                    ",
"                                                                                                    ",
"                                                                                                    ",
"                                                                                                    ",
"                                                                                                    ",
"                                                                                                    ",
"                                                                                                    ",
"                                                                                                    ",
"                                                                                                    ",
"                                                                                                    ",
"                                                                                                    ",
"                                                                                                    ",
"                                                                                                    ",
"                                                                                                    ",
"                                                                                                    ",
"                                                                                                    ",
"                                                                                                    ",
"                                                                                                    ",
"                                                                                                    ",
"                                                                                                    ",
"                                                      *                                             ",
"                                                     ***                                            ",
"                                                      **                                            ",
"                                   ..                ***                                            ",
"                                  ....                *         ..                                  ",
"                                  .XX.                         ....XX                               ",
"                                  OXXOXXXX                     .XXXXXX                              ",
"                               ....XXXXXXXX                  XXXXXXooX                              ",
"                               ...XXXoXXoo$$       %        XXXXX.XoXX                              ",
"                               .XXXXooX.oXX    %% %%%   &&  .XooX.XooX                              ",
"                             ..XX.XoXXX%%ooX  #%%$ % #  &&.Xo...XXXXoo.                             ",
"                            XXXXoXXXXXo%%ooX&&&&$   ###X***X...XXXXXXX.                             ",
"                         ..XXoXooXoXXXX.XooX&&&&&&&& #X****..XoXXXXXXXX                             ",
"                         .XXooooo..X.**XXo*X& @@@%%% Xo***X..XXXXX.XXoX                             ",
"                         XX.XXXXXXX.****.***&& @@@%  .***%%%..%%XXXXXXXXX..                         ",
"                         ....oXXXXXo*******.X.       .X*..%%.X%%XXXX.XXXXX.                         ",
"                           O.XXoXXXXX.****ooo.       . ..XXX.oooXXXXXXXOXXX                         ",
"                            XXoo.oXXXoX*X##.XX         X.ooXX*ooo..XXo..O..                         ",
"                            .oXX.XXXooXXX##.X.         XXXoo***oX...XX..O                           ",
"                             XXX...oooXXXoX..         ..oXXoX***..X....XX                           ",
"                             XXoXX.XoXXXooo.           X..X..X**X..X.XooXX                          ",
"                              XX.X...X.oooXX.           ..ooXX..XXXX**ooXX                          ",
"                               ..*Xooo.XoXXX             Xooo.XXooo*****X                           ",
"                               .***ooo...X.               XoX.XXoo&&*****                           ",
"                          % *  ***.XXXX..                  .....XX&&  ***                           ",
"                         %*******  ...X.                       . .     **                           ",
"                         ********                                                                   ",
"                       &********                                       *                            ",
"                     $ &**    &                                       ***                           ",
"                     $    &&$&&                                        ***+                         ",
"               *          &&$                                           $$&&                        ",
"             ****                                                       %% &                        ",
"            ****          &&                                            %%                          ",
"            ***           &                               X..           #%%$$                       ",
"                          &&                             XXoX.         &&%%$$                       ",
"                          &&       ...X...              XXooo.          &$%%                        ",
"                          &&#   ....XoXXXoX             .XX...  . .X. X   %% @@                     ",
"                          &&#   .XX.oooXoooX            XXooX.....oooooX &&%                        ",
"                    $$ ###%%    ...XXooo..oo.          X.oooXX.XXXXoo**X  &%%                       ",
"                    $$@ ##%%. ...X.XXXoX.oXX.          ..XoX...ooooX****..&&%@                      ",
"                     @  XXooXX.....X....oooX           ...XXoX.ooooX.****.&&$                       ",
"                        X&&o$$..Xo.X.XoX.ooo.          ..XXooo..XXX..X***$&&        *               ",
"                         &X.$$X...XX.oooXXoX.         XX..oooXX..XXoX.%****&       ****             ",
"                         %%X$$XX.XXXXXooo...          .o..XoXXXXXXooo.%%****#       ****            ",
"                      ## %&&ooXX.oXXXXXoX.o.          .X....XXXX.oooXXXoX***$        ***            ",
"                      ## #&&*%%*XXXXXXX...X..         ...XooXXXX.XoXXXooX  @$         **            ",
"                          %******XXXXX*....X.           .XooX.oo...XXXXoX  @@                       ",
"                          %*****XXXXX***XX..             XooXXoXXX*XXX.                             ",
"                          ******ooXX***ooXX              XooX..oo***oX.                             ",
"                          *****%ooXo***ooX  *           . XX**XoX***X..                             ",
"                           ***%%XoXX**.XX  ***          .XX****##***X                               ",
"                           *** ..XXXX.    ***           XooX***##.***                               ",
"                           **  XX.....    ***           X*%X**** .***                               ",
"                               .XX...  $$$***&          **** ***   **                               ",
"                               ..X.      ****&           ***  **                                    ",
"                                         *** &$   % % % &&&*  %%                                    ",
"                                         ** &&&$ %%%%%%%&&&& @@                                     ",
"                                            &&&&  %$%%%%% && @@                                     ",
"                                             &&&&   $ #%                                            ",
"                                           #%%%&&&   $                                              ",
"                                          ###% &&&  $$$                                             ",
"                                           #         $                                              ",
"                                                                                                    ",
"                                                                                                    ",
"                                            *                                                       ",
"                                           ***                                                      ",
"                                           ***                                                      ",
"                                           ***                                                      ",
"                                           ***                                                      ",
"                                           ***                                                      ",
"                                            *                                                       ",
"                                                                                                    ",
"                                                                                                    ",
"                                                                                                    ",
"                                                                                                    ",
"                                                                                                    ",
"                                                                                                    ",
"                                                                                                    ",
"                                                                                                    ",
"                                                                                                    "
};
