/* XPM */
static char *out[] = {
/* columns rows colors chars-per-pixel */
"100 100 7 1 ",
"  c None",
". c #FC5842",
"X c #FCD64B",
"o c #F6F1F9",
"O c #F9F5FB",
"+ c #FCFAFD",
"@ c white",
/* pixels */
"                                                                                                    ",
"                                                                                                    ",
"                                                                                                    ",
"                                                                                                    ",
"                                                                                                    ",
"                                                                                                    ",
"                                                                                                    ",
"                                                                                                    ",
"                                                                                                    ",
"                                                                                                    ",
"                                                                                                    ",
"                                                                                                    ",
"                                                                                                    ",
"                                                                                                    ",
"                                                                                                    ",
"                                                                                                    ",
"                                                                                                    ",
"                                                                                                    ",
"                                                                                                    ",
"                                                                                                    ",
"                                                                                                    ",
"                                                                                                    ",
"                                                                                                    ",
"                                                                                                    ",
"                                                                                                    ",
"                                                                                                    ",
"                                                                                                    ",
"                                                                                                    ",
"                                                                                                    ",
"                                                                                                    ",
"                                                                                                    ",
"                                                                                                    ",
"                                                                                                    ",
"                                                                                                    ",
"                                                                                                    ",
"                                                                                                    ",
"                                                                                                    ",
"                                                                                                    ",
"                                                                                                    ",
"                                                 o @                                                ",
"                                              ooooo@@                                               ",
"                                            oooooo@ooooX                                            ",
"                                            ooOOO@O@oooXX                                           ",
"                                           XooOOOO@+++oXXX                                          ",
"                                          XXo+++++++++XXX.                                          ",
"                                         oooX@@@++++++@@@ooo                                        ",
"                                        ooo+++++++++++++OOoo                                        ",
"                                       @ooo+++++++@@@+++OOoo                                        ",
"                                      @@oo@++++++@@@@+++OOo@                                        ",
"                                       @@@O@++++@@@@@@+++Oo@@                                       ",
"                                        @oO++++@@@@@@+++@@o@@                                       ",
"                                        ooOO+++@@@@@@+++OO@@@@                                      ",
"                                        ooOO+++@@@@@@+++OO@o@@                                      ",
"                                        ooOO++++++@@@+++OO@o@@                                      ",
"                                        oooOOO+++++++++OOOoo                                        ",
"                                        oooXXO+++++++++X.                                           ",
"                                           XXOOOO+OO@@oo                                            ",
"                                            XoOOOOOooooo                                            ",
"                                           X oooo@oooooo                                            ",
"                                              @@@oooooo                                             ",
"                                               @@@o ooo                                             ",
"                                                @                                                   ",
"                                                                                                    ",
"                                                                                                    ",
"                                                                                                    ",
"                                                                                                    ",
"                                                                                                    ",
"                                                                                                    ",
"                                                                                                    ",
"                                                                                                    ",
"                                                                                                    ",
"                                                                                                    ",
"                                                                                                    ",
"                                                                                                    ",
"                                                                                                    ",
"                                                                                                    ",
"                                                                                                    ",
"                                                                                                    ",
"                                                                                                    ",
"                                                                                                    ",
"                                                                                                    ",
"                                                                                                    ",
"                                                                                                    ",
"                                                                                                    ",
"                                                                                                    ",
"                                                                                                    ",
"                                                                                                    ",
"                                                                                                    ",
"                                                                                                    ",
"                                                                                                    ",
"                                                                                                    ",
"                                                                                                    ",
"                                                                                                    ",
"                                                                                                    ",
"                                                                                                    ",
"                                                                                                    ",
"                                                                                                    ",
"                                                                                                    ",
"                                                                                                    ",
"                                                                                                    "
};
