/* XPM */
static char *out[] = {
/* columns rows colors chars-per-pixel */
"100 100 10 1 ",
"  c None",
". c #D42A41",
"X c #FC5842",
"o c #FCD64B",
"O c #873AD5",
"+ c #B284D1",
"@ c #B589D2",
"# c #B88DD4",
"$ c #BA92D6",
"% c white",
/* pixels */
"                                                                                                    ",
"                                                                                                    ",
"                                                                                                    ",
"                                                                                                    ",
"                                                                                                    ",
"                                                                                                    ",
"                                                                                                    ",
"                                                                                                    ",
"                                                                                                    ",
"                                                                                                    ",
"                                                                                                    ",
"                                                                                                    ",
"                                                                                                    ",
"                                                                                                    ",
"                                                                                                    ",
"                                                                                                    ",
"                                                                                                    ",
"                                                                                                    ",
"                                                                                                    ",
"                                                                                                    ",
"                                                      %                                             ",
"                                                     %%%                                            ",
"                                  ..                  %%                                            ",
"                                 ....                            ..                                 ",
"                                 .XX.                           .....                               ",
"                                 OXXO....                     ...XX...                              ",
"                              ....X.......                   ..XX.XXX.                              ",
"                              ...XXXoX.XX.                  ..XooXO.X..                             ",
"                              X.XXXooXO.XX                  .XXXo...XX.                             ",
"                            ...X..oooXXXXXX              %..OXoXXoXXXXX                             ",
"                           .XXoXXXXXXXXXooX            X%%%X.ooXXooXXXX.                            ",
"                        ..X.XooXXXXXXXX.oo.   $       X%%%%XoXXoXXooXoX.                            ",
"                        .XXXooo..XXo.Xo.XX. $$$$      X%%%%XoXoXXXXXXooX                            ",
"                        XXX.XXXoXoXXX%%....     $$#   .o%%o..XoXoXXooXXX.X..                        ",
"                        ....XXoXoXXX%%%%X%oX     ###  .X.XXX..oXooXXXoXXX.X.                        ",
"                          ...ooXoXX%%%%%%%%X          . ..XoXX.#oooXXooX.XXX                        ",
"                           ..XX.oXo%%%%%%%o..           XoXooX.X.XXoXooo.O..                        ",
"                           ...X..ooo..ooXX.X            X..oooo...XXX.XX.O                          ",
"                           ..XXXXXX.XoXXoX.            ..oX.XX%oX.XXo.X..                           ",
"                           ..XXXoXX.oXXooXX             X...o%%%oX.XXXOOX.                          ",
"                            ..OOXXoX..ooo...             ..Xoo%%%..XXOOXXX.                         ",
"                              ..XoXooXXX.XX               ..ooo%%XooXX.OX.                          ",
"                              ..XXXooX....                 X.XX.XXooXX%%                            ",
"                               .%OOX...                     ..  ...XX%%%%                           ",
"                               %%%   .                                %%%%                          ",
"                          %%%  %%                                      %%%                          ",
"                        %%%%%%                                                                      ",
"                       %%%%%%                                                                       ",
"                       %%%                                                                          ",
"                       %%                                                                           ",
"                    @                                                                               ",
"                                                                                                    ",
"                                                                           $$                       ",
"                         $                                                 $$                       ",
"                         $                                 .                                        ",
"                                                          X.XX                                      ",
"                         $$          .                   ..ooo          $$@                         ",
"                         $$        Xo.X                   XooXXX .       @@                         ",
"                         $$    XX.XX.o.XX.                XXX.oo..X...XX                            ",
"                             ..oooooo..Xoo.              ..oooo...XXXooXX                           ",
"                    @   ..OO..XXooXooXXX.o.               XX.oX.XooXXoo%X..                         ",
"                       ..XX..XXXX.XXoXooo.X              .XX.XXXXooXX.%%%X..                        ",
"                       ..XXX.oXooXXXX.XooXX             X...oooo..XXXXX%%%%#                        ",
"                        ..oo@XoXXoXooo.XoXX            ..oXXooXXXXoX..XX%%%%                        ",
"                         .XoXXXooXXXooXX...             XoXXoXXXoXoX.XXXX%%%                        ",
"                         #X.ooXXXX.XXoXoo.              Xo.X.XooX...oooXXo%%%                       ",
"                      +  #$oXooXoo.XXoXooXO               .XX.oXXooXooXXoX%%%                       ",
"                         Xo%X%oXXoXooXXXoX.               .oo..XooXXoXXoXX %%                       ",
"                         #%%%%%OXXoXX%oo.X.               XooXXXXoXXoXX.                            ",
"                         #%%%%%X.ooo%%%oX.                XXXXX..ooX.X.X                            ",
"                          .%%%oooXX%%%XX.                O XX.X.Xoo%.X..                            ",
"                           %%%XooXo%%XXXX                O..O%%.XX%%%X..                            ",
"                          %%% XXoXXXX      %             OXX%%%%..%%%                               ",
"                          %%   X..XX.     %%%            .XX.%%% ..%%                               ",
"                               .XX..     %%%%            ##..%%%  ..                                ",
"                               ..X.      %%%              ..  %%%                                   ",
"                                         %%%            $$     %%                                   ",
"                                         %%% $@         $$                                          ",
"                                         %% $$$@     ##   $$                                        ",
"                                             $$$                                                    ",
"                                            ##$      @                                              ",
"                                             #      @@@                                             ",
"                                          ++         @                                              ",
"                                                                                                    ",
"                                                                                                    ",
"                                                                                                    ",
"                                                                                                    ",
"                                            %                                                       ",
"                                           %%%                                                      ",
"                                           %%%                                                      ",
"                                            %                                                       ",
"                                                                                                    ",
"                                                                                                    ",
"                                                                                                    ",
"                                                                                                    ",
"                                                                                                    ",
"                                                                                                    ",
"                                                                                                    ",
"                                                                                                    ",
"                                                                                                    "
};
