/* XPM */
static char *out[] = {
/* columns rows colors chars-per-pixel */
"100 100 6 1 ",
"  c None",
". c #D42A41",
"X c #FC5842",
"o c #FCD64B",
"O c #873AD5",
"+ c white",
/* pixels */
"                                                                                                    ",
"                                                                                                    ",
"                                                                                                    ",
"                                                                                                    ",
"                                                                                                    ",
"                                                                                                    ",
"                                                                                                    ",
"                                                                                                    ",
"                                                                                                    ",
"                                                                                                    ",
"                                                                                                    ",
"                                                                                                    ",
"                                                                                                    ",
"                                                                                                    ",
"                                                                                                    ",
"                                                                                                    ",
"                                                                                                    ",
"                                                                                                    ",
"                                                                                                    ",
"                                                                                                    ",
"                                                                                                    ",
"                                                                                                    ",
"                                                                    ..                              ",
"                                 XX ....                           ....                             ",
"                                .X.......                      ...X.XX.                             ",
"                               XO...X.XX.                     .....OX.X..                           ",
"                              XXX..X.OXXO                     .X...O..XX.                           ",
"                             XXXX.XX.XXXX                    ..XXoXoXX.XX                           ",
"                             XXX.X...XooX               ....OOOXXoXooX...                           ",
"                         ....X..X...X.oo.              ..++..X..XoXXoo.X.                           ",
"                        ..X.XX....XOX.XX.              .++++.XXOXooXXXXXX                           ",
"                       XXXXX..X..OXXo.oX.              +++++OXOXoXXXXX...O.                         ",
"                       XX....XXXoXXooXXoX...           O+++.OO.Xo.ooo..X..XX                        ",
"                        .OX.XXXooXooo.oooXX.           O +OXXo..oXooX..XX..X                        ",
"                          .XXXooXXoXX+Xo..XO             OO.Xo.X.XoXXX.XXX.                         ",
"                          ...OXXXooX+++.X..O             .X..ooX.X.XXX.O..                          ",
"                          X..O..ooo.++XoX. O             .OOX.XX.o.XooXO..X                         ",
"                          ....X.XX.XXXooX.              OOX.O..XXooXXX..X.                          ",
"                          ..X..Xoo...ooo..O              .O..XoXXoooO..XOO..                        ",
"                           ..OXXXXX..XX.X.                OOXXooX....XXO.XX..                       ",
"                              XoXXooX  .O                  ...ooo.XXooX .XX..                       ",
"                               XXXooX.                      OX.XXO.XooXOOO..                        ",
"                               XXXX...                        .   ...XX                             ",
"                                .OO.                                    +                           ",
"                                                                       +++                          ",
"                                                                        ++                          ",
"                        ++                                                                          ",
"                       ++++                                                                         ",
"                      ++++                                                                          ",
"                      +++                                                                           ",
"                      ++                                                                            ",
"                                                                                                    ",
"                                                                                                    ",
"                                                                                                    ",
"                                                                                                    ",
"                                                             .                                      ",
"                                                            X.XX                                    ",
"                                                           ..ooo                                    ",
"                                 Xo..                       X.oX. OOO..                             ",
"                                XXXX.XX.                    X.XXX..O....XX                          ",
"                        O     ..oooo.ooo.                  ..oooX...XXXooXX                         ",
"                      .XO. .OXXXXXoX.XooX                 ..XooX.oXooXXooXX                         ",
"                     .XXXOXX.XX.XXXX.XX.X.                 XXo.XXoXooXX.XXX                         ",
"                      .X..O..oooooo.Oooo.O                OXoX.XXX..XX....+                         ",
"                        XXX.XXX.XXX..XooX.               .....ooooXXXX...+++                        ",
"                        .X...oooXooo.XXoX.              OOXXoXooXXXoXX.XX.+++                       ",
"                       ..OXX.XooXXooXX...                .XXoXoXXXoX..ooo.++++                      ",
"                       XXX.XXXXXXXXoXoo..O               .X..OXXooXXXXooXXX+++                      ",
"                       .XX..X.oo.XXoXooXX.                 .XX.XoXXoXXoXXXX.++                      ",
"                       ..X.X..XooooXXXoXX.                 .oo..XooX..XX.X..                        ",
"                          XX..XXoXXX.XX..                  XooX.XoXX..X..                           ",
"                           +XXXO.XX.....                   XXXX.OOXXX.XX                            ",
"                          +++XX..X......                  O XXXX .XX..X.                            ",
"                          +++.X......X.                   O..O+  .X..X..                            ",
"                          ++  XXX..                       .XX+++                                    ",
"                               XX.        +               ....+++                                   ",
"                                X        +++               ..  ++                                   ",
"                                         +++                                                        ",
"                                        +++                                                         ",
"                                        +++                                                         ",
"                                        ++                                                          ",
"                                                                                                    ",
"                                                                                                    ",
"                                                                                                    ",
"                                                                                                    ",
"                                                                                                    ",
"                                                                                                    ",
"                                                                                                    ",
"                                                                                                    ",
"                                                                                                    ",
"                                                                                                    ",
"                                                                                                    ",
"                                                                                                    ",
"                                                                                                    ",
"                                                                                                    ",
"                                                                                                    ",
"                                                                                                    ",
"                                                                                                    ",
"                                                                                                    ",
"                                                                                                    "
};
