/* XPM */
static char *out[] = {
/* columns rows colors chars-per-pixel */
"100 100 5 1 ",
"  c None",
". c #D42A41",
"X c #FC5842",
"o c #873AD5",
"O c white",
/* pixels */
"                                                                                                    ",
"                                                                                                    ",
"                                                                                                    ",
"                                                                                                    ",
"                                                                                                    ",
"                                                                                                    ",
"                                                                                                    ",
"                                                                                                    ",
"                                                                                                    ",
"                                                                                                    ",
"                                                                                                    ",
"                                                                                                    ",
"                                                                                                    ",
"                                                                                                    ",
"                                                                                                    ",
"                                                                                                    ",
"                                                                                                    ",
"                                                                                                    ",
"                                                                                                    ",
"                                                                                                    ",
"                                                                                                    ",
"                                                                                                    ",
"                                 XX   ..                                                            ",
"                                .XX......                       ..XX X                              ",
"                             X  X.....XX.                      ....X.XX                             ",
"                             XXX..X.Xo..o                      .XX...XX.                            ",
"                             XXX.XX.X....                     .X..X.X..X                            ",
"                             XX.XX....XX.                 .. ..XX.X.XX.XX                           ",
"                         ...X........oXXo               .....ooX.o..XXX..                           ",
"                        ...XX....X...o..o              ..OOX.o.ooXXXo....                           ",
"                       XXXXXXoo..oo.Xo..o              .OOOOooX.X...oXX.XX                          ",
"                       XX...X...X..X......             oXOOOo.o.X.X...XX....                        ",
"                        .o.XX..X..XX..XX...            o.ooX..ooX.XX....X...X                       ",
"                          XXX.X..X.XooXXoX.            o oo.XoX.ooXXXX..XX..X                       ",
"                          ..oXX.XX..OX..oXo              o..ooXXo.o...XXXXX.                        ",
"                          XXo..XXXoOOO..o.o              .ooX.o..oooXXX.o..                         ",
"                          ...X...o.OO.X.o.o              .X.o.oo.X......o.                          ",
"                         ....X...oX..XX.X.              ooX.o.X..XX..oX...                          ",
"                         ..X...XX..XXXXoooo              .o.X.XX.Xooo....XX                         ",
"                          ..o.XX..oo..o.o.                ooooXXXo..XX...XX                         ",
"                             ....XX.ooooo                  .o.o..oo.XX..o.                          ",
"                              ...XX..                       o o ooooo..                             ",
"                               X..ooo                                                               ",
"                                .oo                                                                 ",
"                                                                                                    ",
"                                                                                                    ",
"                                                                                                    ",
"                       OO                                                                           ",
"                      OOOO                                                                          ",
"                     OOOO                                                                           ",
"                     OOO                                                                            ",
"                                                                                                    ",
"                                                                                                    ",
"                                                                                                    ",
"                                                                                                    ",
"                                                                                                    ",
"                                                             o                                      ",
"                                                            .o..                                    ",
"                                ..oo                       ooXXX   o                                ",
"                               ..XX..o o                    oXo....o..ooo..                         ",
"                             .....o.X..X.                  .o.o..oooo.X.XX..                        ",
"                        .o .oXXXXXXoX.XX.                 ooooXXX.o.XX..XX..                        ",
"                       XX.X...X..XX...oXo                  .X.XX.oX.XX.oo..                         ",
"                       XX.oXX.....X.XXXoXo                o.X.Xo.o.oo.XX...                         ",
"                        ..X..XX..XXo.XX.X.               .oooX.o..X...o...o..                       ",
"                        .X.X..oX...X..X.X.              ooXX.ooXXX..X..o..XOO                       ",
"                      ..oX..XXX...XX.oXX.                .XX.X.XX...X..o..OOOO                      ",
"                      XXXoX..XX..XXXo.oX.                .X....X..XX.ooXXX.OOO                      ",
"                      .XX..X....o..X.XXo.                  XoXo..XX.XX.XX.X.OO                      ",
"                      ..X.....XXo..X.XX..                   o..o.X...X.X....                        ",
"                          XX.o.X.XX...X..                   oXXo..X......                           ",
"                           X.........XX.                    .XX..X.o..oX                            ",
"                            XXX.........                  o .....ooXXX..                            ",
"                            .XX.X......                   o....   .XX...                            ",
"                            ..X.....                      oXXo    .X..                              ",
"                              XX..                        .XX.                                      ",
"                               X          O               ....                                      ",
"                                         OOO               ..                                       ",
"                                        OOO                                                         ",
"                                        OOO                                                         ",
"                                        OO                                                          ",
"                                                                                                    ",
"                                                                                                    ",
"                                                                                                    ",
"                                                                                                    ",
"                                                                                                    ",
"                                                                                                    ",
"                                                                                                    ",
"                                                                                                    ",
"                                                                                                    ",
"                                                                                                    ",
"                                                                                                    ",
"                                                                                                    ",
"                                                                                                    ",
"                                                                                                    ",
"                                                                                                    ",
"                                                                                                    ",
"                                                                                                    ",
"                                                                                                    ",
"                                                                                                    "
};
