/* XPM */
static char *out[] = {
/* columns rows colors chars-per-pixel */
"100 100 6 1 ",
"  c None",
". c #D42A41",
"X c #FC5842",
"o c #5633A8",
"O c #873AD5",
"+ c white",
/* pixels */
"                                                                                                    ",
"                                                                                                    ",
"                                                                                                    ",
"                                                                                                    ",
"                                                                                                    ",
"                                                                                                    ",
"                                                                                                    ",
"                                                                                                    ",
"                                                                                                    ",
"                                                                                                    ",
"                                                                                                    ",
"                                                                                                    ",
"                                                                                                    ",
"                                                                                                    ",
"                                                                                                    ",
"                                                                                                    ",
"                                                                                                    ",
"                                                                                                    ",
"                                                                                                    ",
"                                                                                                    ",
"                                                                                                    ",
"                                                                                                    ",
"                                 OO                                                                 ",
"                                OOOO  X                           XX XX                             ",
"                              X XOXoX..X                         .XX.XX.                            ",
"                             XXXXXX......                      .X...O.XX                            ",
"                            XXXXX....XX.                       .XX..X...X                           ",
"                             XX.....OXXO                ....  OOXX..XX..                            ",
"                         ..X. .O.X..O..O               .......X.O.X..XX.X                           ",
"                       ...XX.. .OXO.OX.O               .X.+X..XX.X......XX                          ",
"                      XXXXX..X..X..X..X...             OX+++OOXO.X.X..XX.O .                        ",
"                      XX......X.X.XX.XXX...            O.O++O.OOOX.XX...X...X                       ",
"                       ..O.X.XX.XXXXOOXOXX.            O OO.O.X..OOXXX..XX.XXX                      ",
"                          XXXX.X....X.OOXXO              .OO..XXOO.O..X.XXX.X                       ",
"                         X.....XX..XX..O..O              O.XOOXXX.OO....O..                         ",
"                         XX.O..XX.X.X..O.OO              O.OO.O...OOOXXXO.O                         ",
"                          ...X.OOX..XX.O.                OOX.OOX..XX.....X                          ",
"                           X...XXXOOXXXOOO                .O.O.X..XXXO..OO.                         ",
"                           XX....OO.O..O.                  OOX.XX.OOOO....XX                        ",
"                            ....XX..o OO                    .OOXXXOX.XX...XX                        ",
"                              ..XX.OO                        O.O..O..XX..O.                         ",
"                              O..OOO                           O   OOO..                            ",
"                               OooO                                                                 ",
"                                                                                                    ",
"                                                                                                    ",
"                                                                                                    ",
"                                                                                                    ",
"                                                                                                    ",
"                       +                                                                            ",
"                      +++                                                                           ",
"                      ++                                                                            ",
"                                                                                                    ",
"                                                                                                    ",
"                                                                                                    ",
"                                                                                                    ",
"                                                                                                    ",
"                                                              O                                     ",
"                                                             .O..                                   ",
"                               ..OO                         OOXXX                                   ",
"                              ..XX.                          .OX..OOO.                              ",
"                             O...O....O                      .O..XO.O..OOO..                        ",
"                       .O   O.XXXXOXXXXO                    OOXXXOOOO..O.XX..                       ",
"                      XX.   .X..XX...XX.O                  OO.XX....XX...XX..                       ",
"                      XX.  X.....X....O..O                 ...X.OOO.XX..OO..                        ",
"                       ..O....OXXXO.XXXOXO                OO.X..OO.OO..O..O                         ",
"                       XXXXX..O...OX.XX..                .OOOXOOXXX.X...O...                        ",
"                        XX.XXXX.XXXO..X..               OOXX.XX.XX.O.X..OX..+                       ",
"                      .O X...XX..XX..OO..                .XX.XO..X.XX...O..+++                      ",
"                     XXXOOXX..X...X.XXO.O                .X..XO.X.XX..OOXXXX++                      ",
"                      XX.OOX...O..X.XX.O.                   O.O.X..X.X..XX.X                        ",
"                       X OOO.XX.XX...X..                    O..O.X.XX...X..                         ",
"                          OXX.X....O..X.                    OXXO.X.X...X..                          ",
"                           ....X..O.XX.                     .XX..OOXXXXXX                           ",
"                           XXXOOX......                   O ....OO.XX.XX                            ",
"                           .XX..X.....                    O.... O .X..X                             ",
"                           ..X.......                     .XX.                                      ",
"                              OO..                         XX                                       ",
"                               O                                                                    ",
"                                         +                                                          ",
"                                        +++                                                         ",
"                                        ++                                                          ",
"                                                                                                    ",
"                                                                                                    ",
"                                                                                                    ",
"                                                                                                    ",
"                                                                                                    ",
"                                                                                                    ",
"                                                                                                    ",
"                                                                                                    ",
"                                                                                                    ",
"                                                                                                    ",
"                                                                                                    ",
"                                                                                                    ",
"                                                                                                    ",
"                                                                                                    ",
"                                                                                                    ",
"                                                                                                    ",
"                                                                                                    ",
"                                                                                                    ",
"                                                                                                    "
};
