/* XPM */
static char *out[] = {
/* columns rows colors chars-per-pixel */
"100 100 6 1 ",
"  c None",
". c #D42A41",
"X c #FC5842",
"o c #5633A8",
"O c #873AD5",
"+ c white",
/* pixels */
"                                                                                                    ",
"                                                                                                    ",
"                                                                                                    ",
"                                                                                                    ",
"                                                                                                    ",
"                                                                                                    ",
"                                                                                                    ",
"                                                                                                    ",
"                                                                                                    ",
"                                                                                                    ",
"                                                                                                    ",
"                                                                                                    ",
"                                                                                                    ",
"                                                                                                    ",
"                                                                                                    ",
"                                                                                                    ",
"                                                                                                    ",
"                                                                                                    ",
"                                                                                                    ",
"                                                                                                    ",
"                                                                                                    ",
"                                                                                                    ",
"                                 OO                                OO                               ",
"                                OOOO XX                           OOOXX                             ",
"                                OOXX....                        XXXO.XXX                            ",
"                               OOXX.....                       .X..X.X..X                           ",
"                              OOX....XX.                       .XX.X.XX.XX                          ",
"                           X OOO....OXXO                .. .. OOXOOOOXXX.                           ",
"                          XX. Oo.X..O..O               ......  .O.X..O...                           ",
"                       OoXXXOO .OX.XO..O               .XX.XXX.X.X...OXX.X                          ",
"                      OOX..X...X.X........             OXXOXXOXX.X.X...XXooO                        ",
"                      OOO.XX..X..XX..XX....            O..O..X.OOX.XX....X..O                       ",
"                       OoXXX.X..X.XXOXXOXX.            O  OO.X.X.OOXXXX..XX.O                       ",
"                         ..OXX.XX...X..OXXO              OO..X.XXO.O.....XXX                        ",
"                         OXO..XXXOOXX..O..O              oOOOOOXXXOOOX.X.O..                        ",
"                         XX.XX..O.X..X.O.OO              o.X.O.O..X....XXOOO                        ",
"                          XXXX..OX..XX.O.                OOXXO.O..XX..O..XO                         ",
"                          XX...X..XXXXOOOO                .O.O.XX.XXX.O.OO.                         ",
"                           ...X..OO..O.O.                  OOOOXXXOOOO....XX                        ",
"                            ....XX.OOOOO                    .O.O..OX.XX...XX                        ",
"                             ...XX..                         O.O.OOO.XX..O.                         ",
"                              O..OOO                           O   OOO..                            ",
"                               Ooo                                                                  ",
"                                                                                                    ",
"                                                                                                    ",
"                                                                                                    ",
"                                                                                                    ",
"                                                                                                    ",
"                      +                                                                             ",
"                     +++                                                                            ",
"                     ++                                                                             ",
"                                                                                                    ",
"                                                                                                    ",
"                                                                                                    ",
"                                                                                                    ",
"                                                                                                    ",
"                                                              O                                     ",
"                                                             .O..                                   ",
"                                                            OOXXX                                   ",
"                               .XOO                          .XO..O OO.                             ",
"                             O.XXXO ..O                      O.O..O.O..OOO..                        ",
"                       .O   O....O.XXXXO                    .OOXXXOOOO.O.XX..                       ",
"                      XX.  OOX.XXXOX.XX..                  OOX.XX..O.XX..XX..                       ",
"                      XX.   ..X.XX...OX.XO                  .X.X..OX.XX.OO..                        ",
"                       ..OOX.....X.XXXOO.                  O.X..O.OOOO.O..OO                        ",
"                       XXX..XXX...O.XX..                  ..OOX.O..X.....O.O.                       ",
"                        X.X..OX.XXXO.X..O                OXXX.OOXXX..X..OXOXXX                      ",
"                      .OOX.XXXO..XX.O....                 .XX.X.XX......O...X                       ",
"                     XXXOX..XX....X..OOXO                 ..X...X..XX.OOXXXXX                       ",
"                      XX. X....OXXXOXXOO.                   OOX...XX.XX.XX.X                        ",
"                       X   ..XXO..O.XX...                    O..O.X.....X..                         ",
"                          XXX.X.XX...X..                     OXXOX.X..O..X.                         ",
"                           X........XX.                      .XX.X..OO.XX                           ",
"                           XXX....X....                   O  .....OOXXXX                            ",
"                            XX.XX.....                    O..O..   .XX.                             ",
"                             XOOXX..                      .XX.     ..X.                             ",
"                              OOO                          XX                                       ",
"                               O                                                                    ",
"                                                                                                    ",
"                                                                                                    ",
"                                                                                                    ",
"                                                                                                    ",
"                                                                                                    ",
"                                                                                                    ",
"                                                                                                    ",
"                                                                                                    ",
"                                                                                                    ",
"                                                                                                    ",
"                                                                                                    ",
"                                                                                                    ",
"                                                                                                    ",
"                                                                                                    ",
"                                                                                                    ",
"                                                                                                    ",
"                                                                                                    ",
"                                                                                                    ",
"                                                                                                    ",
"                                                                                                    ",
"                                                                                                    ",
"                                                                                                    "
};
