/* XPM */
static char *out[] = {
/* columns rows colors chars-per-pixel */
"100 100 9 1 ",
"  c None",
". c #FC5842",
"X c #FCD64B",
"o c #F3ECF8",
"O c #E7F3F3",
"+ c #F6F1F9",
"@ c #F9F5FB",
"# c #FCFAFD",
"$ c white",
/* pixels */
"                                                                                                    ",
"                                                                                                    ",
"                                                                                                    ",
"                                                                                                    ",
"                                                                                                    ",
"                                                                                                    ",
"                                                                                                    ",
"                                                                                                    ",
"                                                                                                    ",
"                                                                                                    ",
"                                                                                                    ",
"                                                                                                    ",
"                                                                                                    ",
"                                                                                                    ",
"                                                                                                    ",
"                                                                                                    ",
"                                                                                                    ",
"                                                                                                    ",
"                                                                                                    ",
"                                                                                                    ",
"                                                                                                    ",
"                                                                                                    ",
"                                                                                                    ",
"                                                                                                    ",
"                                                                                                    ",
"                                                                                                    ",
"                                                                                                    ",
"                                                                                                    ",
"                                                                                                    ",
"                                                                                                    ",
"                                                                                                    ",
"                                                                                                    ",
"                                                                                                    ",
"                                                                                                    ",
"                                                                                                    ",
"                                                                                                    ",
"                                                   $                                                ",
"                                                 o$$$                                               ",
"                                              ooooo$$$                                              ",
"                                           oooooooo$$$$                                             ",
"                                           ooo+++o++$oo.X                                           ",
"                                           ooo++++$++++XXX                                          ",
"                                          Xoo$+++@@@@@+XXXX                                         ",
"                                         XXoo@@@@@$@@@+XXX.                                         ",
"                                        XXOXo######$###X.XXooo                                      ",
"                                       oo$$.$$$$########$+++oo                                      ",
"                                      $o$$@@@$$#########@+++oo                                      ",
"                                     $$$$$@@@$####$$$###@+++o                                       ",
"                                    $$$$$+@@$####$$$$###@+++o                                       ",
"                                     $$$+$@$####$$$$$$##@@+++$                                      ",
"                                      $+++@@###$$$$$$###$@++$$$                                     ",
"                                      oo++@@###$$$$$$###@@$$$$$                                     ",
"                                      oo++@@###$$$$$$###@@$+$$$$                                    ",
"                                      oo++@@######$$$###@@$+$$$$                                    ",
"                                      oo++++++##########++++oo$$                                    ",
"                                      ooo+++.$#########XX+++oo                                      ",
"                                      oooXXXX+###$@###@oX.                                          ",
"                                         XXO.++@@@@@@@@oX                                           ",
"                                          XXo++++$+++oooo                                           ",
"                                         X Xo+++++++ooooo                                           ",
"                                            ooo$$++oooooo                                           ",
"                                             $$$$oooooo                                             ",
"                                              $$$$o ooo                                             ",
"                                               $$$                                                  ",
"                                                $                                                   ",
"                                                                                                    ",
"                                                                                                    ",
"                                                                                                    ",
"                                                                                                    ",
"                                                                                                    ",
"                                                                                                    ",
"                                                                                                    ",
"                                                                                                    ",
"                                                                                                    ",
"                                                                                                    ",
"                                                                                                    ",
"                                                                                                    ",
"                                                                                                    ",
"                                                                                                    ",
"                                                                                                    ",
"                                                                                                    ",
"                                                                                                    ",
"                                                                                                    ",
"                                                                                                    ",
"                                                                                                    ",
"                                                                                                    ",
"                                                                                                    ",
"                                                                                                    ",
"                                                                                                    ",
"                                                                                                    ",
"                                                                                                    ",
"                                                                                                    ",
"                                                                                                    ",
"                                                                                                    ",
"                                                                                                    ",
"                                                                                                    ",
"                                                                                                    ",
"                                                                                                    ",
"                                                                                                    ",
"                                                                                                    "
};
