/* XPM */
static char *out[] = {
/* columns rows colors chars-per-pixel */
"100 100 5 1 ",
"  c None",
". c #D42A41",
"X c #FC5842",
"o c #5633A8",
"O c #873AD5",
/* pixels */
"                                                                                                    ",
"                                                                                                    ",
"                                                                                                    ",
"                                                                                                    ",
"                                                                                                    ",
"                                                                                                    ",
"                                                                                                    ",
"                                                                                                    ",
"                                                                                                    ",
"                                                                                                    ",
"                                                                                                    ",
"                                                                                                    ",
"                                                                                                    ",
"                                                                                                    ",
"                                                                                                    ",
"                                                                                                    ",
"                                                                                                    ",
"                                                                                                    ",
"                                                                                                    ",
"                                                                                                    ",
"                                                                                                    ",
"                                 O                                                                  ",
"                                OOO                                OOO                              ",
"                               OOOO  XX                           OOOOXX                            ",
"                               OOOXX....                        XXXOO.XX.                           ",
"                              OOOXX..XX.                       .XX.X.X..X                           ",
"                             OOOX...OXXO                      OOXX.X.XX.XX                          ",
"                          XXX Oo....O..O                      o.OO.X..XX.                           ",
"                         XXX.. X...XO.XO                XX XX OXO..XX...X                           ",
"                       OXXXXOO.XOXXXX...                XX.XX.OXO.X..XXX.X                          ",
"                      OOO..X...X..X.......              ..O..O.O..X.X....OoO                        ",
"                      OOO XX..X..XX..XX....            O  O.X..XOOX.XX...X..O                       ",
"                       OoXXX.X..X...X.XOXX.               OO.X.XO.OOXXX..XX.O                       ",
"                         O.OXX.XX..XX..OXXO                ..OOXX.O.O..X.XXX                        ",
"                         OXO..XXXOOXXOOO..O                OOX.O..OOOXX.XO..                        ",
"                         XX.XX..O....X.OO O                ..O.OO.X......OOO                        ",
"                          XXX...OX..XX.X.                 OOXOO.X..X..OXXXO                         ",
"                          XX..X.X....X.XOO                 ..XO.XX.XX...XOO.                        ",
"                           ..XX.OO.OOO.O.                  OOXOOXXX..OO.. .XX                       ",
"                            ...XX.OO  OO                    .OO.O..OX.XX...XX                       ",
"                             ..XX..                          O.OOOO. .XX..O.                        ",
"                              O.OOO                            O    OOO..                           ",
"                               Ooo                                                                  ",
"                                                                                                    ",
"                                                                                                    ",
"                                                                                                    ",
"                                                                                                    ",
"                                                                                                    ",
"                                                                                                    ",
"                                                                                                    ",
"                                                                                                    ",
"                                                                                                    ",
"                                                                                                    ",
"                                                                                                    ",
"                                                                                                    ",
"                                                                                                    ",
"                                                              O                                     ",
"                                                             .O..                                   ",
"                                                            OOXXX                                   ",
"                              ..OO                           .XX.   OO.                             ",
"                              .XX.  ..O                      OXO.Xo.O.XXOOO..                       ",
"                       .O   ....O..XXXXO                    .O.O..OOOO..o.XX..                      ",
"                      XX.   XXXXXOOX.XX.                   OOOOXXX.O.XX...XX..                      ",
"                      XX.  ....XX.....X.                    .X.XX.OX.XX..OO..                       ",
"                       ..OX.....X.O..OX.                   O.X.XO...OO..X..O                        ",
"                       XXX.XXX..X.X.XXO                   .OOOX.O..X.....O.O.                       ",
"                        XXX..OX..OOXXXOO                 OOXX.OOXXX.XX..OXOXXX                      ",
"                      .OO..XXX.XXXO..X..                  .XX.X.XX......O...X                       ",
"                     XXXXX..XX..XX.O.OXXO                 .X..O.X..XXXOOXXXXX                       ",
"                      XX.XX...O..X.XXXOX.                   OOXO..XX..X.XX.X                        ",
"                       X  X.XXXO....XX.X                     O.O..X..XX.X..                         ",
"                           O.XX.XX...X.                      O..O..XX...XO                          ",
"                          OO..X.....XX.                      OXXO..X...XX                           ",
"                           XXXOX..X....                    O .XX. OOXXXX                            ",
"                            XX.XX.XX..                     OO....  .XX.                             ",
"                             XOOXO                         .X...   .X..                             ",
"                              OOO                          XXX                                      ",
"                               O                            X                                       ",
"                                                                                                    ",
"                                                                                                    ",
"                                                                                                    ",
"                                                                                                    ",
"                                                                                                    ",
"                                                                                                    ",
"                                                                                                    ",
"                                                                                                    ",
"                                                                                                    ",
"                                                                                                    ",
"                                                                                                    ",
"                                                                                                    ",
"                                                                                                    ",
"                                                                                                    ",
"                                                                                                    ",
"                                                                                                    ",
"                                                                                                    ",
"                                                                                                    ",
"                                                                                                    ",
"                                                                                                    ",
"                                                                                                    ",
"                                                                                                    "
};
