/* XPM */
static char *out[] = {
/* columns rows colors chars-per-pixel */
"100 100 5 1 ",
"  c None",
". c #D42A41",
"X c #FC5842",
"o c #5633A8",
"O c #873AD5",
/* pixels */
"                                                                                                    ",
"                                                                                                    ",
"                                                                                                    ",
"                                                                                                    ",
"                                                                                                    ",
"                                                                                                    ",
"                                                                                                    ",
"                                                                                                    ",
"                                                                                                    ",
"                                                                                                    ",
"                                                                                                    ",
"                                                                                                    ",
"                                                                                                    ",
"                                                                                                    ",
"                                                                                                    ",
"                                                                                                    ",
"                                                                                                    ",
"                                                                                                    ",
"                                                                                                    ",
"                                                                                                    ",
"                                                                                                    ",
"                                OO                                                                  ",
"                               OOOO                                OOOOO                            ",
"                               OOXoXX.X                           OOOOOOO                           ",
"                             OOOXX.X.X..                         XXOOoOOO                           ",
"                             OOXXXOOXXXO                        .XX.XXXXXO                          ",
"                             OOo.O.OOXOO                       OOXOOX.XXX                           ",
"                         XX   oXXXXX.OO                        X.O.XO.X.XX                          ",
"                        XXX.O ..X.XXX.O                  XXXX .XX.X..XOXXXX                         ",
"                       XXXXOXOOX.OXX....                .X.XX.OXO.X.X...X.                          ",
"                        ..O..X.X.XX..XX.                O.O..O.OOOX.XX.XXOXoO                       ",
"                         OX.X.X..XXOOXXOX               O O.XX.X..OOXXX...XXOO                      ",
"                         XXXX.XX...X...OX.                OOXX.XXOO.O...OOXXXO                      ",
"                          ...OXXXOXX.OOO.O                 .OOOXXX.OO..XX.O.O                       ",
"                         OOOOOO..XX..X.OOO                 OOO.O..XOOXXXXXO                         ",
"                        OOO.XXXXX...XX.Xo                  .X.OOOX.XXO.O.O                          ",
"                         OXXXXXXX.OXXXOO.                 OOXXO.X..XXXXOOO                          ",
"                          XX.XX..X...O.XOO                 ..XO.XX.O.OO..O                          ",
"                           .OX..OO.ooO.O.                  OOXOOXXXOX.XX..                          ",
"                             ..XX.OO   O                    .O..O...O.XX..                          ",
"                             ..XX..                          O  O ooOOO..                           ",
"                                OO                                                                  ",
"                                                                                                    ",
"                                                                                                    ",
"                                                                                                    ",
"                                                                                                    ",
"                                                                                                    ",
"                                                                                                    ",
"                                                                                                    ",
"                                                                                                    ",
"                                                                                                    ",
"                                                                                                    ",
"                                                                                                    ",
"                                                                                                    ",
"                                                                                                    ",
"                                                                                                    ",
"                                                                                                    ",
"                                                               O                                    ",
"                                                              .O..                                  ",
"                              ..OO                           OOXXX                                  ",
"                             ..XX. Oo                         .OX.o OO.                             ",
"                      Oo     ...O.OO..O                       .O..oOOO..OO.                         ",
"                     OOO    XXXXXOOXXXXO                     OOXXXO..XX...XX                        ",
"                     OOO   .O..XX..XOXX.                    OO.XX....XX...XX                        ",
"                      Oo .XXX...X.X..OXO                   O...X.OOOOO..OO.O                        ",
"                       .OX.O...XX..XXXO.                  .O..X..O..XXOO. .O.                       ",
"                      XXXXXX.....OX.XX.                  OOXOOXOOXXXXXXOO.OXXX                      ",
"                       XX.XXXX.XXXO..X.O                  .XX.XX.XX..XX..OXXX                       ",
"                     .O XXXXXX..XX.XXOX.                   XO.XO.X.....X.O.X                        ",
"                    XXXO XXXXX...X..O.X.                     OX..OOXXXXOOXXX                        ",
"                     XX.  X X.O..X.XXOOO                     O.XXX.XX.XO.XX                         ",
"                      X    OXX.XX.XXX..                      O..O..X..O.XX                          ",
"                          OOOXXXXO..XX.                      OXXOOX.X..OX                           ",
"                           .OOX.X.XXXX                       .XX. OOXXXXXX                          ",
"                          XXXO.XXXXX                       O ....  .XX.XX                           ",
"                           XX.OXXO                         O....    X  X                            ",
"                            XOOO                           .XX.                                     ",
"                            OOO                             XX                                      ",
"                                                                                                    ",
"                                                                                                    ",
"                                                                                                    ",
"                                                                                                    ",
"                                                                                                    ",
"                                                                                                    ",
"                                                                                                    ",
"                                                                                                    ",
"                                                                                                    ",
"                                                                                                    ",
"                                                                                                    ",
"                                                                                                    ",
"                                                                                                    ",
"                                                                                                    ",
"                                                                                                    ",
"                                                                                                    ",
"                                                                                                    ",
"                                                                                                    ",
"                                                                                                    ",
"                                                                                                    ",
"                                                                                                    ",
"                                                                                                    "
};
