/* XPM */
static char *out[] = {
/* columns rows colors chars-per-pixel */
"100 100 5 1 ",
"  c None",
". c #D42A41",
"X c #FC5842",
"o c #5633A8",
"O c #873AD5",
/* pixels */
"                                                                                                    ",
"                                                                                                    ",
"                                                                                                    ",
"                                                                                                    ",
"                                                                                                    ",
"                                                                                                    ",
"                                                                                                    ",
"                                                                                                    ",
"                                                                                                    ",
"                                                                                                    ",
"                                                                                                    ",
"                                                                                                    ",
"                                                                                                    ",
"                                                                                                    ",
"                                                                                                    ",
"                                                                                                    ",
"                                                                                                    ",
"                                                                                                    ",
"                                                                                                    ",
"                                                                                                    ",
"                                                                                                    ",
"                                OO                                                                  ",
"                               OOOO  OO                            OO OO                            ",
"                               OOXoOOOOO                         XXOOOOOO                           ",
"                              OOXX.OXXOo                        .XX.XoXOO                           ",
"                             OOXXXO.XX.o                       O.XX.X.XXOO                          ",
"                            OOOo.O.O..O                       oOOXOOOOXXX                           ",
"                         OX  OOXXXXOo O                        X.O.XO.O.XX                          ",
"                        OXX.  ..X.XX.OO                  XX  X.XXO.XXXOXXXX                         ",
"                       OXXXOXXXO.OXXXXOO                .XX..OOXOO.XXXOXXXO                         ",
"                        OXOXXXX..XX.XXXo                O..OX..O.OX.XXXO.XXoO                       ",
"                         XX.XX.XXXX..X.XX               O o.XXoOXOOOXXXX..XXOO                      ",
"                         XXXXXXX..OX.OOXX.                OOXXX.XX..O..XOOXXXO                      ",
"                          O..XXXOOXX.OO..O                 .O.OOXXXOOOXXX.O.O                       ",
"                         OOO.O.O.XXXOOOOoO                  O.O.O.XXOXXXXXO                         ",
"                        OOOXXXXOXO.XX.OXo                  OO.O.OO.XXO.O.                           ",
"                         OOXXXXXXOOXXXOX.                 ooOXX.XOOXXXXOOO                          ",
"                         OOO.XX..OO...XXOO                 O.XO.XX.O.O.OOO                          ",
"                          OoXXXXX..oO .O.                   .XOOXXXOX.XXO                           ",
"                             .OXX.OO   O                     O .O.OO..XX                            ",
"                              OO.OO                             O ooOO.                             ",
"                                 O                                                                  ",
"                                                                                                    ",
"                                                                                                    ",
"                                                                                                    ",
"                                                                                                    ",
"                                                                                                    ",
"                                                                                                    ",
"                                                                                                    ",
"                                                                                                    ",
"                                                                                                    ",
"                                                                                                    ",
"                                                                                                    ",
"                                                                                                    ",
"                                                                                                    ",
"                                                                                                    ",
"                                                                                                    ",
"                                                               O                                    ",
"                                                              .O.                                   ",
"                                .O                           OOXXX                                  ",
"                               XX. Oo                         .XO o  OO.                            ",
"                              .XO.OO..O                       O.O.oO.O.XXOO.                        ",
"                     OOo     XX.X.OXXXXO                     .OOXXX.OO.O. .XX                       ",
"                    OOOo   .OXXXX.OXOXX.                    OOX.XX..O.XXXX.XX                       ",
"                     OOOOoXXXXXXX..O.OXO                    ..XXXXOOX.XXXOO.o                       ",
"                      O.OOo..OOO.O.XXXO.                   OOXX.XO..OO.O.O OoO                      ",
"                      XXXO.XXXOX.OXXXX.                   .O.OXX.O.XXXXOO.ooOOO                     ",
"                       XX.X.OXXXXXOX.XXO                 OOXXX.OOXXX.XX..OXOOO                      ",
"                     .O XXXXXOXXXX...X.O                  .XX.XO.XXX.X.O.O. O                       ",
"                    XXXO XXXX.OXXX..OOOO                   XOOXO.XOXXXXOOXXX                        ",
"                     XX.  XXX.OXXXXXXOOO                     .X.XX.XXXXX.XXX                        ",
"                      X    OXX.XX.XXX..                      OXXOOXXXXOX.XX                         ",
"                          OOoXXXXO..XX.                      O..O.XXXoOoOX                          ",
"                           .OXXXX.XXXX                       .XX.OX.O.oOOO                          ",
"                          XXXO.XXXXX                       o  XX  OOXXXOO                           ",
"                           XX. XXO                         oOOo    .XX O                            ",
"                            XOO                            OOOO     X                               ",
"                             OOo                            OO                                      ",
"                              O                                                                     ",
"                                                                                                    ",
"                                                                                                    ",
"                                                                                                    ",
"                                                                                                    ",
"                                                                                                    ",
"                                                                                                    ",
"                                                                                                    ",
"                                                                                                    ",
"                                                                                                    ",
"                                                                                                    ",
"                                                                                                    ",
"                                                                                                    ",
"                                                                                                    ",
"                                                                                                    ",
"                                                                                                    ",
"                                                                                                    ",
"                                                                                                    ",
"                                                                                                    ",
"                                                                                                    ",
"                                                                                                    ",
"                                                                                                    "
};
