/* XPM */
static char *out[] = {
/* columns rows colors chars-per-pixel */
"100 100 5 1 ",
"  c None",
". c #D42A41",
"X c #FC5842",
"o c #5633A8",
"O c #873AD5",
/* pixels */
"                                                                                                    ",
"                                                                                                    ",
"                                                                                                    ",
"                                                                                                    ",
"                                                                                                    ",
"                                                                                                    ",
"                                                                                                    ",
"                                                                                                    ",
"                                                                                                    ",
"                                                                                                    ",
"                                                                                                    ",
"                                                                                                    ",
"                                                                                                    ",
"                                                                                                    ",
"                                                                                                    ",
"                                                                                                    ",
"                                                                                                    ",
"                                                                                                    ",
"                                                                                                    ",
"                                                                                                    ",
"                                                                                                    ",
"                                OO                                                                  ",
"                                OO                                 OO OO                            ",
"                               OoO OO                            OOOOOOOO                           ",
"                              OOOOOOXX                          OXXXOoXOO                           ",
"                             OOOOOo.XX.                        O.XXo..XXOO                          ",
"                          X   OoOoOO..O                       oo.X.OOOXXX                           ",
"                         XX.   OXXXO. O                        XOOX.X.O.XO                          ",
"                        XXXOO O.XXXXOOO                  XX  O.XX.OXXXOXXOO                         ",
"                         .X.XoXO.OXO.OOO                .XX.OOOXXO.XXX.XXX                          ",
"                         XX.XXX..XX.XXoo                O..OXX.OXOOX.XXO.OXoO                       ",
"                        XXXOXX.XXXX.XX.XX               O oOXXX.XO.OOXXXX.XXOO                      ",
"                         .OXXXXX..OX..OXX.                 O..OOXX.O.O.XOOXXXO                      ",
"                         OOO.XXXOOXX.OO..O                  OOX.O.XOOOX.X.O.O                       ",
"                         OOXXO.O.XXXXOO  O                  o.OOOOXXXX.XXXO                         ",
"                        OOOXXXXOX..XX.O.                    OOOO...XXO.O.O                          ",
"                         OOO.XXXXOXXXOOXO                  oo.Xo.XXXXX.OXOO                         ",
"                         OOO XX.OXO.O...                    OXXO.XXO.OO.OOO                         ",
"                          OoXXXX.X.oOO                       .OO.X.OXX.XXO                          ",
"                             .XX.X.                            .OOOO. .XX                           ",
"                              O.OO                              O    OO.                            ",
"                                                                                                    ",
"                                                                                                    ",
"                                                                                                    ",
"                                                                                                    ",
"                                                                                                    ",
"                                                                                                    ",
"                                                                                                    ",
"                                                                                                    ",
"                                                                                                    ",
"                                                                                                    ",
"                                                                                                    ",
"                                                                                                    ",
"                                                                                                    ",
"                                                                                                    ",
"                                                                                                    ",
"                                                                                                    ",
"                                                               O                                    ",
"                                                              .O.                                   ",
"                               .O                            OOXXX                                  ",
"                              XX.  Oo                         .XO    OoO                            ",
"                              XX.OOO.O                        O.O.  .O.OOOO.                        ",
"                      Oo    ...OOOOXXXO                      .OOXXX.OO.O...XX                       ",
"                     OOO   XXXXXO.XXXX.                     OOX.XX..O.XXXX.XX                       ",
"                     OOO  OOXXXX....OX.O                    ..XXXXOOX.XXXOO.                        ",
"                      OOooO.OXXX.OXXXOX.                   OOXXO.OO.OO.O..  o                       ",
"                      OOOoXXXOOXOXXXX.X                   .O.OOX.O.XXXXOO. OoO                      ",
"                       OOXX.O.X.X.X.XXOo                 OOXXX.OOXXXOXXO.XOoOOO                     ",
"                     Oo OOXXXOXXX.XoXX.O                  .XX.XX.XXO..OO..O.OO                      ",
"                    OOOo OXXX.XXXXO.OOOo                   X oXO.XOXXXO.OOXXX                       ",
"                     OOO  OXX.O.X.XXXOOO                     oO.XX.XX.XXX.XX                        ",
"                      O     XX.XX.OXX..O                     OOOOOOXXXXX.XX                         ",
"                            oXXXXO..XX.                       OO..X.XXXoOX                          ",
"                           .OOXX..XXXX                        .X..X XO.OOO                          ",
"                          XXXO.X.XXX                       o  XXX  OOXXXO                           ",
"                           XX. XXXX                        oOOoX    .XXO                            ",
"                            X                              OOOO      X                              ",
"                                                            OO                                      ",
"                                                                                                    ",
"                                                                                                    ",
"                                                                                                    ",
"                                                                                                    ",
"                                                                                                    ",
"                                                                                                    ",
"                                                                                                    ",
"                                                                                                    ",
"                                                                                                    ",
"                                                                                                    ",
"                                                                                                    ",
"                                                                                                    ",
"                                                                                                    ",
"                                                                                                    ",
"                                                                                                    ",
"                                                                                                    ",
"                                                                                                    ",
"                                                                                                    ",
"                                                                                                    ",
"                                                                                                    ",
"                                                                                                    ",
"                                                                                                    "
};
