/* XPM */
static char *out[] = {
/* columns rows colors chars-per-pixel */
"100 100 5 1 ",
"  c None",
". c #D42A41",
"X c #FC5842",
"o c #5633A8",
"O c #873AD5",
/* pixels */
"                                                                                                    ",
"                                                                                                    ",
"                                                                                                    ",
"                                                                                                    ",
"                                                                                                    ",
"                                                                                                    ",
"                                                                                                    ",
"                                                                                                    ",
"                                                                                                    ",
"                                                                                                    ",
"                                                                                                    ",
"                                                                                                    ",
"                                                                                                    ",
"                                                                                                    ",
"                                                                                                    ",
"                                                                                                    ",
"                                                                                                    ",
"                                                                                                    ",
"                                                                                                    ",
"                                                                                                    ",
"                                                                                                    ",
"                                                                   OO                               ",
"                                                                   OO OO                            ",
"                               O O OO                            XOooOOOO                           ",
"                              OOOOOOXX                          .XXO XXOO                           ",
"                             OOOOOo.XX.                        OOXXX..XXOO                          ",
"                         O    o OoXO..O                         .O.OXOXXX                           ",
"                        OOOO   OO.XO.OO                  XX    OoO..XXO.XO                          ",
"                       OOOooO OOOXXXOOOO                .XX.  OOOOOXXXXXXXO                         ",
"                        OoXOOoXXXO.OXXo                 ....OooOOOOXXX.O.O                          ",
"                         XX.XXX.XX..XX.                 O  OOOOoXO.O.XXOOOX                         ",
"                        XXXXX.XXXXXO..OXX                 oooOX.XOOOOXXXo.XX                        ",
"                         .O.X.XX.XX.XOOXX.                 OO.OOXX.O.O.XXOXXX                       ",
"                        OOOOOXXXOOXOX.O..O                  OOX.O.XOOOXXXXO.                        ",
"                        OOOooO.O..OXX.O  O                  o.O.OOXXX.O..OO                         ",
"                         OOoOOXOX.XXXOO.                    OOOOOXO.XOOOOO                          ",
"                         OOO XXXXOO.O.XOO                  ooOOO.XXXXXOOOOO                         ",
"                         OOOXXX.O.OOO.O.                    ooOOOXXX.OO.OOO                         ",
"                          Ooo.XX.OOoooO                      OOO.O..XX.XXO                          ",
"                              XX..O                           o.OOOO. .XX                           ",
"                               .OO                              O    OO.                            ",
"                                                                                                    ",
"                                                                                                    ",
"                                                                                                    ",
"                                                                                                    ",
"                                                                                                    ",
"                                                                                                    ",
"                                                                                                    ",
"                                                                                                    ",
"                                                                                                    ",
"                                                                                                    ",
"                                                                                                    ",
"                                                                                                    ",
"                                                                                                    ",
"                                                                                                    ",
"                                                                                                    ",
"                                                                                                    ",
"                                                               O                                    ",
"                                                              .O.                                   ",
"                               .O                            OOXXX                                  ",
"                              XX.                             .XX    OoO                            ",
"                              XX.  O.O                        OXO   .O.OOOO.                        ",
"                      Oo    ...OO OXXXO                      .O.O.OOOO.OO..XX                       ",
"                     OOO   XXXXXOoOOXX.                     OOOOXXX.O.XX.X.XX                       ",
"                     OOO  OoXXXX...OOX.O                     .X.XXOOX.XX.OO.                        ",
"                      OoOOO.OXXXO.O.OXX.                   OOOXOXOO.OO.OO.  o                       ",
"                     OOOoOXXXOXX.XXXXOX                    O...X.O.XX.XXoO OoO                      ",
"                      OOOXX.OXX.OXXXX.oo                   .XX.OOXXXO.XXOOOoOOO                     ",
"                     OoOOoXXXOXXXOXoXOOO                    XXXX.XXO...OO.O.OO                      ",
"                    OOOOOOXXX.XXX.o.OOO                      oXoOXOXXXX.OOXXX                       ",
"                     OOOOOOXX.OXX.XXXOOo                     oOOO..XX.XXX.XX                        ",
"                      O  O  .OO.XOXXX.OO                     OOOOOOXXXXX.XX                         ",
"                           XXX.XX..XX.O                       O..O..XXXoOX                          ",
"                            XX.XXXXXX                         .XX.  XO.OOO                          ",
"                           OoXOX.XX.                       o   XX  OOXXXO                           ",
"                           OOoOOOXX                        oOOo     .XXO                            ",
"                          OOO  OOO                         OOOO      X                              ",
"                                                            OO                                      ",
"                                                                                                    ",
"                                                                                                    ",
"                                                                                                    ",
"                                                                                                    ",
"                                                                                                    ",
"                                                                                                    ",
"                                                                                                    ",
"                                                                                                    ",
"                                                                                                    ",
"                                                                                                    ",
"                                                                                                    ",
"                                                                                                    ",
"                                                                                                    ",
"                                                                                                    ",
"                                                                                                    ",
"                                                                                                    ",
"                                                                                                    ",
"                                                                                                    ",
"                                                                                                    ",
"                                                                                                    ",
"                                                                                                    ",
"                                                                                                    "
};
