/* XPM */
static char *out[] = {
/* columns rows colors chars-per-pixel */
"100 100 5 1 ",
"  c None",
". c #D42A41",
"X c #FC5842",
"o c #5633A8",
"O c #873AD5",
/* pixels */
"                                                                                                    ",
"                                                                                                    ",
"                                                                                                    ",
"                                                                                                    ",
"                                                                                                    ",
"                                                                                                    ",
"                                                                                                    ",
"                                                                                                    ",
"                                                                                                    ",
"                                                                                                    ",
"                                                                                                    ",
"                                                                                                    ",
"                                                                                                    ",
"                                                                                                    ",
"                                                                                                    ",
"                                                                                                    ",
"                                                                                                    ",
"                                                                                                    ",
"                                                                                                    ",
"                                                                                                    ",
"                                                                                                    ",
"                                                                      OO                            ",
"                                   OO                                OOOO                           ",
"                               O OOOOO                           OOO oOOO                           ",
"                              OOOOOOXX                          OOOOOXXXOO                          ",
"                             OOOOOo.XX.                        ooOOOOX.XOOO                         ",
"                         O    o OoXO..O                         OoOOXOXXXO                          ",
"                        OOOO   OO.XO. O                  OO    OOoOXXX..XO                          ",
"                       OOOooO OOXXXXOO                  OOOO  ooOo.XXXXXXXO                         ",
"                        OoOOXOXOXX.OXXo                 oOOoOO OoOOXXXXX.O                          ",
"                         OOXX.XXXXO.XX.XX               o  oOOO XO.OOXXOOOOX                        ",
"                        OOXXXOOX.OXO..OXX.                 ooOX.XXOO.O.XoO.XX                       ",
"                         Oo.O.XX.XX.XOO..O                 oO.OOXXX..O.XXOOXXX                      ",
"                        OOoOOXXXOOXOX.O  O                  OOX.O.XXOOXXXO.O.                       ",
"                         oOOOO.O..OXX.                       .O.OOXXX.O.oOOO                        ",
"                          OoOOXO.XXXXOO                     OOOo.XO.XXOOOO                          ",
"                         OOOOXXXXO..O.oo                   ooOOO.XXOXXXOOOO                         ",
"                         OOOXXX.O.oOOoO                     ooOOOXXXOOO.OOO                         ",
"                          OoX.XX.OO  o                       Ooo.O..OX.XXO                          ",
"                             .XX..o                           oOoOOO. .XX                           ",
"                               .OO                              o    OO.                            ",
"                                                                                                    ",
"                                                                                                    ",
"                                                                                                    ",
"                                                                                                    ",
"                                                                                                    ",
"                                                                                                    ",
"                                                                                                    ",
"                                                                                                    ",
"                                                                                                    ",
"                                                                                                    ",
"                                                                                                    ",
"                                                                                                    ",
"                                                                                                    ",
"                                                                                                    ",
"                                                                                                    ",
"                                                                                                    ",
"                                                                                                    ",
"                                                               ..                                   ",
"                                                              OXXX                                  ",
"                                                               .XX   ooO                            ",
"                                   Oo                         ooOX  OoOOOOO.                        ",
"                      Oo    ...Oo OO.O                        O.O.OOOO.OO .XX                       ",
"                     OOO   XXXXXOoOOXXO                      .OOXXX.O.XXO..XX                       ",
"                     OOO  OoXXXX.OOXXXo                     OOX.XXOOX.XX.OO.                        ",
"                      OoOOO.OXXXO.O.OOO                    O .XXX.O.OO.O.XX o                       ",
"                     OOOoOXXXOXX.XXXXOo                    O..XOO..XXXXXo.OOoO                      ",
"                      OOOOO.O.X.OXXXX.oo                   .XOOXOXXXO.XXOOOOOOO                     ",
"                     OOOOoXXXXXXXOXoXOOO                    XX.XX.XXO..Oo.O.OO                      ",
"                    OOOOOOXXX.XXX.oOOOO                      OOXOOXXO.X.OOXXX                       ",
"                     OO OOOXX.OXX.O.OOOo                     oOOO.OOXXXXX.XX                        ",
"                         OXX.OO.XOXXXOOO                     OOOOOX.XXXXoOXO                        ",
"                           XXX.XX.XXX.O                       O..O.XXXXoOOO                         ",
"                            XX.XXO.XX.                        .XX. X.OXOOO                          ",
"                           OoXOOOOOXX                          XX  OOXXXO                           ",
"                          OOOoOOOOO                        o        .XXO                            ",
"                           OOOOOOO                         oOOo      X                              ",
"                            O                              OOOO                                     ",
"                                                            OO                                      ",
"                                                                                                    ",
"                                                                                                    ",
"                                                                                                    ",
"                                                                                                    ",
"                                                                                                    ",
"                                                                                                    ",
"                                                                                                    ",
"                                                                                                    ",
"                                                                                                    ",
"                                                                                                    ",
"                                                                                                    ",
"                                                                                                    ",
"                                                                                                    ",
"                                                                                                    ",
"                                                                                                    ",
"                                                                                                    ",
"                                                                                                    ",
"                                                                                                    ",
"                                                                                                    ",
"                                                                                                    ",
"                                                                                                    "
};
