/* XPM */
static char *out[] = {
/* columns rows colors chars-per-pixel */
"100 100 5 1 ",
"  c None",
". c #D42A41",
"X c #FC5842",
"o c #5633A8",
"O c #873AD5",
/* pixels */
"                                                                                                    ",
"                                                                                                    ",
"                                                                                                    ",
"                                                                                                    ",
"                                                                                                    ",
"                                                                                                    ",
"                                                                                                    ",
"                                                                                                    ",
"                                                                                                    ",
"                                                                                                    ",
"                                                                                                    ",
"                                                                                                    ",
"                                                                                                    ",
"                                                                                                    ",
"                                                                                                    ",
"                                                                                                    ",
"                                                                                                    ",
"                                                                                                    ",
"                                                                                                    ",
"                                                                                                    ",
"                                                                                                    ",
"                                   O                                  OO                            ",
"                               O  OOO                                 OO                            ",
"                              OOOOOOXX                           OOO XoXOOO                         ",
"                             OOOOOo.XX.                         OOOO.X.XXO                          ",
"                              o OOOO..O                        ooOOOOOOXXX                          ",
"                         O    OOOoOOo O                         OoOOXO.O.                           ",
"                        OOOO  OOOOXX.                    OO    OOoOXXXXOOO                          ",
"                       OOOoOO OOOXXXOO                  OOOO  ooOo.XXXXOOOO                         ",
"                        OoOOXOXOXX.OXXo                 oOOo O OoOOX.XXXOO O                        ",
"                         OOXX.XXXXO.XX.OO               o   OOO XO.OOXXXXOOOO                       ",
"                        OOXXXOOX.OXO..OOOO                 ooOO.XXOO.O..oooOOO                      ",
"                         Oo.O.XX.XX.XoOOOo                  OoOOXXX.OOOXXOOoO                       ",
"                        OOoOOO.X.XXOX.o  o                   oO.O.XXOOXXXOOo                        ",
"                         o OOOOOO.OXX.O                      OOOO.X.XXO.oO                          ",
"                          OOXOXX.XXXXOO                     OOOo.XXOXXXOO                           ",
"                         OOOXXXXXO..O.oo                   ooOOO.XX.O.oO                            ",
"                         OOOXX..O.oOOoO                     ooOOO.oOOOO.                            ",
"                          O  OXX.OO  o                       OooOOOOOO.XX                           ",
"                             OXX..o                           oOoOooO .XX                           ",
"                               .OO                              o    OO.                            ",
"                                                                                                    ",
"                                                                                                    ",
"                                                                                                    ",
"                                                                                                    ",
"                                                                                                    ",
"                                                                                                    ",
"                                                                                                    ",
"                                                                                                    ",
"                                                                                                    ",
"                                                                                                    ",
"                                                                                                    ",
"                                                                                                    ",
"                                                                                                    ",
"                                                                                                    ",
"                                                                                                    ",
"                                                                                                    ",
"                                                                                                    ",
"                                                                O                                   ",
"                                                               .X.                                  ",
"                                                               .XX    o                             ",
"                                   Oo                          oOO   OoO  OO.                       ",
"                            O.OOo OOoo                         .O.O oO..O  .XX                      ",
"                     OOo   OXXXOOoOOOO                        OOXXXoOO.XXO .XX                      ",
"                     OOo  OoOXX.oOOoOO                        o.XXOO.O.XXOOO.                       ",
"                       oOOOOoOX.OOo.OOo                      OoOX.O.OO..OOO o                       ",
"                      OOOOO.OOXX.OXXXOO                     Oo.OO.O.XXXooOOOoO                      ",
"                      OOOOX.OOX.OOOXX.oo                   OOOOXOOXXXXOOOOOOOOO                     ",
"                    OoOO OXXXOXXXOOOXOOO                    OO.XX.XXO.oO OOOOO                      ",
"                   OOOo   OXX.XXX.oOOOO                      OOXOOX.O.XOo.O.O                       ",
"                    OOO   OOXOOXX..OOoOo                     oOoO.OOXXXOOOXXX                       ",
"                     O     O.OO.XOXXOOOO                     OOOOoX.XXXXo.XX                        ",
"                           XXX.XX.XX..O                       OOOOOOXXXOOOX                         ",
"                            XX.XXOOXXO                        .... O XoOOO                          ",
"                          Oo XOOOOOOO                          XX   OoOOOO                          ",
"                         OOOoOOOOOO                        o       ooOOO O                          ",
"                          OOO OO                           oOOo     OOO                             ",
"                           O                               OOOO      O                              ",
"                                                            OO                                      ",
"                                                                                                    ",
"                                                                                                    ",
"                                                                                                    ",
"                                                                                                    ",
"                                                                                                    ",
"                                                                                                    ",
"                                                                                                    ",
"                                                                                                    ",
"                                                                                                    ",
"                                                                                                    ",
"                                                                                                    ",
"                                                                                                    ",
"                                                                                                    ",
"                                                                                                    ",
"                                                                                                    ",
"                                                                                                    ",
"                                                                                                    ",
"                                                                                                    ",
"                                                                                                    ",
"                                                                                                    ",
"                                                                                                    "
};
