/* XPM */
static char *out[] = {
/* columns rows colors chars-per-pixel */
"100 100 5 1 ",
"  c None",
". c #D42A41",
"X c #FC5842",
"o c #5633A8",
"O c #873AD5",
/* pixels */
"                                                                                                    ",
"                                                                                                    ",
"                                                                                                    ",
"                                                                                                    ",
"                                                                                                    ",
"                                                                                                    ",
"                                                                                                    ",
"                                                                                                    ",
"                                                                                                    ",
"                                                                                                    ",
"                                                                                                    ",
"                                                                                                    ",
"                                                                                                    ",
"                                                                                                    ",
"                                                                                                    ",
"                                                                                                    ",
"                                                                                                    ",
"                                                                                                    ",
"                                                                                                    ",
"                                                                                                    ",
"                                                                                                    ",
"                                                                      OO                            ",
"                               OO OO                                  OOO                           ",
"                              OOOOOOXX                           OOO OoOOO                          ",
"                             OOOOoo.XX.                          OOOOOOOOOO                         ",
"                              oOoOOO..O                         ooOooooOOO                          ",
"                         O    OOoOOOO O                         OOoOOoOoO                           ",
"                        OOO  OOOOOOOoo                   OO    OOOooXoOoOO                          ",
"                       OOOoOO OOOOOoOO                  OOOO  ooOoo.XXXOOOO                         ",
"                        OoOOXOOOOOOoXXo                 oOOo O OoOOO.XXXOO O                        ",
"                        OOOXX.XOOOo.XX.OO               o   OOO oOOOOXXXXoOOO                       ",
"                        OOXXXXX.OoXO..OOOO                 ooOOO.XOO.O..OooOOO                      ",
"                         OO.XXXOOXX.OoOOOo                  OoOOXXX.OOOOOOOoO                       ",
"                        OOOOO.O.XXXOXOo  o                   ooO..OOOoOOOOOo                        ",
"                         OoOOOOOo.OXX.                       OOOO.OOOOoOoO                          ",
"                        OOO OOOOOOXXXOO                     OOOo.XXoOOOOO                           ",
"                        OOO OOOOXoO.O.oo                   ooOOo.XXOoOOO                            ",
"                         OoOOOO.O.ooOoO                     ooOOO.oOoOO.X                           ",
"                            OoXX.OO  o                       OooOOOooOOXXX                          ",
"                             oXX..o                           oOoO    ..X                           ",
"                               .OO                              o      .                            ",
"                                                                                                    ",
"                                                                                                    ",
"                                                                                                    ",
"                                                                                                    ",
"                                                                                                    ",
"                                                                                                    ",
"                                                                                                    ",
"                                                                                                    ",
"                                                                                                    ",
"                                                                                                    ",
"                                                                                                    ",
"                                                                                                    ",
"                                                                                                    ",
"                                                                                                    ",
"                                                                                                    ",
"                                                                                                    ",
"                                                                                                    ",
"                                                                O                                   ",
"                                                               .O.                                  ",
"                                                              OOXXX   o                             ",
"                                                               .XO   OoO  ooO                       ",
"                            .O Oo  Oo                           .OO ooOOO  OOO                      ",
"                     Oo    XXXOOOoOOOo                         OOXXoOoOooO OOO                      ",
"                     Oo   OoXX.OOOOOOo                        oo.XXOOoOoOOooO                       ",
"                       OoOOOoXO.OOO.O                       oOoooOXooOOOOOO                         ",
"                      OoOoOOoOXX.OXXXO                      ooOoO.O.OOOooOO                         ",
"                     OOOoOOOOoX.OOOXX.o                     OooOO.O.XOOOOOOO                        ",
"                      OOO OoOXXXXOOOXOO                     OOOOOOXXXOoOOOOO                        ",
"                       O  OOoOXXX.ooOOo                      OOOo.XXO.oOooOO                        ",
"                     Oo  OOOOOOXX.OoooO                      oOoOOXOXXXOOoOOO                       ",
"                    OOO   OOOoOOXOOOoo                       OOOOOO.XXOOooOOO                       ",
"                    OOO    OOOOOOOOOOO                        OOOooOXOOoOOOOO                       ",
"                     Oo     OOOOoOOOOO                        O..OOOOOOOO O                         ",
"                          Oo OOOOOOOO                         .XX. OOoO                             ",
"                         OOOoOOOOOO                        o   XX  ooOOO                            ",
"                          OOO  O                           oOOo     OOO                             ",
"                           O                               OOOO      O                              ",
"                                                            OO                                      ",
"                                                                                                    ",
"                                                                                                    ",
"                                                                                                    ",
"                                                                                                    ",
"                                                                                                    ",
"                                                                                                    ",
"                                                                                                    ",
"                                                                                                    ",
"                                                                                                    ",
"                                                                                                    ",
"                                                                                                    ",
"                                                                                                    ",
"                                                                                                    ",
"                                                                                                    ",
"                                                                                                    ",
"                                                                                                    ",
"                                                                                                    ",
"                                                                                                    ",
"                                                                                                    ",
"                                                                                                    ",
"                                                                                                    "
};
