/* XPM */
static char *out[] = {
/* columns rows colors chars-per-pixel */
"100 100 3 1 ",
"  c None",
". c #5633A8",
"X c #873AD5",
/* pixels */
"                                                                                                    ",
"                                                                                                    ",
"                                                                                                    ",
"                                                                                                    ",
"                                                                                                    ",
"                                                                                                    ",
"                                                                                                    ",
"                                                                                                    ",
"                                                                                                    ",
"                                                                                                    ",
"                                                                                                    ",
"                                                                                                    ",
"                                                                                                    ",
"                                                                                                    ",
"                                                                                                    ",
"                                                                                                    ",
"                                                                                                    ",
"                                                                                                    ",
"                                                                                                    ",
"                                                                                                    ",
"                                                                                                    ",
"                                                                                                    ",
"                                                                  X     X                           ",
"                                   XX                            XXX  XXXX                          ",
"                                  XXXX                          ..XXXXXXXXX                         ",
"                               X X.XX.                           X.X...XXX                          ",
"                          X   XXXX.X..                          XX.X XX.X                           ",
"                         XX. XXXXXX..                    XX    .XXXXXX..XX                          ",
"                        XXX XX...X.X                    XXXX    X..XXXX XXX                         ",
"                        XXX.XXXXXXX    X                .XX.   . XXXXXXX .                          ",
"                       XXX.XXXXXXX..X XXX               .     XXXX....XXXX.XX                       ",
"                        X.XXXXXXXXXXX XXXX                    X..XXX.X.XXX.XX                       ",
"                         . XXXX..X... ..X                    ..XX.XX.X..X.XX                        ",
"                            XX.X..XXX .                       X...XXXXX. .XX                        ",
"                           XXX.X..XXX.                         . X.XXX .XX                          ",
"                            .X. .XXX..                        X   ..XXX.XX                          ",
"                            XXX XXX.X                        .XX  XX.X..X                           ",
"                           XXXX.XX .                          XXX..X.XXXXX                          ",
"                            XXXXX..                          . .   ..X XXX                          ",
"                             XXX.X                                    ..X                           ",
"                              X .                                                                   ",
"                                                                                                    ",
"                                                                                                    ",
"                                                                                                    ",
"                                                                                                    ",
"                                                                                                    ",
"                                                                                                    ",
"                                                                                                    ",
"                                                                                                    ",
"                                                                                                    ",
"                                                                                                    ",
"                                                                                                    ",
"                                                                                                    ",
"                                                                                                    ",
"                                                                                                    ",
"                                                                                                    ",
"                                                                                                    ",
"                                                                                                    ",
"                                                                                                    ",
"                                                                                                    ",
"                                                                                                    ",
"                                                                 .                                  ",
"                            . .    .                            X.X                                 ",
"                    XX.    XXXXXXXXXX                          ..XXX..  ..X                         ",
"                    XX.   .XXX.X.X.XX.                          XXXXX.X  XXX                        ",
"                         XXXXXXXX   X                        . ..XX..XXX.XXX                        ",
"                      ..  XXXXX.XXX.                          XXXX..XXX...X                         ",
"                     XXX   X XXXXXXX.                        .XX X.XXX.X.XX                         ",
"                      X.  X. XX. XXX                          X ..XXX.X.X.X.                        ",
"                         XXX.XXX. X ..                          .XXXX.X.X.X.X                       ",
"                          XXXXXXXX..XX                          ..XXX.XXX..XXX                      ",
"                    XX.    X X.X...X.X                         .XXXXX.XXXXXXX                       ",
"                    XX.    X.XX.XXXXX.                         XX....XXXXXXX                        ",
"                          XXX.XX XXXXX                         XXXXXXXXX  X                         ",
"                           XXXX.XX.XX                            X X X.X                            ",
"                          . XXXXXXX                                 ..XXX                           ",
"                          XX    XX                          ..       XXX                            ",
"                         XXX                                XX        X                             ",
"                                                            XX                                      ",
"                                                                                                    ",
"                                                                                                    ",
"                                                                                                    ",
"                                                                                                    ",
"                                                                                                    ",
"                                                                                                    ",
"                                                                                                    ",
"                                                                                                    ",
"                                                                                                    ",
"                                                                                                    ",
"                                                                                                    ",
"                                                                                                    ",
"                                                                                                    ",
"                                                                                                    ",
"                                                                                                    ",
"                                                                                                    ",
"                                                                                                    ",
"                                                                                                    ",
"                                                                                                    ",
"                                                                                                    ",
"                                                                                                    "
};
