/* XPM */
static char *out[] = {
/* columns rows colors chars-per-pixel */
"100 100 3 1 ",
"  c None",
". c #5633A8",
"X c #873AD5",
/* pixels */
"                                                                                                    ",
"                                                                                                    ",
"                                                                                                    ",
"                                                                                                    ",
"                                                                                                    ",
"                                                                                                    ",
"                                                                                                    ",
"                                                                                                    ",
"                                                                                                    ",
"                                                                                                    ",
"                                                                                                    ",
"                                                                                                    ",
"                                                                                                    ",
"                                                                                                    ",
"                                                                                                    ",
"                                                                                                    ",
"                                                                                                    ",
"                                                                                                    ",
"                                                                                                    ",
"                                                                                                    ",
"                                                                                                    ",
"                                                                                                    ",
"                                                                  X   X X                           ",
"                                                                 .XX XXXXX                          ",
"                                                                  XX....XXX                         ",
"                                 XX                              .X.XX.X.X                          ",
"                          X      XXX                     XX     XXX....X.                           ",
"                         XX.    XXX..                    XX    .XX. XX.X                            ",
"                        XXX  X  XXXX                     ..     XXX.X.XXX                           ",
"                         . .XXXXXX..  XX                      X. . ...XX X                          ",
"                           XXXX.XXXXX XX                      XX.XX.XX.XXXX                         ",
"                           XXXXXXXXXX ..                      .XXXXXXX.XXXXX                        ",
"                           XXXX..X.X.                          XXXXXXXX.X .                         ",
"                             X.XX.XXX                         . ...XXXX.                            ",
"                             X.. XXX..                            X.XXX                             ",
"                             X X  X.X                         X   ...XXX                            ",
"                            XXX.X  .                         .XX  .XX.X                             ",
"                            XXXX..                            XXX   ..X                             ",
"                             XXXX                            . .                                    ",
"                              X..                                                                   ",
"                                                                                                    ",
"                                                                                                    ",
"                                                                                                    ",
"                                                                                                    ",
"                                                                                                    ",
"                                                                                                    ",
"                                                                                                    ",
"                                                                                                    ",
"                                                                                                    ",
"                                                                                                    ",
"                                                                                                    ",
"                                                                                                    ",
"                                                                                                    ",
"                                                                                                    ",
"                                                                                                    ",
"                                                                                                    ",
"                                                                                                    ",
"                                                                                                    ",
"                                                                                                    ",
"                                                                                                    ",
"                                                                                                    ",
"                                                                                                    ",
"                              .    .                             .                                  ",
"                           . XXX  XXX                           X.X                                 ",
"                          XXXX.X.  XX.                         ..XXX.XX                             ",
"                          .XXXXX    X                        . .XXX..XX                             ",
"                     .    X.XXX  .X.                          XXXXX.XX.X.XX                         ",
"                    XXX  XXX.X. XXXX.                        .XX .X.XX.X.XX                         ",
"                     XX.      X. XXXX                         X  ..XXXX                             ",
"                      X   .  XXX. .X                              XXX.X                             ",
"                         XXX XXXX.XX                            ...XXXXX.                           ",
"                   XX.    XX..XX..XX.                          .XXXXXXXXXX .                        ",
"                   XX.     XXXXXXXXXX                          XXXXXXX.XX XXX                       ",
"                             XX. XXX.                          XX.XX   X .XX                        ",
"                             .X ..XXX                             X       X                         ",
"                             XX XX XX                                . .                            ",
"                             XX XX                                    XXX                           ",
"                                                                     .XX                            ",
"                                                                      X                             ",
"                                                                                                    ",
"                                                                                                    ",
"                                                                                                    ",
"                                                                                                    ",
"                                                                                                    ",
"                                                                                                    ",
"                                                                                                    ",
"                                                                                                    ",
"                                                                                                    ",
"                                                                                                    ",
"                                                                                                    ",
"                                                                                                    ",
"                                                                                                    ",
"                                                                                                    ",
"                                                                                                    ",
"                                                                                                    ",
"                                                                                                    ",
"                                                                                                    ",
"                                                                                                    ",
"                                                                                                    ",
"                                                                                                    "
};
