/* XPM */
static char *out[] = {
/* columns rows colors chars-per-pixel */
"100 100 3 1 ",
"  c None",
". c #5633A8",
"X c #873AD5",
/* pixels */
"                                                                                                    ",
"                                                                                                    ",
"                                                                                                    ",
"                                                                                                    ",
"                                                                                                    ",
"                                                                                                    ",
"                                                                                                    ",
"                                                                                                    ",
"                                                                                                    ",
"                                                                                                    ",
"                                                                                                    ",
"                                                                                                    ",
"                                                                                                    ",
"                                                                                                    ",
"                                                                                                    ",
"                                                                                                    ",
"                                                                                                    ",
"                                                                                                    ",
"                                                                                                    ",
"                                                                                                    ",
"                                                                                                    ",
"                                                                                                    ",
"                                                                  X   X X                           ",
"                                                                 .XX .X.XX                          ",
"                                  X                               XXX XXXXX                         ",
"                                 XX.                            X. .X.X. .                          ",
"                                XXX                            .XX .XXXXX                           ",
"                                X...                            XXX X.XX                            ",
"                             X XX.                             . . . .XXX                           ",
"                            XXXXX     XX                            .XXXXX                          ",
"                           XXX.. . X  XX                       X     .X..X                          ",
"                            . .   XX. ..                      .XX  X. . XXX                         ",
"                                 XXX                           XXX.XXX . .                          ",
"                                  XX.                         . .  XXXXX                            ",
"                            X    XXX                              ...XX                             ",
"                           XX.    . .                         X    ..X.                             ",
"                          XXX                                .XX   .XX                              ",
"                           .XX.                               XXX                                   ",
"                            XX.                              . .                                    ",
"                                                                                                    ",
"                                                                                                    ",
"                                                                                                    ",
"                                                                                                    ",
"                                                                                                    ",
"                                                                                                    ",
"                                                                                                    ",
"                                                                                                    ",
"                                                                                                    ",
"                                                                                                    ",
"                                                                                                    ",
"                                                                                                    ",
"                                                                                                    ",
"                                                                                                    ",
"                                                                                                    ",
"                                                                                                    ",
"                                                                                                    ",
"                                                                                                    ",
"                                                                                                    ",
"                                                                                                    ",
"                                                                                                    ",
"                                                                                                    ",
"                                                                                                    ",
"                              .                                                                     ",
"                             XXX                                . .                                 ",
"                              XX.                                XXX                                ",
"                         . XX. X                                .XXXX                               ",
"                        XXXXX.  . .                            ..XXX                                ",
"                         XX.   XXXXX                           XX ....                              ",
"                     XX.  X   . XXXX.                          XX .XXXX                             ",
"                     XX.  .  XXX X X                              .XXX                              ",
"                         XXX  XX.                                 .X. . .                           ",
"                   XX.    XX.  X ..                            ..X  XXXXXX. .                       ",
"                   XX.     X     XX                            XXXX .XXXX  XXX                      ",
"                                 XX                            XXX   X X  .XX                       ",
"                             .. ..                                         X                        ",
"                             XX XX                                                                  ",
"                             XX XX                                                                  ",
"                                                                                                    ",
"                                                                                                    ",
"                                                                                                    ",
"                                                                                                    ",
"                                                                                                    ",
"                                                                                                    ",
"                                                                                                    ",
"                                                                                                    ",
"                                                                                                    ",
"                                                                                                    ",
"                                                                                                    ",
"                                                                                                    ",
"                                                                                                    ",
"                                                                                                    ",
"                                                                                                    ",
"                                                                                                    ",
"                                                                                                    ",
"                                                                                                    ",
"                                                                                                    ",
"                                                                                                    ",
"                                                                                                    ",
"                                                                                                    ",
"                                                                                                    "
};
