/* XPM */
static char *out[] = {
/* columns rows colors chars-per-pixel */
"100 100 12 1 ",
"  c None",
". c #FC5842",
"X c #FCD64B",
"o c #EBDFF3",
"O c #EEE3F4",
"+ c #F0E8F6",
"@ c #F3ECF8",
"# c #E7F3F3",
"$ c #F6F1F9",
"% c #F9F5FB",
"& c #FCFAFD",
"* c white",
/* pixels */
"                                                                                                    ",
"                                                                                                    ",
"                                                                                                    ",
"                                                                                                    ",
"                                                                                                    ",
"                                                                                                    ",
"                                                                                                    ",
"                                                                                                    ",
"                                                                                                    ",
"                                                                                                    ",
"                                                                                                    ",
"                                                                                                    ",
"                                                                                                    ",
"                                                                                                    ",
"                                                                                                    ",
"                                                                                                    ",
"                                                                                                    ",
"                                                                                                    ",
"                                                                                                    ",
"                                                                                                    ",
"                                                                                                    ",
"                                                                                                    ",
"                                                                                                    ",
"                                                                                                    ",
"                                                                                                    ",
"                                                                                                    ",
"                                                                                                    ",
"                                                                                                    ",
"                                                                                                    ",
"                                                                                                    ",
"                                                                                                    ",
"                                                   ***                                              ",
"                                                  ****                                              ",
"                                                 *****                                              ",
"                                                 o****                                              ",
"                                              ooo*****                                              ",
"                                          oooooooo****                                              ",
"                                          ooooOOOo***++...XXX                                       ",
"                                          ooooO+@*@@**+OX#XXX                                       ",
"                                          @@@$$$@@@*@**@@XXXX                                       ",
"                                      XXXX@@@$$$$$$**@@@@XXX.                                       ",
"                                      XXXX@@@$$$$$*$$$$@@XXX.                                       ",
"                                      XX.X.@@%*******%$@*X.XX                                       ",
"                                      XXXXX@@************X@@@X                                      ",
"                                     ooX#***************@@@@@X ooo                                  ",
"                                    ooo$$$%%%*******&&&&**@@@OOOoo                                  ",
"                                *******$$$%%&&&&&&&&&&&&%%$@+OOOoo                                  ",
"                               ********$$$%%&&&&&&***&&&%%$@++OOo                                   ",
"                              *********$$$*%&&&&&****&&&%%$*@++O                                    ",
"                               *******@*$***&&&&******&&%%$$**++O                                   ",
"                                **OO*@@$$$*%&&&******&&&&%$$*@***O                                  ",
"                                  OO++@@$$%%&&&******&&&%%*$********                                ",
"                                  OOO+@@$$%%&&&******&&&%%*$$********                               ",
"                                  oOO@@@$$%%&&&&&&***&&&%**$$*********                              ",
"                                   OO@@@@@*%***%&&&&&&&@$$$$$@**o*****                              ",
"                                  oOO@@@@**%%%&&&&&&&&&@@@@@@OOOo  ***                              ",
"                                  ooOOOO*X.*$$%%%&%%%%%@@**@@OOOo                                   ",
"                                  ooo***X.X*$$$$%%%%%%%@@@*.XOOOo                                   ",
"                                       XXXX*$$$$$%$$$@@@@@XX                                        ",
"                                       XXX.X#@$$$$$$@@@@@@XX                                        ",
"                                       XXXXXO*@***$@@@@++#X                                         ",
"                                          XXO@@@*@@@@@@++oX                                         ",
"                                          XXO@@@@@@@@@@++o                                          ",
"                                            o@@@**OO@@@*oo                                          ",
"                                             ****OOOOooo                                            ",
"                                             ****OoOoooo                                            ",
"                                              ***oo oooo                                            ",
"                                             *****   ooo                                            ",
"                                             *****                                                  ",
"                                              ***                                                   ",
"                                               *                                                    ",
"                                                                                                    ",
"                                                                                                    ",
"                                                                                                    ",
"                                                                                                    ",
"                                                                                                    ",
"                                                                                                    ",
"                                                                                                    ",
"                                                                                                    ",
"                                                                                                    ",
"                                                                                                    ",
"                                                                                                    ",
"                                                                                                    ",
"                                                                                                    ",
"                                                                                                    ",
"                                                                                                    ",
"                                                                                                    ",
"                                                                                                    ",
"                                                                                                    ",
"                                                                                                    ",
"                                                                                                    ",
"                                                                                                    ",
"                                                                                                    ",
"                                                                                                    ",
"                                                                                                    ",
"                                                                                                    ",
"                                                                                                    ",
"                                                                                                    ",
"                                                                                                    ",
"                                                                                                    "
};
