/* XPM */
static char *out[] = {
/* columns rows colors chars-per-pixel */
"100 100 12 1 ",
"  c None",
". c #FC5842",
"X c #FCD64B",
"o c #E8DAF1",
"O c #EBDFF3",
"+ c #EEE3F4",
"@ c #F0E8F6",
"# c #F3ECF8",
"$ c #E7F3F3",
"% c #F6F1F9",
"& c #F9F5FB",
"* c white",
/* pixels */
"                                                                                                    ",
"                                                                                                    ",
"                                                                                                    ",
"                                                                                                    ",
"                                                                                                    ",
"                                                                                                    ",
"                                                                                                    ",
"                                                                                                    ",
"                                                                                                    ",
"                                                                                                    ",
"                                                                                                    ",
"                                                                                                    ",
"                                                                                                    ",
"                                                                                                    ",
"                                                                                                    ",
"                                                                                                    ",
"                                                                                                    ",
"                                                                                                    ",
"                                                                                                    ",
"                                                                                                    ",
"                                                                                                    ",
"                                                                                                    ",
"                                                                                                    ",
"                                                                                                    ",
"                                                                                                    ",
"                                                                                                    ",
"                                                                                                    ",
"                                                                                                    ",
"                                                                                                    ",
"                                                                                                    ",
"                                                                                                    ",
"                                                   ***                                              ",
"                                                  ****                                              ",
"                                                 *****                                              ",
"                                                 o****                                              ",
"                                            XOOOo****++                                             ",
"                                          oooOOOOO+***+ ...XXX                                      ",
"                                          o++###++*****OXX$XXX                                      ",
"                                          o++######****OXXXXXX                                      ",
"                                      XXXX@@@######**###@XXXX.                                      ",
"                                      XXXX@@%%%******%##@XX.X.                                      ",
"                                      XXX.@@%**********%%*XXXX                                      ",
"                                      XXXXX***************XX$$X                                     ",
"                                      X$******************X@@@X                                     ",
"                                     X##%%%***************@@@@X                                     ",
"                                   o+###%%%%************&&%%@@oOOo                                  ",
"                                ***+*###%%&&&***********&&%%#+OOOo                                  ",
"                              ****+**##*%%&&&***********&&%%#++OO                                   ",
"                             ************%&&&&*********&&%%%##++OO                                  ",
"                              ********#***&&&&*********&&&%%*#+*+OO                                 ",
"                                *O++@###%%&&&*********&&&&%%%#****OO                                ",
"                                OO++#####%&&&*********&&&&*%**#***** *                              ",
"                                OO++@###%%&&***********&&&*%**#********                             ",
"                                OOOO@@##%%&&***********&&&*%**#********                             ",
"                                 OOO@@##%%%*****&&******%%%####*+******                             ",
"                                 OOO++++%%%%%%&&&&&&***%**@@###++O ***                              ",
"                                  OO+++**%%%*%&&&&&&&&*%@***XOOOOO                                  ",
"                                  OOOO**XX***%%%&&&&&&%%%@**XXOOOO                                  ",
"                                     X.X..**#%%%%&%%%%%%%@**XX OOO                                  ",
"                                      XXXX**##*%%%%%%%%%%@XX.                                       ",
"                                      XXX.X$###*%*#%%%#+.XXX                                        ",
"                                      XXXXXOO*##*#####+++$$X                                        ",
"                                         XXOO*****###@++++XX                                        ",
"                                         XXOO*@***@#@@++++                                          ",
"                                             *@@*++@@@o                                             ",
"                                             ****+OOOOo                                             ",
"                                              ***OOOOoo                                             ",
"                                             ****O Oooo                                             ",
"                                             *****                                                  ",
"                                             ****                                                   ",
"                                             ***                                                    ",
"                                              *                                                     ",
"                                                                                                    ",
"                                                                                                    ",
"                                                                                                    ",
"                                                                                                    ",
"                                                                                                    ",
"                                                                                                    ",
"                                                                                                    ",
"                                                                                                    ",
"                                                                                                    ",
"                                                                                                    ",
"                                                                                                    ",
"                                                                                                    ",
"                                                                                                    ",
"                                                                                                    ",
"                                                                                                    ",
"                                                                                                    ",
"                                                                                                    ",
"                                                                                                    ",
"                                                                                                    ",
"                                                                                                    ",
"                                                                                                    ",
"                                                                                                    ",
"                                                                                                    ",
"                                                                                                    ",
"                                                                                                    ",
"                                                                                                    ",
"                                                                                                    ",
"                                                                                                    "
};
